<svg width="9" height="13" viewBox="0 0 9 13" fill="none" xmlns="http://www.w3.org/2000/svg">
<path d="M7.70774 0.604142C7.91593 0.811107 8.02002 1.07451 8.02002 1.39437C8.02002 1.71422 7.91593 1.97763 7.70774 2.18459L3.27909 6.58728L7.70774 10.99C7.91593 11.1969 8.02002 11.4603 8.02002 11.7802C8.02002 12.1 7.91593 12.3635 7.70774 12.5704C7.49956 12.7774 7.2346 12.8809 6.91286 12.8809C6.59112 12.8809 6.32615 12.7774 6.11797 12.5704L0.894429 7.3775C0.780874 7.26461 0.700249 7.14232 0.652556 7.01061C0.60562 6.87891 0.582151 6.7378 0.582151 6.58728C0.582151 6.43676 0.60562 6.29565 0.652556 6.16394C0.700249 6.03224 0.780874 5.90994 0.894429 5.79705L6.11797 0.604142C6.32615 0.397179 6.59112 0.293695 6.91286 0.293695C7.2346 0.293695 7.49956 0.397179 7.70774 0.604142Z" fill="white"/>
</svg>
