<svg width="9" height="13" viewBox="0 0 9 13" fill="none" xmlns="http://www.w3.org/2000/svg">
<path d="M0.89443 12.5704C0.686245 12.3635 0.582153 12.1 0.582153 11.7802C0.582153 11.4603 0.686245 11.1969 0.89443 10.99L5.32308 6.58728L0.89443 2.1846C0.686245 1.97763 0.582153 1.71423 0.582153 1.39437C0.582153 1.07452 0.686245 0.81111 0.89443 0.604146C1.10261 0.397183 1.36758 0.293701 1.68932 0.293701C2.01106 0.293701 2.27602 0.397183 2.4842 0.604146L7.70774 5.79706C7.8213 5.90995 7.90192 6.03224 7.94962 6.16395C7.99655 6.29565 8.02002 6.43676 8.02002 6.58728C8.02002 6.7378 7.99655 6.87891 7.94962 7.01062C7.90192 7.14232 7.8213 7.26462 7.70774 7.37751L2.4842 12.5704C2.27602 12.7774 2.01106 12.8809 1.68932 12.8809C1.36758 12.8809 1.10261 12.7774 0.89443 12.5704Z" fill="white"/>
</svg>
