<svg width="19" height="21" viewBox="0 0 19 21" fill="none" xmlns="http://www.w3.org/2000/svg">
<path d="M12.6841 16.5765V15.7878C12.6841 15.7878 10.4261 15.2132 10.4261 11.2581H8.55319C8.55319 15.2132 6.29523 15.7878 6.29523 15.7878V16.5765H12.6841Z" fill="url(#paint0_linear_1_23)"/>
<path d="M10.4563 12.0303C10.4652 12.1388 10.476 12.2443 10.4888 12.3466C10.8547 15.3226 12.6834 15.7879 12.6834 15.7879V16.5767H12.2107V15.7879C12.2107 15.7879 10.4777 15.347 10.0482 12.5781C9.87197 12.6405 9.68608 12.6724 9.4988 12.6724C9.12728 12.6724 8.78117 12.5479 8.49084 12.3335C8.50326 12.2311 8.51389 12.1257 8.52274 12.0173L10.4563 12.0303Z" fill="url(#paint1_linear_1_23)"/>
<path d="M11.3579 10.2124C11.3579 11.3839 10.5258 12.3337 9.49945 12.3337C8.47305 12.3337 7.64099 11.3839 7.64099 10.2124H11.3579Z" fill="url(#paint2_linear_1_23)"/>
<path d="M11.358 10.2124C11.3582 10.4275 11.3295 10.6418 11.2727 10.8495C11.1355 11.3476 10.8416 11.7664 10.457 12.0308C10.1774 12.2231 9.84973 12.3861 9.4995 12.3861C9.15454 12.3861 8.81557 12.2544 8.55476 12.0396C8.74058 12.1178 8.94054 12.1582 9.1426 12.1583C9.81302 12.1583 10.3931 11.7165 10.6715 11.0741C9.69472 11.3551 8.64757 11.2753 7.72625 10.8495C7.66932 10.6418 7.64066 10.4276 7.64099 10.2124L11.358 10.2124Z" fill="url(#paint3_linear_1_23)"/>
<path d="M15.124 1.90171C15.124 7.70446 12.606 11.0234 9.49993 11.0234C6.39384 11.0234 3.87585 7.70446 3.87585 1.90171V0.927734H15.124V1.90171Z" fill="url(#paint4_linear_1_23)"/>
<path d="M3.22869 8.23999C3.38276 8.31339 3.53154 8.3578 3.70336 8.36645C3.77914 8.37024 3.85481 8.35894 3.92947 8.34757C3.97832 8.34037 4.02625 8.32806 4.07245 8.31085C4.31597 8.21898 4.54282 8.05606 4.65426 7.81614C4.71841 7.68147 4.75585 7.53595 4.76458 7.38741C4.77118 7.26492 4.75735 7.14219 4.72362 7.02412C4.68697 6.89249 4.62294 6.76229 4.55107 6.64527C4.29717 6.23192 3.91559 5.90597 3.53792 5.60626C3.27717 5.39935 3.00972 5.20077 2.74485 4.99904L2.82068 5.05681C2.38381 4.72396 1.9495 4.38214 1.5711 3.98405C1.46686 3.87439 1.36736 3.76042 1.27411 3.64151L1.3327 3.71628C1.16103 3.4963 1.01209 3.25914 0.901611 3.00342L0.939412 3.09168C0.850389 2.88499 0.789405 2.66763 0.758039 2.4452L0.771424 2.54343C0.744035 2.35228 0.742085 2.15842 0.765625 1.96677L0.752251 2.06499C0.774659 1.90292 0.818473 1.74443 0.882577 1.59356L0.844799 1.68183C0.908437 1.53482 0.990769 1.39638 1.08982 1.26984L1.03123 1.34462C1.12794 1.22253 1.23945 1.11257 1.36326 1.0172L1.28743 1.07497C1.41574 0.977298 1.55613 0.896111 1.70521 0.833365L1.6157 0.870607C1.76869 0.807373 1.92941 0.764148 2.09376 0.742032L1.99416 0.755231C2.13471 0.735442 2.27729 0.733949 2.41823 0.750793L2.31863 0.737594C2.42665 0.752889 2.53227 0.781609 2.63296 0.82307L2.54347 0.785817C2.64153 0.827262 2.73405 0.880452 2.81894 0.944188L2.74311 0.886414C2.83 0.952821 2.90805 1.02978 2.97539 1.11547L2.9168 1.04069C2.98144 1.1244 3.03537 1.21564 3.0774 1.31234L3.03962 1.22409C3.08166 1.32339 3.11079 1.42754 3.1263 1.53406L3.11292 1.43584C3.12065 1.49289 3.12467 1.55036 3.12494 1.60792C3.12627 1.70565 3.16555 1.79915 3.23468 1.86918C3.29964 1.93324 3.40635 1.98153 3.49963 1.9774C3.7018 1.96847 3.87534 1.81498 3.87427 1.60795C3.87221 1.18282 3.69941 0.766612 3.39259 0.466798C3.083 0.166226 2.66552 -0.00154857 2.23107 1.07732e-05C1.43105 0.00492914 0.666848 0.446999 0.280742 1.14002C0.0876619 1.48718 -0.00902755 1.87846 0.000452655 2.2743C0.00679893 2.58114 0.0642689 2.88487 0.170563 3.17333C0.386733 3.74898 0.762783 4.24148 1.20302 4.67015C1.63326 5.08908 2.11797 5.44908 2.59657 5.81154C2.65121 5.85292 2.7058 5.89437 2.76036 5.93587L2.68453 5.8781C3.01352 6.12882 3.34537 6.38277 3.63303 6.68015C3.70288 6.75194 3.76901 6.82717 3.83115 6.90556L3.77256 6.83077C3.86564 6.94658 3.94325 7.07369 4.00349 7.209L3.96572 7.12074C3.9934 7.18627 4.01255 7.25499 4.02271 7.32526L4.00932 7.22703C4.01866 7.29784 4.01884 7.36953 4.00987 7.44039L4.02325 7.34217C4.01461 7.40303 3.9983 7.46258 3.97471 7.51946L4.01249 7.43119C3.99158 7.47887 3.96478 7.52382 3.93269 7.56502L3.99127 7.49023C3.95728 7.53139 3.91857 7.56852 3.87591 7.60089L3.95174 7.54311C3.90719 7.57594 3.859 7.60367 3.80809 7.62575L3.8976 7.58851C3.84395 7.61069 3.78776 7.62631 3.73026 7.63503L3.82987 7.62183C3.76851 7.62984 3.70635 7.6299 3.64497 7.62202L3.74457 7.63522C3.68246 7.62586 3.62171 7.60918 3.56363 7.58555L3.65314 7.6228C3.63755 7.61615 3.62223 7.60922 3.60693 7.60194C3.51501 7.55814 3.41958 7.53716 3.31822 7.56468C3.23131 7.58829 3.13711 7.65455 3.09429 7.73449C3.04835 7.82028 3.02532 7.92413 3.05652 8.0192C3.08522 8.10664 3.14168 8.19856 3.22871 8.24002L3.22869 8.23999Z" fill="url(#paint5_linear_1_23)"/>
<path d="M3.09254 0.466798C2.81984 0.202042 2.4622 0.0391473 2.08099 0.00607276C2.13126 0.00241258 2.18163 0.000391872 2.23213 1.0603e-05C2.66658 -0.00153631 3.08405 0.166237 3.39365 0.466798C3.70044 0.766589 3.87327 1.18282 3.87535 1.60797C3.8764 1.815 3.70288 1.9685 3.50071 1.97742C3.44726 1.97834 3.39433 1.96686 3.34621 1.94391C3.4789 1.88683 3.57517 1.76227 3.57436 1.60797C3.57216 1.18282 3.39933 0.766601 3.09254 0.466798Z" fill="url(#paint6_linear_1_23)"/>
<path d="M4.76554 7.38667C4.75675 7.5352 4.71927 7.68071 4.65512 7.81537C4.54377 8.05534 4.3169 8.21822 4.07332 8.31007C4.02715 8.32731 3.97924 8.33962 3.93042 8.34679C3.85572 8.35822 3.7801 8.36955 3.70424 8.36566C3.66426 8.36367 3.62442 8.35959 3.58489 8.35342C3.59973 8.35125 3.61458 8.34907 3.62931 8.34679C3.67817 8.33962 3.72612 8.32731 3.77232 8.31007C4.01579 8.21822 4.24266 8.05534 4.35413 7.81537C4.41824 7.6807 4.45568 7.5352 4.46444 7.38667C4.47101 7.26419 4.45717 7.14147 4.42349 7.0234C4.38684 6.89175 4.32281 6.76158 4.2509 6.64457C3.997 6.2312 3.61539 5.90522 3.23773 5.60554C2.9909 5.40972 2.73816 5.22134 2.48728 5.03066C2.06159 4.70582 1.63974 4.37137 1.27089 3.98328C1.17972 3.88743 1.09215 3.78815 1.00922 3.6852C1.01688 3.69538 1.02465 3.70545 1.03253 3.71552C1.01305 3.69058 0.993445 3.66565 0.973959 3.64082C0.98521 3.65524 0.996577 3.66942 1.00806 3.68372C0.854081 3.4853 0.72356 3.27021 0.619031 3.04261C0.547028 2.86539 0.495362 2.68077 0.464997 2.49222C0.445574 2.33274 0.44394 2.17164 0.460125 2.01182C0.481363 1.88468 0.51592 1.76007 0.56324 1.63997C0.616918 1.52337 0.682604 1.41253 0.759263 1.30918C0.83985 1.21217 0.930032 1.12331 1.02847 1.04393C1.13305 0.968552 1.24518 0.903933 1.3631 0.851083C1.48603 0.803962 1.61362 0.769652 1.74378 0.748712C1.85 0.736726 1.95716 0.735193 2.06368 0.744137C2.04872 0.741392 2.03364 0.73899 2.01845 0.736816C2.03677 0.739218 2.0551 0.741735 2.07331 0.744137C2.08038 0.743222 2.08758 0.742192 2.09465 0.741277C2.08781 0.742192 2.08096 0.743107 2.07424 0.744251C2.07667 0.744594 2.07911 0.744823 2.08143 0.745166L2.07841 0.745509C2.07679 0.745624 2.07528 0.745738 2.07377 0.745967C2.06403 0.746768 2.05429 0.747683 2.04454 0.748826C1.91446 0.769728 1.78695 0.804 1.6641 0.851083C1.546 0.90403 1.43372 0.968764 1.329 1.04427C1.23081 1.12361 1.14082 1.21234 1.06037 1.30918C0.984017 1.41199 0.918565 1.52226 0.865045 1.63825C0.817081 1.75955 0.782169 1.88549 0.760886 2.01399C0.745049 2.17327 0.746799 2.33377 0.766106 2.49267C0.796432 2.68109 0.8481 2.86556 0.92014 3.04261C1.02467 3.27021 1.15519 3.4853 1.30917 3.68372C1.30952 3.68418 1.30987 3.68463 1.31033 3.6852C1.39315 3.78815 1.48072 3.88743 1.572 3.98328C1.93517 4.36554 2.35006 4.69576 2.76913 5.01602C3.02628 5.21173 3.28575 5.40469 3.53884 5.60554C3.9165 5.90522 4.29811 6.2312 4.55201 6.64457C4.6238 6.76158 4.68783 6.89175 4.72448 7.0234C4.75826 7.14146 4.77213 7.26418 4.76554 7.38667Z" fill="url(#paint7_linear_1_23)"/>
<path d="M15.77 8.23999C15.616 8.31339 15.4672 8.3578 15.2954 8.36645C15.2196 8.37024 15.1439 8.35894 15.0692 8.34757C15.0204 8.34037 14.9725 8.32806 14.9263 8.31085C14.6827 8.21898 14.4559 8.05606 14.3445 7.81614C14.2803 7.68147 14.2429 7.53594 14.2341 7.38741C14.2275 7.26492 14.2414 7.14219 14.2751 7.02412C14.3118 6.89249 14.3758 6.76229 14.4476 6.64527C14.7016 6.23192 15.0831 5.90597 15.4608 5.60626C15.7216 5.39935 15.989 5.20077 16.2539 4.99904L16.178 5.05681C16.6149 4.72396 17.0492 4.38214 17.4276 3.98405C17.5319 3.87439 17.6314 3.76042 17.7246 3.64151L17.666 3.71628C17.8377 3.4963 17.9866 3.25914 18.0971 3.00342L18.0593 3.09168C18.1483 2.88499 18.2093 2.66762 18.2407 2.4452L18.2273 2.54343C18.2547 2.35228 18.2566 2.15842 18.2331 1.96677L18.2465 2.06499C18.2241 1.90292 18.1802 1.74443 18.1161 1.59356L18.1539 1.68183C18.0903 1.53481 18.008 1.39638 17.9089 1.26984L17.9675 1.34462C17.8708 1.22253 17.7593 1.11257 17.6355 1.0172L17.7113 1.07497C17.583 0.977297 17.4426 0.896111 17.2935 0.833364L17.383 0.870607C17.23 0.807372 17.0693 0.764147 16.905 0.742032L17.0046 0.755231C16.864 0.735441 16.7214 0.733949 16.5805 0.750793L16.6801 0.737594C16.5721 0.752888 16.4665 0.781609 16.3658 0.82307L16.4553 0.785816C16.3572 0.827261 16.2647 0.880452 16.1798 0.944188L16.2556 0.886414C16.1687 0.95282 16.0907 1.02978 16.0233 1.11547L16.0819 1.04069C16.0173 1.1244 15.9633 1.21564 15.9213 1.31234L15.9591 1.22409C15.9171 1.32339 15.8879 1.42754 15.8724 1.53406L15.8858 1.43584C15.8781 1.49289 15.8741 1.55036 15.8738 1.60792C15.8725 1.70565 15.8332 1.79915 15.764 1.86918C15.6991 1.93324 15.5924 1.98153 15.4991 1.9774C15.2969 1.96847 15.1234 1.81498 15.1244 1.60795C15.1266 1.18288 15.2994 0.766623 15.6062 0.466855C15.9158 0.166282 16.3332 -0.00151269 16.7677 1.02774e-05C17.5677 0.00492864 18.3319 0.446998 18.718 1.14002C18.9111 1.48718 19.0078 1.87846 18.9983 2.2743C18.9919 2.58114 18.9345 2.88487 18.8282 3.17333C18.612 3.74898 18.2359 4.24148 17.7957 4.67015C17.3655 5.08908 16.8808 5.44908 16.4022 5.81154C16.3475 5.85292 16.2929 5.89437 16.2384 5.93587L16.3142 5.8781C15.9852 6.12882 15.6534 6.38277 15.3657 6.68015C15.2958 6.75194 15.2297 6.82717 15.1676 6.90556L15.2262 6.83077C15.1331 6.94658 15.0555 7.07369 14.9952 7.209L15.033 7.12074C15.0053 7.18627 14.9862 7.25499 14.976 7.32526L14.9894 7.22703C14.9801 7.29784 14.9799 7.36953 14.9889 7.44039L14.9755 7.34217C14.9841 7.40303 15.0004 7.46258 15.024 7.51946L14.9862 7.43119C15.0071 7.47887 15.0339 7.52382 15.066 7.56502L15.0075 7.49023C15.0414 7.53139 15.0802 7.56852 15.1228 7.60089L15.047 7.54311C15.0915 7.57594 15.1397 7.60367 15.1906 7.62575L15.1011 7.58851C15.1548 7.61069 15.211 7.62631 15.2685 7.63503L15.1689 7.62183C15.2302 7.62984 15.2924 7.6299 15.3537 7.62202L15.2541 7.63522C15.3163 7.62586 15.377 7.60918 15.4351 7.58555L15.3456 7.6228C15.3612 7.61615 15.3765 7.60922 15.3918 7.60194C15.4837 7.55814 15.5791 7.53716 15.6805 7.56468C15.7674 7.58829 15.8616 7.65455 15.9044 7.73449C15.9504 7.82028 15.9734 7.92413 15.9422 8.0192C15.9135 8.10664 15.857 8.19856 15.77 8.24002L15.77 8.23999Z" fill="url(#paint8_linear_1_23)"/>
<path d="M15.124 0.927734V1.90168C15.124 7.70444 12.606 11.0233 9.49988 11.0233C7.93901 11.0233 6.52672 10.1852 5.50775 8.61502C6.45968 9.85468 7.70112 10.5119 9.05912 10.5119C12.0571 10.5119 14.4874 7.30857 14.4874 1.7077V0.927734H15.124Z" fill="url(#paint9_linear_1_23)"/>
<path d="M15.9431 8.01888C15.9143 8.10638 15.8578 8.19823 15.7708 8.23975C15.6168 8.31318 15.468 8.35756 15.2962 8.36614C15.2226 8.36992 15.1495 8.35939 15.077 8.3483C15.1888 8.32648 15.2972 8.28998 15.3992 8.23975C15.4862 8.19823 15.5427 8.10638 15.5713 8.01888C15.6025 7.92383 15.5795 7.81997 15.5336 7.73419C15.5012 7.67857 15.454 7.63268 15.3972 7.60139C15.3966 7.60099 15.396 7.60064 15.3954 7.60036C15.4865 7.55736 15.5811 7.53711 15.6813 7.56445C15.7683 7.58801 15.8624 7.65424 15.9052 7.73419C15.9512 7.81997 15.9743 7.92383 15.9431 8.01888Z" fill="url(#paint10_linear_1_23)"/>
<path d="M18.9991 2.27426C18.9928 2.58114 18.9353 2.8849 18.8291 3.1734C18.6129 3.74897 18.2368 4.24149 17.7965 4.67019C17.3663 5.08905 16.8816 5.449 16.403 5.81159C16.3531 5.84945 16.3033 5.88731 16.2534 5.92517C16.2529 5.92552 16.2524 5.9259 16.252 5.92631C16.2477 5.92952 16.2434 5.93272 16.2392 5.93592C15.9353 6.16812 15.632 6.40568 15.3665 6.6802C15.3077 6.74093 15.2511 6.80384 15.1977 6.86927C15.1287 6.95953 15.069 7.05627 15.0193 7.15808C15.019 7.15819 15.019 7.15831 15.019 7.15842C15.0047 7.19733 14.9934 7.23725 14.9853 7.27784C14.9825 7.31503 14.9824 7.35237 14.9848 7.38959C14.9906 7.41785 14.9982 7.44573 15.0074 7.47308C15.0162 7.4899 15.0258 7.50614 15.0362 7.52204C15.051 7.53794 15.0667 7.55307 15.0831 7.56745C15.0861 7.56951 15.0891 7.57145 15.0922 7.57328C15.0916 7.57342 15.091 7.57361 15.0904 7.57385C15.0898 7.57395 15.0893 7.57411 15.0889 7.57431C15.0668 7.58171 15.0452 7.59042 15.0243 7.60039C14.9935 7.61114 14.9622 7.61992 14.9303 7.6267C14.9046 7.62816 14.8788 7.6282 14.853 7.62681C14.8015 7.61955 14.7527 7.59913 14.7115 7.56756C14.6951 7.55318 14.6794 7.53798 14.6646 7.52204C14.6542 7.50625 14.6447 7.49005 14.6359 7.47343C14.6266 7.44598 14.619 7.41798 14.6132 7.38959C14.6107 7.35233 14.6109 7.31495 14.6136 7.27772C14.6218 7.23715 14.633 7.19727 14.6474 7.15842C14.6474 7.15831 14.6474 7.15819 14.6476 7.15808C14.6973 7.05627 14.7571 6.95953 14.826 6.86927C14.8795 6.80384 14.9361 6.74093 14.9949 6.6802C15.2647 6.40134 15.5733 6.16057 15.882 5.92494C15.9318 5.88708 15.9816 5.8493 16.0314 5.81159C16.51 5.449 16.9947 5.08905 17.4249 4.67019C17.8652 4.24149 18.2412 3.74897 18.4573 3.1734C18.5636 2.88491 18.6211 2.58114 18.6275 2.27426C18.637 1.87844 18.5403 1.48717 18.3471 1.14006C17.9916 0.501815 17.3153 0.0763191 16.5856 0.00929209C16.6463 0.0027664 16.7074 -0.000326898 16.7685 2.72941e-05C17.5685 0.00494566 18.3327 0.447027 18.7189 1.14006C18.9119 1.4872 19.0086 1.87845 18.9991 2.27426Z" fill="url(#paint11_linear_1_23)"/>
<path d="M13.5605 16.5974V20.7581H5.36743V16.5974C5.3676 16.5344 5.39304 16.474 5.4382 16.4295C5.48335 16.3849 5.54454 16.3598 5.60841 16.3596H13.3196C13.3834 16.3598 13.4446 16.3849 13.4898 16.4295C13.5349 16.474 13.5604 16.5344 13.5605 16.5974Z" fill="url(#paint12_linear_1_23)"/>
<path d="M12.3562 17.5486V19.2129C12.356 19.2758 12.3306 19.3362 12.2854 19.3808C12.2403 19.4253 12.1791 19.4504 12.1152 19.4506H6.81378C6.74991 19.4504 6.68872 19.4253 6.64357 19.3808C6.59842 19.3362 6.57298 19.2758 6.57281 19.2129V17.5486C6.57298 17.4856 6.59842 17.4252 6.64357 17.3807C6.68872 17.3361 6.74991 17.311 6.81378 17.3108H12.1152C12.1791 17.311 12.2403 17.3361 12.2854 17.3807C12.3306 17.4252 12.356 17.4856 12.3562 17.5486Z" fill="url(#paint13_linear_1_23)"/>
<path d="M12.3566 17.5486V19.2129C12.3564 19.2758 12.331 19.3362 12.2858 19.3808C12.2407 19.4253 12.1795 19.4504 12.1156 19.4506H7.33228C8.30581 19.4316 11.5132 19.2271 11.5132 17.3108H12.1156C12.1795 17.311 12.2407 17.3361 12.2858 17.3807C12.331 17.4252 12.3564 17.4856 12.3566 17.5486Z" fill="url(#paint14_linear_1_23)"/>
<path d="M6.81451 18.6192V17.6465C6.81451 17.6208 6.8249 17.596 6.84339 17.5778C6.86188 17.5596 6.88696 17.5493 6.91311 17.5493H9.07367C9.07367 17.5493 7.35673 17.7276 6.81451 18.6192Z" fill="url(#paint15_linear_1_23)"/>
<path d="M5.63953 17.668V16.6954C5.63953 16.6696 5.64991 16.6449 5.6684 16.6266C5.68689 16.6084 5.71197 16.5981 5.73812 16.5981H7.89865C7.89865 16.5981 6.18172 16.7764 5.63953 17.668Z" fill="url(#paint16_linear_1_23)"/>
<path d="M7.49266 9.59626C6.75601 9.59626 4.71292 7.20385 4.46533 1.55542H5.61363C5.81645 8.46636 7.49266 9.59626 7.49266 9.59626Z" fill="url(#paint17_linear_1_23)"/>
<path d="M7.07574 15.8651C7.07574 15.8651 8.6416 14.8123 8.6416 13.2915V15.8651H7.07574Z" fill="url(#paint18_linear_1_23)"/>
<path d="M1.94371 0.570094C1.94371 0.570094 1.78481 0.524662 1.45983 0.590088C1.06354 0.669868 0.564514 1.0946 0.564514 1.0946C0.820318 0.590088 1.40226 0.27832 1.64786 0.27832C1.72632 0.278326 1.80158 0.309069 1.85706 0.363787C1.91254 0.418504 1.94371 0.492715 1.94371 0.570094Z" fill="url(#paint19_linear_1_23)"/>
<defs>
<linearGradient id="paint0_linear_1_23" x1="12.0956" y1="11.5113" x2="10.074" y2="15.2714" gradientUnits="userSpaceOnUse">
<stop stop-color="#FEEDB5"/>
<stop offset="0.39" stop-color="#FDB92C"/>
<stop offset="0.624" stop-color="#FE9F1F"/>
<stop offset="1" stop-color="#DA490F"/>
</linearGradient>
<linearGradient id="paint1_linear_1_23" x1="12.2973" y1="12.2344" x2="10.3429" y2="15.0169" gradientUnits="userSpaceOnUse">
<stop stop-color="#FEEDB5"/>
<stop offset="0.39" stop-color="#FDB92C"/>
<stop offset="0.624" stop-color="#FE9F1F"/>
<stop offset="1" stop-color="#DA490F"/>
</linearGradient>
<linearGradient id="paint2_linear_1_23" x1="11.0156" y1="10.3134" x2="10.3882" y2="12.0154" gradientUnits="userSpaceOnUse">
<stop stop-color="#FEEDB5"/>
<stop offset="0.39" stop-color="#FDB92C"/>
<stop offset="0.624" stop-color="#FE9F1F"/>
<stop offset="1" stop-color="#DA490F"/>
</linearGradient>
<linearGradient id="paint3_linear_1_23" x1="11.0157" y1="10.3159" x2="10.3608" y2="12.0496" gradientUnits="userSpaceOnUse">
<stop stop-color="#FEEDB5"/>
<stop offset="0.39" stop-color="#FDB92C"/>
<stop offset="0.624" stop-color="#FE9F1F"/>
<stop offset="1" stop-color="#DA490F"/>
</linearGradient>
<linearGradient id="paint4_linear_1_23" x1="14.088" y1="1.40842" x2="10.0959" y2="8.29501" gradientUnits="userSpaceOnUse">
<stop stop-color="#FEEDB5"/>
<stop offset="0.39" stop-color="#FDB92C"/>
<stop offset="0.624" stop-color="#FE9F1F"/>
<stop offset="1" stop-color="#DA490F"/>
</linearGradient>
<linearGradient id="paint5_linear_1_23" x1="4.32719" y1="0.39839" x2="0.544282" y2="3.73486" gradientUnits="userSpaceOnUse">
<stop stop-color="#FEEDB5"/>
<stop offset="0.39" stop-color="#FDB92C"/>
<stop offset="0.624" stop-color="#FE9F1F"/>
<stop offset="1" stop-color="#DA490F"/>
</linearGradient>
<linearGradient id="paint6_linear_1_23" x1="3.71009" y1="0.0941541" x2="2.85868" y2="1.29033" gradientUnits="userSpaceOnUse">
<stop stop-color="#FEEDB5"/>
<stop offset="0.39" stop-color="#FDB92C"/>
<stop offset="0.624" stop-color="#FE9F1F"/>
<stop offset="1" stop-color="#DA490F"/>
</linearGradient>
<linearGradient id="paint7_linear_1_23" x1="4.36944" y1="1.10009" x2="0.92287" y2="4.12022" gradientUnits="userSpaceOnUse">
<stop stop-color="#FEEDB5"/>
<stop offset="0.39" stop-color="#FDB92C"/>
<stop offset="0.624" stop-color="#FE9F1F"/>
<stop offset="1" stop-color="#DA490F"/>
</linearGradient>
<linearGradient id="paint8_linear_1_23" x1="18.5599" y1="0.39839" x2="14.777" y2="3.73486" gradientUnits="userSpaceOnUse">
<stop stop-color="#FEEDB5"/>
<stop offset="0.39" stop-color="#FDB92C"/>
<stop offset="0.624" stop-color="#FE9F1F"/>
<stop offset="1" stop-color="#DA490F"/>
</linearGradient>
<linearGradient id="paint9_linear_1_23" x1="14.2383" y1="1.40842" x2="9.96457" y2="7.71127" gradientUnits="userSpaceOnUse">
<stop stop-color="#FEEDB5"/>
<stop offset="0.39" stop-color="#FDB92C"/>
<stop offset="0.624" stop-color="#FE9F1F"/>
<stop offset="1" stop-color="#DA490F"/>
</linearGradient>
<linearGradient id="paint10_linear_1_23" x1="15.8763" y1="7.5908" x2="15.5492" y2="8.13794" gradientUnits="userSpaceOnUse">
<stop stop-color="#FEEDB5"/>
<stop offset="0.39" stop-color="#FDB92C"/>
<stop offset="0.624" stop-color="#FE9F1F"/>
<stop offset="1" stop-color="#DA490F"/>
</linearGradient>
<linearGradient id="paint11_linear_1_23" x1="18.5956" y1="0.363186" x2="15.1428" y2="3.43864" gradientUnits="userSpaceOnUse">
<stop stop-color="#FEEDB5"/>
<stop offset="0.39" stop-color="#FDB92C"/>
<stop offset="0.624" stop-color="#FE9F1F"/>
<stop offset="1" stop-color="#DA490F"/>
</linearGradient>
<linearGradient id="paint12_linear_1_23" x1="12.8059" y1="16.569" x2="11.5651" y2="20.1475" gradientUnits="userSpaceOnUse">
<stop stop-color="#FEEDB5"/>
<stop offset="0.39" stop-color="#FDB92C"/>
<stop offset="0.624" stop-color="#FE9F1F"/>
<stop offset="1" stop-color="#DA490F"/>
</linearGradient>
<linearGradient id="paint13_linear_1_23" x1="11.8235" y1="17.4127" x2="11.3827" y2="19.2575" gradientUnits="userSpaceOnUse">
<stop stop-color="#FEEDB5"/>
<stop offset="0.39" stop-color="#FDB92C"/>
<stop offset="0.624" stop-color="#FE9F1F"/>
<stop offset="1" stop-color="#DA490F"/>
</linearGradient>
<linearGradient id="paint14_linear_1_23" x1="11.8938" y1="17.4127" x2="11.3951" y2="19.2257" gradientUnits="userSpaceOnUse">
<stop stop-color="#FEEDB5"/>
<stop offset="0.39" stop-color="#FDB92C"/>
<stop offset="0.624" stop-color="#FE9F1F"/>
<stop offset="1" stop-color="#DA490F"/>
</linearGradient>
<linearGradient id="paint15_linear_1_23" x1="8.86559" y1="17.6003" x2="8.59287" y2="18.4919" gradientUnits="userSpaceOnUse">
<stop stop-color="#FEEDB5"/>
<stop offset="0.39" stop-color="#FDB92C"/>
<stop offset="0.624" stop-color="#FE9F1F"/>
<stop offset="1" stop-color="#DA490F"/>
</linearGradient>
<linearGradient id="paint16_linear_1_23" x1="7.69058" y1="16.6491" x2="7.41785" y2="17.5407" gradientUnits="userSpaceOnUse">
<stop stop-color="#FEEDB5"/>
<stop offset="0.39" stop-color="#FDB92C"/>
<stop offset="0.624" stop-color="#FE9F1F"/>
<stop offset="1" stop-color="#DA490F"/>
</linearGradient>
<linearGradient id="paint17_linear_1_23" x1="7.21384" y1="1.93827" x2="4.0255" y2="3.79684" gradientUnits="userSpaceOnUse">
<stop stop-color="#FEEDB5"/>
<stop offset="0.39" stop-color="#FDB92C"/>
<stop offset="0.624" stop-color="#FE9F1F"/>
<stop offset="1" stop-color="#DA490F"/>
</linearGradient>
<linearGradient id="paint18_linear_1_23" x1="8.49739" y1="13.414" x2="7.32675" y2="14.5168" gradientUnits="userSpaceOnUse">
<stop stop-color="#FEEDB5"/>
<stop offset="0.39" stop-color="#FDB92C"/>
<stop offset="0.624" stop-color="#FE9F1F"/>
<stop offset="1" stop-color="#DA490F"/>
</linearGradient>
<linearGradient id="paint19_linear_1_23" x1="1.81668" y1="0.317186" x2="1.56857" y2="0.966266" gradientUnits="userSpaceOnUse">
<stop stop-color="#FEEDB5"/>
<stop offset="0.39" stop-color="#FDB92C"/>
<stop offset="0.624" stop-color="#FE9F1F"/>
<stop offset="1" stop-color="#DA490F"/>
</linearGradient>
</defs>
</svg>
