<svg width="25" height="28" viewBox="0 0 25 28" fill="none" xmlns="http://www.w3.org/2000/svg">
<g clip-path="url(#clip0_12_7782)">
<g clip-path="url(#clip1_12_7782)">
<path d="M16.6904 22.3603V21.2965C16.6904 21.2965 13.7193 20.5214 13.7193 15.1865H11.2549C11.2549 20.5214 8.28375 21.2965 8.28375 21.2965V22.3603H16.6904Z" fill="url(#paint0_linear_12_7782)"/>
<path d="M13.7599 16.2281C13.7717 16.3745 13.7859 16.5168 13.8027 16.6549C14.2842 20.669 16.6905 21.2966 16.6905 21.2966V22.3605H16.0685V21.2966C16.0685 21.2966 13.7882 20.7018 13.223 16.9671C12.9911 17.0513 12.7465 17.0943 12.5 17.0943C12.0112 17.0943 11.5557 16.9264 11.1737 16.6371C11.1901 16.499 11.2041 16.3569 11.2157 16.2107L13.7599 16.2281Z" fill="url(#paint1_linear_12_7782)"/>
<path d="M14.9454 13.7754C14.9454 15.3556 13.8506 16.6366 12.5 16.6366C11.1495 16.6366 10.0546 15.3556 10.0546 13.7754H14.9454Z" fill="url(#paint2_linear_12_7782)"/>
<path d="M14.9455 13.7751C14.9457 14.0653 14.908 14.3543 14.8333 14.6345C14.6527 15.3063 14.266 15.8713 13.76 16.2279C13.392 16.4873 12.9609 16.7072 12.5 16.7072C12.0461 16.7072 11.6001 16.5294 11.2569 16.2397C11.5014 16.3453 11.7645 16.3997 12.0304 16.3998C12.9126 16.3998 13.6758 15.804 14.0421 14.9374C12.7569 15.3165 11.379 15.2088 10.1667 14.6345C10.0918 14.3544 10.0541 14.0654 10.0545 13.7752L14.9455 13.7751Z" fill="url(#paint3_linear_12_7782)"/>
<path d="M19.9004 2.56447C19.9004 10.3915 16.5871 14.8682 12.5 14.8682C8.41293 14.8682 5.09967 10.3915 5.09967 2.56447V1.25073H19.9004V2.56447Z" fill="url(#paint4_linear_12_7782)"/>
<path d="M4.24867 11.1145C4.4514 11.2135 4.64716 11.2734 4.87326 11.285C4.97297 11.2902 5.07254 11.2749 5.17078 11.2596C5.23506 11.2499 5.29813 11.2332 5.35892 11.21C5.67936 11.0861 5.97784 10.8664 6.12448 10.5428C6.20889 10.3611 6.25816 10.1648 6.26964 9.96446C6.27833 9.79924 6.26013 9.6337 6.21575 9.47444C6.16752 9.2969 6.08327 9.12128 5.98871 8.96343C5.65462 8.40589 5.15252 7.96623 4.65556 7.56197C4.31246 7.28287 3.96054 7.01503 3.61201 6.74292L3.7118 6.82085C3.13694 6.37189 2.56546 5.91082 2.06755 5.37386C1.93039 5.22595 1.79946 5.07222 1.67676 4.91183L1.75385 5.01268C1.52797 4.71597 1.33199 4.39607 1.18661 4.05114L1.23635 4.1702C1.11921 3.8914 1.03897 3.59821 0.997696 3.2982L1.01531 3.4307C0.979269 3.17286 0.976703 2.91138 1.00768 2.65287L0.99008 2.78535C1.01957 2.56674 1.07722 2.35296 1.16157 2.14946L1.11186 2.26852C1.19559 2.07023 1.30393 1.88349 1.43426 1.71282L1.35717 1.81369C1.48443 1.649 1.63116 1.50068 1.79407 1.37204L1.69428 1.44997C1.86312 1.31822 2.04785 1.20871 2.24402 1.12408L2.12624 1.17431C2.32754 1.08902 2.53902 1.03072 2.75529 1.00089L2.62423 1.01869C2.80917 0.991996 2.99678 0.989983 3.18224 1.0127L3.05118 0.994899C3.19331 1.01553 3.33229 1.05427 3.46479 1.11019L3.34703 1.05994C3.47607 1.11585 3.59781 1.18759 3.70951 1.27356L3.60972 1.19563C3.72406 1.28521 3.82676 1.38902 3.91537 1.5046L3.83828 1.40373C3.92332 1.51664 3.9943 1.63971 4.0496 1.77015L3.99989 1.6511C4.05521 1.78505 4.09353 1.92553 4.11394 2.06921L4.09633 1.93673C4.10651 2.01367 4.11179 2.0912 4.11214 2.16883C4.1139 2.30065 4.16558 2.42678 4.25656 2.52124C4.34202 2.60763 4.48244 2.67277 4.60518 2.6672C4.8712 2.65515 5.09956 2.44812 5.09815 2.16887C5.09543 1.59544 4.86806 1.03404 4.46434 0.629637C4.05697 0.224213 3.50763 -0.00208878 2.93597 1.45314e-05C1.88326 0.00664864 0.877704 0.602931 0.369651 1.53771C0.11559 2.00597 -0.0116378 2.53375 0.000836557 3.06767C0.00918721 3.48156 0.0848083 3.89124 0.224674 4.28032C0.509118 5.05679 1.00394 5.7211 1.58322 6.2993C2.14935 6.86437 2.78714 7.34996 3.4169 7.83886C3.48879 7.89468 3.56063 7.95058 3.63242 8.00656L3.53265 7.92864C3.96553 8.26682 4.4022 8.60936 4.78071 9.01047C4.87263 9.10731 4.95964 9.20879 5.04141 9.31452L4.96432 9.21365C5.08679 9.36985 5.18891 9.54131 5.26817 9.72381L5.21848 9.60476C5.2549 9.69315 5.2801 9.78585 5.29346 9.88064L5.27585 9.74814C5.28814 9.84365 5.28838 9.94035 5.27657 10.0359L5.29418 9.90344C5.28281 9.98553 5.26135 10.0659 5.23031 10.1426L5.28002 10.0235C5.25251 10.0878 5.21724 10.1485 5.17501 10.204L5.2521 10.1032C5.20738 10.1587 5.15644 10.2088 5.1003 10.2524L5.20009 10.1745C5.14146 10.2188 5.07805 10.2562 5.01107 10.2859L5.12884 10.2357C5.05825 10.2656 4.98431 10.2867 4.90865 10.2985L5.03973 10.2807C4.95899 10.2915 4.87719 10.2915 4.79643 10.2809L4.92749 10.2987C4.84576 10.2861 4.76582 10.2636 4.68939 10.2317L4.80718 10.282C4.78666 10.273 4.7665 10.2637 4.74637 10.2538C4.62542 10.1948 4.49985 10.1665 4.36648 10.2036C4.25211 10.2354 4.12817 10.3248 4.07182 10.4326C4.01137 10.5483 3.98107 10.6884 4.02213 10.8166C4.05989 10.9346 4.13415 11.0585 4.24867 11.1145Z" fill="url(#paint5_linear_12_7782)"/>
<path d="M4.0682 0.629637C3.70937 0.272523 3.23877 0.0528035 2.73717 0.0081912C2.8033 0.00325419 2.86959 0.000528574 2.93604 1.43018e-05C3.5077 -0.00207224 4.05703 0.224227 4.46441 0.629637C4.8681 1.03401 5.0955 1.59544 5.09825 2.1689C5.09963 2.44815 4.8713 2.6552 4.60528 2.66723C4.53494 2.66848 4.46531 2.65299 4.40198 2.62203C4.57658 2.54504 4.70326 2.37703 4.70219 2.1689C4.69929 1.59544 4.47188 1.03402 4.0682 0.629637Z" fill="url(#paint6_linear_12_7782)"/>
<path d="M6.26978 9.96425C6.25821 10.1646 6.20889 10.3609 6.12448 10.5425C5.97796 10.8662 5.67943 11.0859 5.35892 11.2098C5.29818 11.233 5.23514 11.2496 5.17089 11.2593C5.0726 11.2747 4.97309 11.29 4.87328 11.2847C4.82067 11.2821 4.76825 11.2766 4.71623 11.2682C4.73576 11.2653 4.7553 11.2624 4.77468 11.2593C4.83898 11.2496 4.90207 11.233 4.96287 11.2098C5.28322 11.0859 5.58175 10.8662 5.72843 10.5425C5.81279 10.3608 5.86205 10.1646 5.87357 9.96425C5.88222 9.79904 5.86402 9.63351 5.81969 9.47425C5.77146 9.29667 5.68722 9.1211 5.59259 8.96327C5.2585 8.4057 4.75637 7.96599 4.25943 7.56178C3.93464 7.29765 3.60208 7.04354 3.27195 6.78636C2.71182 6.3482 2.15673 5.89708 1.67139 5.3736C1.55143 5.24431 1.4362 5.1104 1.32707 4.97154C1.33715 4.98527 1.34737 4.99885 1.35775 5.01243C1.33211 4.97879 1.30632 4.94516 1.28068 4.91168C1.29548 4.93112 1.31044 4.95025 1.32555 4.96954C1.12293 4.70191 0.951191 4.41178 0.813648 4.10479C0.718903 3.86574 0.650919 3.61672 0.610964 3.36239C0.585407 3.14728 0.583257 2.92999 0.604554 2.71441C0.6325 2.54292 0.67797 2.37483 0.740236 2.21284C0.810867 2.05557 0.897299 1.90606 0.99817 1.76665C1.10421 1.6358 1.22287 1.51595 1.35241 1.40887C1.49001 1.3072 1.63756 1.22004 1.79273 1.14876C1.95448 1.0852 2.12236 1.03892 2.29364 1.01067C2.4334 0.994506 2.5744 0.992439 2.71457 1.0045C2.69488 1.0008 2.67504 0.99756 2.65505 0.994629C2.67916 0.997869 2.70328 1.00126 2.72724 1.0045C2.73655 1.00327 2.74601 1.00188 2.75532 1.00065C2.74632 1.00188 2.73731 1.00311 2.72846 1.00466C2.73167 1.00512 2.73487 1.00543 2.73792 1.00589L2.73395 1.00635C2.73182 1.00651 2.72983 1.00666 2.72785 1.00697C2.71503 1.00805 2.70221 1.00929 2.68939 1.01083C2.51822 1.03902 2.35043 1.08525 2.18878 1.14876C2.03339 1.22017 1.88565 1.30749 1.74786 1.40934C1.61864 1.51635 1.50024 1.63604 1.39438 1.76665C1.29391 1.90533 1.20779 2.05407 1.13736 2.21052C1.07425 2.37414 1.02831 2.54401 1.00031 2.71734C0.979467 2.93218 0.98177 3.14867 1.00717 3.363C1.04708 3.61715 1.11507 3.86597 1.20986 4.10479C1.3474 4.41178 1.51914 4.70191 1.72176 4.96954C1.72221 4.97016 1.72267 4.97077 1.72328 4.97154C1.83226 5.1104 1.94749 5.24431 2.0676 5.3736C2.54546 5.88921 3.0914 6.33462 3.64283 6.76661C3.98119 7.03058 4.32261 7.29086 4.65564 7.56178C5.15258 7.96599 5.65471 8.4057 5.9888 8.96327C6.08327 9.1211 6.16752 9.29667 6.21575 9.47425C6.2602 9.63349 6.27845 9.79903 6.26978 9.96425Z" fill="url(#paint7_linear_12_7782)"/>
<path d="M20.7513 11.1145C20.5486 11.2135 20.3528 11.2734 20.1267 11.285C20.027 11.2902 19.9274 11.2749 19.8292 11.2596C19.7649 11.2499 19.7019 11.2332 19.6411 11.21C19.3206 11.0861 19.0221 10.8664 18.8755 10.5428C18.7911 10.3611 18.7418 10.1648 18.7303 9.96446C18.7217 9.79924 18.7399 9.6337 18.7842 9.47444C18.8325 9.2969 18.9167 9.12128 19.0113 8.96343C19.3454 8.40589 19.8475 7.96623 20.3444 7.56197C20.6875 7.28287 21.0394 7.01503 21.388 6.74292L21.2882 6.82085C21.863 6.37189 22.4345 5.91082 22.9324 5.37386C23.0696 5.22595 23.2005 5.07222 23.3232 4.91183L23.2461 5.01268C23.472 4.71597 23.668 4.39607 23.8134 4.05114L23.7636 4.1702C23.8808 3.8914 23.961 3.59821 24.0023 3.2982L23.9847 3.4307C24.0207 3.17286 24.0233 2.91137 23.9923 2.65287L24.0099 2.78535C23.9804 2.56674 23.9228 2.35296 23.8384 2.14946L23.8881 2.26852C23.8044 2.07023 23.6961 1.88349 23.5657 1.71282L23.6428 1.81369C23.5156 1.649 23.3688 1.50068 23.2059 1.37204L23.3057 1.44997C23.1369 1.31822 22.9521 1.20871 22.756 1.12408L22.8737 1.17431C22.6724 1.08902 22.461 1.03072 22.2447 1.00088L22.3758 1.01869C22.1908 0.991995 22.0032 0.989982 21.8177 1.0127L21.9488 0.994898C21.8067 1.01553 21.6677 1.05427 21.5352 1.11019L21.653 1.05994C21.5239 1.11585 21.4022 1.18759 21.2905 1.27356L21.3903 1.19563C21.2759 1.28521 21.1732 1.38902 21.0846 1.5046L21.1617 1.40373C21.0767 1.51664 21.0057 1.63971 20.9504 1.77015L21.0001 1.6511C20.9448 1.78505 20.9065 1.92553 20.886 2.06921L20.9037 1.93673C20.8935 2.01367 20.8882 2.0912 20.8878 2.16883C20.8861 2.30065 20.8344 2.42677 20.7434 2.52124C20.658 2.60763 20.5176 2.67277 20.3948 2.6672C20.1288 2.65515 19.9004 2.44812 19.9018 2.16887C19.9046 1.59552 20.132 1.03405 20.5358 0.629714C20.9431 0.224288 21.4924 -0.00204038 22.064 1.38626e-05C23.1167 0.00664797 24.1223 0.602931 24.6303 1.53771C24.8844 2.00597 25.0116 2.53375 24.9992 3.06767C24.9908 3.48156 24.9152 3.89124 24.7753 4.28032C24.4909 5.05679 23.996 5.7211 23.4168 6.2993C22.8506 6.86437 22.2128 7.34996 21.5831 7.83886C21.5112 7.89468 21.4393 7.95058 21.3676 8.00656L21.4673 7.92863C21.0345 8.26682 20.5978 8.60936 20.2193 9.01047C20.1274 9.10731 20.0403 9.20879 19.9586 9.31452L20.0357 9.21364C19.9132 9.36985 19.8111 9.54131 19.7318 9.72381L19.7815 9.60476C19.7451 9.69315 19.7199 9.78585 19.7065 9.88064L19.7241 9.74814C19.7118 9.84365 19.7116 9.94035 19.7234 10.0359L19.7058 9.90344C19.7172 9.98553 19.7386 10.0659 19.7697 10.1426L19.72 10.0235C19.7475 10.0878 19.7827 10.1485 19.825 10.204L19.7479 10.1032C19.7926 10.1587 19.8435 10.2088 19.8997 10.2524L19.7999 10.1745C19.8585 10.2188 19.9219 10.2562 19.9889 10.2859L19.8711 10.2357C19.9417 10.2656 20.0157 10.2867 20.0913 10.2985L19.9603 10.2807C20.041 10.2915 20.1228 10.2915 20.2036 10.2809L20.0725 10.2987C20.1542 10.2861 20.2342 10.2636 20.3106 10.2317L20.1928 10.282C20.2133 10.273 20.2335 10.2637 20.2536 10.2538C20.3746 10.1948 20.5001 10.1665 20.6335 10.2036C20.7479 10.2354 20.8718 10.3248 20.9282 10.4326C20.9886 10.5483 21.0189 10.6884 20.9779 10.8166C20.9401 10.9346 20.8658 11.0585 20.7513 11.1145Z" fill="url(#paint8_linear_12_7782)"/>
<path d="M19.9004 1.25073V2.56444C19.9004 10.3914 16.5871 14.8681 12.5 14.8681C10.4462 14.8681 8.58784 13.7377 7.24704 11.6197C8.49962 13.2918 10.1331 14.1783 11.9201 14.1783C15.8649 14.1783 19.0628 9.85748 19.0628 2.30278V1.25073H19.9004Z" fill="url(#paint9_linear_12_7782)"/>
<path d="M20.978 10.8165C20.9401 10.9345 20.8658 11.0584 20.7513 11.1144C20.5486 11.2135 20.3528 11.2733 20.1268 11.2849C20.03 11.29 19.9337 11.2758 19.8383 11.2608C19.9855 11.2314 20.1281 11.1822 20.2623 11.1144C20.3768 11.0584 20.4511 10.9345 20.4888 10.8165C20.5299 10.6883 20.4996 10.5482 20.4392 10.4325C20.3965 10.3575 20.3345 10.2956 20.2597 10.2534C20.2589 10.2528 20.2581 10.2524 20.2573 10.252C20.3772 10.194 20.5016 10.1667 20.6335 10.2036C20.748 10.2353 20.8719 10.3247 20.9282 10.4325C20.9886 10.5482 21.019 10.6883 20.978 10.8165Z" fill="url(#paint10_linear_12_7782)"/>
<path d="M24.9991 3.06762C24.9908 3.48155 24.9152 3.89128 24.7754 4.28042C24.4909 5.05677 23.9961 5.72111 23.4167 6.29935C22.8506 6.86433 22.2128 7.34985 21.5831 7.83893C21.5175 7.88999 21.4518 7.94106 21.3862 7.99213C21.3856 7.9926 21.385 7.99311 21.3844 7.99367C21.3787 7.99799 21.3731 8.00231 21.3676 8.00663C20.9677 8.31982 20.5686 8.64027 20.2193 9.01054C20.1419 9.09247 20.0674 9.17732 19.997 9.26557C19.9063 9.38732 19.8277 9.5178 19.7623 9.65513C19.762 9.65528 19.762 9.65544 19.762 9.65559C19.7432 9.70807 19.7283 9.76191 19.7176 9.81666C19.714 9.86683 19.7137 9.9172 19.717 9.9674C19.7246 10.0055 19.7346 10.0431 19.7467 10.08C19.7583 10.1027 19.7709 10.1246 19.7846 10.1461C19.8041 10.1675 19.8247 10.1879 19.8462 10.2073C19.8502 10.2101 19.8542 10.2127 19.8583 10.2152C19.8575 10.2154 19.8567 10.2156 19.8559 10.2159C19.8552 10.2161 19.8545 10.2163 19.8539 10.2166C19.8249 10.2265 19.7965 10.2383 19.7689 10.2517C19.7285 10.2662 19.6872 10.2781 19.6452 10.2872C19.6114 10.2892 19.5775 10.2893 19.5436 10.2874C19.4757 10.2776 19.4115 10.25 19.3574 10.2075C19.3358 10.1881 19.3152 10.1676 19.2956 10.1461C19.282 10.1248 19.2694 10.1029 19.2579 10.0805C19.2456 10.0435 19.2356 10.0057 19.228 9.9674C19.2247 9.91715 19.2249 9.86673 19.2286 9.81651C19.2392 9.76179 19.2541 9.70799 19.273 9.65559C19.273 9.65544 19.273 9.65528 19.2733 9.65513C19.3387 9.5178 19.4173 9.38732 19.508 9.26557C19.5784 9.17732 19.6529 9.09247 19.7303 9.01054C20.0853 8.6344 20.4914 8.30964 20.8975 7.99182C20.963 7.94075 21.0285 7.88979 21.0941 7.83893C21.7238 7.34985 22.3616 6.86433 22.9277 6.29935C23.5071 5.72111 24.0019 5.05677 24.2862 4.28042C24.4261 3.89129 24.5017 3.48156 24.5101 3.06762C24.5226 2.53372 24.3954 2.00596 24.1412 1.53776C23.6734 0.67687 22.7835 0.102943 21.8233 0.0125336C21.9033 0.00373145 21.9836 -0.000440934 22.064 3.68154e-05C23.1167 0.00667092 24.1223 0.602969 24.6304 1.53776C24.8844 2.006 25.0116 2.53374 24.9991 3.06762Z" fill="#73FDFF"/>
<path d="M17.8444 22.3876V27.9998H7.06358V22.3876C7.06381 22.3026 7.09728 22.2212 7.1567 22.1611C7.21611 22.101 7.29663 22.0672 7.38067 22.0669H17.5273C17.6113 22.0672 17.6919 22.101 17.7513 22.1611C17.8107 22.2212 17.8441 22.3026 17.8444 22.3876Z" fill="url(#paint11_linear_12_7782)"/>
<path d="M16.259 23.6703V25.9152C16.2587 26.0002 16.2253 26.0816 16.1659 26.1417C16.1064 26.2018 16.0259 26.2356 15.9419 26.2359H8.96608C8.88204 26.2356 8.80151 26.2018 8.7421 26.1417C8.68269 26.0816 8.64922 26.0002 8.649 25.9152V23.6703C8.64922 23.5854 8.68269 23.5039 8.7421 23.4439C8.80151 23.3838 8.88204 23.3499 8.96608 23.3496H15.9419C16.0259 23.3499 16.1064 23.3838 16.1659 23.4439C16.2253 23.5039 16.2587 23.5854 16.259 23.6703Z" fill="#82C7FE"/>
<path d="M16.259 23.6703V25.9152C16.2587 26.0002 16.2253 26.0816 16.1659 26.1417C16.1064 26.2018 16.0259 26.2356 15.9419 26.2359H9.6478C10.9288 26.2102 15.1492 25.9344 15.1492 23.3496H15.9419C16.0259 23.3499 16.1064 23.3838 16.1659 23.4439C16.2253 23.5039 16.2587 23.5854 16.259 23.6703Z" fill="url(#paint12_linear_12_7782)"/>
<path d="M8.96608 25.1135V23.8015C8.96608 23.7668 8.97975 23.7334 9.00408 23.7088C9.02841 23.6842 9.0614 23.6704 9.09581 23.6704H11.9388C11.9388 23.6704 9.67955 23.9109 8.96608 25.1135Z" fill="#0A9AF9"/>
<path d="M7.4203 23.8308V22.5188C7.4203 22.4841 7.43397 22.4507 7.4583 22.4261C7.48263 22.4015 7.51563 22.3877 7.55003 22.3877H10.3929C10.3929 22.3877 8.13374 22.6282 7.4203 23.8308Z" fill="#0A9AF9"/>
<path d="M9.85965 12.9437C8.89033 12.9437 6.20196 9.71675 5.87617 2.0979H7.38715C7.65402 11.4197 9.85965 12.9437 9.85965 12.9437Z" fill="url(#paint13_linear_12_7782)"/>
<path d="M9.3102 21.3986C9.3102 21.3986 11.3706 19.9785 11.3706 17.9272V21.3986H9.3102Z" fill="url(#paint14_linear_12_7782)"/>
<path d="M2.55841 0.768313C2.55841 0.768313 2.34931 0.707032 1.92169 0.795281C1.40024 0.902893 0.743607 1.47579 0.743607 1.47579C1.0802 0.795281 1.84594 0.374756 2.16911 0.374756C2.27236 0.374764 2.37138 0.416232 2.44439 0.490037C2.51739 0.563842 2.55841 0.66394 2.55841 0.768313Z" fill="url(#paint15_linear_12_7782)"/>
</g>
</g>
<defs>
<linearGradient id="paint0_linear_12_7782" x1="9.28754" y1="15.7682" x2="12.7" y2="22.7468" gradientUnits="userSpaceOnUse">
<stop stop-color="#0E61A3"/>
<stop offset="0.18" stop-color="#527EF5"/>
<stop offset="0.395" stop-color="#125DC9"/>
<stop offset="0.54" stop-color="#06B0FB"/>
<stop offset="0.725" stop-color="#049BF9"/>
<stop offset="1" stop-color="#4CF9FF"/>
</linearGradient>
<linearGradient id="paint1_linear_12_7782" x1="11.8324" y1="16.7093" x2="15.1955" y2="21.974" gradientUnits="userSpaceOnUse">
<stop stop-color="#4CF9FF"/>
<stop offset="0.28" stop-color="#049BF9"/>
<stop offset="0.63" stop-color="#AED6F0"/>
<stop offset="1" stop-color="#EAEBED"/>
</linearGradient>
<linearGradient id="paint2_linear_12_7782" x1="10.6386" y1="14.0074" x2="11.678" y2="17.1079" gradientUnits="userSpaceOnUse">
<stop stop-color="#4CF9FF"/>
<stop offset="0.275" stop-color="#049BF9"/>
<stop offset="1" stop-color="#AED6F0"/>
</linearGradient>
<linearGradient id="paint3_linear_12_7782" x1="11.1929" y1="14.9938" x2="12.2117" y2="17.1408" gradientUnits="userSpaceOnUse">
<stop stop-color="#4CF9FF"/>
<stop offset="0.568702" stop-color="#AC74F1"/>
<stop offset="0.995" stop-color="#68F7FF"/>
</linearGradient>
<linearGradient id="paint4_linear_12_7782" x1="6.94461" y1="-0.414162" x2="15.1616" y2="13.6134" gradientUnits="userSpaceOnUse">
<stop stop-color="#A3FEFF"/>
<stop offset="0.43" stop-color="#11AAFA"/>
<stop offset="1" stop-color="#033DCA"/>
</linearGradient>
<linearGradient id="paint5_linear_12_7782" x1="0.748867" y1="0.915085" x2="7.54779" y2="7.50846" gradientUnits="userSpaceOnUse">
<stop stop-color="#4CF9FF"/>
<stop offset="0.275" stop-color="#049BF9"/>
<stop offset="0.9999" stop-color="#AED6F0"/>
<stop offset="1" stop-color="#ECEBF0"/>
</linearGradient>
<linearGradient id="paint6_linear_12_7782" x1="3.01909" y1="0.216268" x2="4.4858" y2="2.48198" gradientUnits="userSpaceOnUse">
<stop stop-color="#4CF9FF"/>
<stop offset="0.275" stop-color="#049BF9"/>
<stop offset="0.46" stop-color="#AED6F0"/>
<stop offset="0.525" stop-color="#EAEBED"/>
<stop offset="0.705" stop-color="#ECEBF0"/>
<stop offset="1" stop-color="#3A3844"/>
</linearGradient>
<linearGradient id="paint7_linear_12_7782" x1="5.22871" y1="10.5204" x2="-0.650699" y2="6.70331" gradientUnits="userSpaceOnUse">
<stop stop-color="#567AF7"/>
<stop offset="0.282796" stop-color="#88E8FF"/>
<stop offset="0.61" stop-color="#63E5FD"/>
<stop offset="1" stop-color="#5864EE"/>
</linearGradient>
<linearGradient id="paint8_linear_12_7782" x1="19.6078" y1="9.60947" x2="12.8957" y2="3.5345" gradientUnits="userSpaceOnUse">
<stop stop-color="#9AE1FE"/>
<stop offset="0.282796" stop-color="#A979F1"/>
<stop offset="0.63" stop-color="#0493F9"/>
<stop offset="1" stop-color="#B3FDFE"/>
</linearGradient>
<linearGradient id="paint9_linear_12_7782" x1="8.49678" y1="12.4259" x2="19.1657" y2="1.62966" gradientUnits="userSpaceOnUse">
<stop stop-color="#79DAFD"/>
<stop offset="0.282796" stop-color="#C489F5"/>
<stop offset="0.63" stop-color="#0492F9"/>
<stop offset="1" stop-color="#73FDFF"/>
</linearGradient>
<linearGradient id="paint10_linear_12_7782" x1="19.9766" y1="10.2759" x2="20.5327" y2="11.2985" gradientUnits="userSpaceOnUse">
<stop stop-color="#4CF9FF"/>
<stop offset="0.275" stop-color="#049BF9"/>
<stop offset="0.46" stop-color="#AED6F0"/>
<stop offset="0.525" stop-color="#EAEBED"/>
<stop offset="0.705" stop-color="#ECEBF0"/>
<stop offset="1" stop-color="#3A3844"/>
</linearGradient>
<linearGradient id="paint11_linear_12_7782" x1="4.08507" y1="15.9052" x2="10.069" y2="31.3739" gradientUnits="userSpaceOnUse">
<stop stop-color="#4BCEFB"/>
<stop offset="0.5" stop-color="#1D5BBD"/>
<stop offset="1" stop-color="#8AE9FF"/>
</linearGradient>
<linearGradient id="paint12_linear_12_7782" x1="10.4372" y1="23.5836" x2="11.2563" y2="26.8579" gradientUnits="userSpaceOnUse">
<stop stop-color="#4294F8"/>
<stop offset="1" stop-color="#049BF9"/>
</linearGradient>
<linearGradient id="paint13_linear_12_7782" x1="6.35181" y1="2.97729" x2="12.2913" y2="6.78415" gradientUnits="userSpaceOnUse">
<stop stop-color="#4CF9FF"/>
<stop offset="0.275" stop-color="#049BF9"/>
<stop offset="0.695" stop-color="#AED6F0"/>
<stop offset="1" stop-color="#A97AF4"/>
</linearGradient>
<linearGradient id="paint14_linear_12_7782" x1="9.55622" y1="18.2087" x2="11.6471" y2="20.3745" gradientUnits="userSpaceOnUse">
<stop stop-color="#049BF9"/>
<stop offset="0.61" stop-color="#4CF9FF"/>
<stop offset="1" stop-color="#AED6F0"/>
</linearGradient>
<linearGradient id="paint15_linear_12_7782" x1="0.960299" y1="0.464029" x2="1.37195" y2="1.6481" gradientUnits="userSpaceOnUse">
<stop stop-color="#4CF9FF"/>
<stop offset="0.275" stop-color="#049BF9"/>
<stop offset="0.46" stop-color="#AED6F0"/>
<stop offset="0.525" stop-color="#EAEBED"/>
<stop offset="0.705" stop-color="#ECEBF0"/>
<stop offset="1" stop-color="#3A3844"/>
</linearGradient>
<clipPath id="clip0_12_7782">
<rect width="25" height="28" fill="white"/>
</clipPath>
<clipPath id="clip1_12_7782">
<rect width="25" height="28" fill="white"/>
</clipPath>
</defs>
</svg>
