<svg width="20" height="20" viewBox="0 0 20 20" fill="none" xmlns="http://www.w3.org/2000/svg">
<path d="M2.22222 20C1.61111 20 1.08778 19.7826 0.652222 19.3478C0.217407 18.9122 0 18.3889 0 17.7778V2.22222C0 1.61111 0.217407 1.08778 0.652222 0.652222C1.08778 0.217407 1.61111 0 2.22222 0H8.88889C9.2037 0 9.46778 0.106296 9.68111 0.318889C9.8937 0.532222 10 0.796296 10 1.11111C10 1.42593 9.8937 1.68963 9.68111 1.90222C9.46778 2.11556 9.2037 2.22222 8.88889 2.22222H2.22222V17.7778H17.7778V11.1111C17.7778 10.7963 17.8844 10.5322 18.0978 10.3189C18.3104 10.1063 18.5741 10 18.8889 10C19.2037 10 19.4674 10.1063 19.68 10.3189C19.8933 10.5322 20 10.7963 20 11.1111V17.7778C20 18.3889 19.7826 18.9122 19.3478 19.3478C18.9122 19.7826 18.3889 20 17.7778 20H2.22222ZM6.66667 13.3333C6.46296 13.1296 6.36111 12.8704 6.36111 12.5556C6.36111 12.2407 6.46296 11.9815 6.66667 11.7778L16.2222 2.22222H13.3333C13.0185 2.22222 12.7548 2.11556 12.5422 1.90222C12.3289 1.68963 12.2222 1.42593 12.2222 1.11111C12.2222 0.796296 12.3289 0.532222 12.5422 0.318889C12.7548 0.106296 13.0185 0 13.3333 0H18.8889C19.2037 0 19.4674 0.106296 19.68 0.318889C19.8933 0.532222 20 0.796296 20 1.11111V6.66667C20 6.98148 19.8933 7.24519 19.68 7.45778C19.4674 7.67111 19.2037 7.77778 18.8889 7.77778C18.5741 7.77778 18.3104 7.67111 18.0978 7.45778C17.8844 7.24519 17.7778 6.98148 17.7778 6.66667V3.77778L8.19444 13.3611C7.99074 13.5648 7.74074 13.6667 7.44444 13.6667C7.14815 13.6667 6.88889 13.5556 6.66667 13.3333Z" fill="white" fill-opacity="0.7"/>
</svg>
