<svg width="11" height="16" viewBox="0 0 11 16" fill="none" xmlns="http://www.w3.org/2000/svg">
<path d="M0.461831 15.6054C0.153943 15.3423 0 15.0075 0 14.6009C0 14.1943 0.153943 13.8595 0.461831 13.5964L7.01145 8L0.461831 2.40359C0.153943 2.14051 0 1.80568 0 1.3991C0 0.992526 0.153943 0.657698 0.461831 0.394618C0.769719 0.131539 1.16158 0 1.6374 0C2.11323 0 2.50509 0.131539 2.81298 0.394618L10.5382 6.99552C10.7061 7.13901 10.8253 7.29447 10.8959 7.46188C10.9653 7.6293 11 7.80867 11 8C11 8.19133 10.9653 8.3707 10.8959 8.53812C10.8253 8.70553 10.7061 8.86099 10.5382 9.00448L2.81298 15.6054C2.50509 15.8685 2.11323 16 1.6374 16C1.16158 16 0.769719 15.8685 0.461831 15.6054Z" fill="white" fill-opacity="0.4"/>
</svg>
