<svg width="25" height="28" viewBox="0 0 25 28" fill="none" xmlns="http://www.w3.org/2000/svg">
<path d="M16.6904 22.3603V21.2965C16.6904 21.2965 13.7193 20.5214 13.7193 15.1865H11.2549C11.2549 20.5214 8.28377 21.2965 8.28377 21.2965V22.3603H16.6904Z" fill="url(#paint0_linear_12_7730)"/>
<path d="M13.76 16.2279C13.7717 16.3743 13.786 16.5165 13.8027 16.6546C14.2842 20.6687 16.6905 21.2963 16.6905 21.2963V22.3603H16.0685V21.2963C16.0685 21.2963 13.7882 20.7016 13.223 16.9669C12.9911 17.0511 12.7465 17.0941 12.5 17.094C12.0112 17.094 11.5558 16.9262 11.1738 16.6369C11.1901 16.4988 11.2041 16.3567 11.2157 16.2104L13.76 16.2279Z" fill="url(#paint1_linear_12_7730)"/>
<path d="M14.9455 13.7751C14.9455 15.3554 13.8506 16.6364 12.5 16.6364C11.1495 16.6364 10.0546 15.3554 10.0546 13.7751H14.9455Z" fill="url(#paint2_linear_12_7730)"/>
<path d="M14.9455 13.7751C14.9457 14.0653 14.908 14.3543 14.8334 14.6345C14.6527 15.3063 14.266 15.8713 13.76 16.2279C13.392 16.4873 12.9609 16.7072 12.5001 16.7072C12.0462 16.7072 11.6001 16.5294 11.2569 16.2397C11.5014 16.3453 11.7646 16.3997 12.0304 16.3998C12.9126 16.3998 13.6759 15.804 14.0422 14.9374C12.7569 15.3165 11.3791 15.2088 10.1667 14.6345C10.0918 14.3544 10.0541 14.0654 10.0546 13.7752L14.9455 13.7751Z" fill="url(#paint3_linear_12_7730)"/>
<path d="M19.9004 2.56423C19.9004 10.3912 16.5872 14.8679 12.5001 14.8679C8.41296 14.8679 5.0997 10.3912 5.0997 2.56423V1.25049H19.9004V2.56423Z" fill="url(#paint4_linear_12_7730)"/>
<path d="M4.24867 11.1145C4.4514 11.2135 4.64717 11.2734 4.87326 11.285C4.97297 11.2901 5.07254 11.2749 5.17078 11.2596C5.23506 11.2498 5.29813 11.2332 5.35892 11.21C5.67936 11.0861 5.97784 10.8664 6.12448 10.5427C6.20889 10.3611 6.25816 10.1648 6.26964 9.96445C6.27833 9.79924 6.26013 9.6337 6.21575 9.47444C6.16752 9.29689 6.08327 9.12128 5.98871 8.96343C5.65462 8.40589 5.15252 7.96623 4.65556 7.56197C4.31246 7.28287 3.96054 7.01502 3.61201 6.74292L3.7118 6.82085C3.13694 6.37189 2.56546 5.91082 2.06756 5.37385C1.93039 5.22594 1.79946 5.07222 1.67676 4.91183L1.75385 5.01268C1.52797 4.71597 1.33199 4.39607 1.18661 4.05114L1.23635 4.1702C1.11921 3.8914 1.03897 3.59821 0.997696 3.2982L1.01531 3.4307C0.979269 3.17286 0.976703 2.91137 1.00768 2.65287L0.99008 2.78535C1.01957 2.56674 1.07722 2.35296 1.16157 2.14946L1.11186 2.26852C1.19559 2.07023 1.30393 1.88349 1.43426 1.71282L1.35717 1.81369C1.48443 1.649 1.63116 1.50068 1.79407 1.37204L1.69428 1.44997C1.86312 1.31822 2.04785 1.20871 2.24402 1.12408L2.12624 1.17431C2.32754 1.08902 2.53902 1.03072 2.75529 1.00088L2.62423 1.01869C2.80917 0.991995 2.99678 0.989983 3.18224 1.0127L3.05118 0.994899C3.19331 1.01553 3.33229 1.05427 3.46479 1.11019L3.34703 1.05994C3.47607 1.11585 3.59781 1.18759 3.70951 1.27356L3.60972 1.19563C3.72406 1.28521 3.82676 1.38902 3.91537 1.5046L3.83828 1.40373C3.92332 1.51664 3.9943 1.63971 4.0496 1.77015L3.99989 1.6511C4.05521 1.78505 4.09353 1.92553 4.11394 2.06921L4.09633 1.93673C4.10651 2.01367 4.11179 2.0912 4.11214 2.16883C4.1139 2.30065 4.16558 2.42677 4.25656 2.52124C4.34202 2.60763 4.48244 2.67277 4.60518 2.6672C4.8712 2.65515 5.09956 2.44812 5.09815 2.16887C5.09544 1.59544 4.86806 1.03404 4.46434 0.629637C4.05697 0.224213 3.50763 -0.00208878 2.93597 1.45314e-05C1.88326 0.00664864 0.877704 0.602931 0.369651 1.53771C0.11559 2.00597 -0.0116378 2.53375 0.000836557 3.06767C0.00918721 3.48156 0.0848083 3.89124 0.224674 4.28032C0.509118 5.05679 1.00394 5.7211 1.58322 6.2993C2.14935 6.86437 2.78714 7.34995 3.4169 7.83886C3.48879 7.89468 3.56063 7.95058 3.63242 8.00656L3.53265 7.92863C3.96553 8.26682 4.4022 8.60935 4.78071 9.01047C4.87263 9.10731 4.95964 9.20879 5.04141 9.31451L4.96432 9.21364C5.08679 9.36985 5.18891 9.5413 5.26817 9.72381L5.21848 9.60476C5.2549 9.69315 5.2801 9.78584 5.29346 9.88063L5.27585 9.74814C5.28814 9.84365 5.28838 9.94035 5.27657 10.0359L5.29418 9.90344C5.28281 9.98552 5.26135 10.0659 5.23031 10.1426L5.28002 10.0235C5.25251 10.0878 5.21724 10.1485 5.17501 10.204L5.2521 10.1032C5.20738 10.1587 5.15644 10.2088 5.1003 10.2524L5.20009 10.1745C5.14146 10.2188 5.07805 10.2562 5.01107 10.2859L5.12884 10.2357C5.05825 10.2656 4.98431 10.2867 4.90865 10.2985L5.03973 10.2807C4.95899 10.2915 4.87719 10.2915 4.79643 10.2809L4.92749 10.2987C4.84576 10.2861 4.76582 10.2636 4.6894 10.2317L4.80718 10.282C4.78666 10.273 4.7665 10.2637 4.74637 10.2538C4.62542 10.1948 4.49985 10.1665 4.36648 10.2036C4.25211 10.2354 4.12817 10.3248 4.07182 10.4326C4.01137 10.5483 3.98107 10.6884 4.02213 10.8166C4.05989 10.9346 4.13418 11.0586 4.2487 11.1145L4.24867 11.1145Z" fill="url(#paint5_linear_12_7730)"/>
<path d="M4.06821 0.629393C3.70939 0.272279 3.23879 0.0525594 2.73718 0.00794706C2.80332 0.00301005 2.86961 0.000284433 2.93605 -0.000229839C3.50771 -0.00231639 4.05704 0.223983 4.46442 0.629393C4.86811 1.03376 5.09552 1.5952 5.09827 2.16866C5.09964 2.44791 4.87132 2.65496 4.60529 2.66699C4.53496 2.66823 4.46532 2.65275 4.402 2.62178C4.5766 2.5448 4.70328 2.37679 4.70221 2.16866C4.69931 1.5952 4.4719 1.03378 4.06821 0.629393Z" fill="url(#paint6_linear_12_7730)"/>
<path d="M6.26981 9.96425C6.25824 10.1646 6.20892 10.3609 6.12451 10.5425C5.978 10.8662 5.67946 11.0859 5.35895 11.2098C5.29821 11.233 5.23517 11.2496 5.17092 11.2593C5.07263 11.2747 4.97312 11.29 4.87331 11.2847C4.8207 11.2821 4.76828 11.2766 4.71626 11.2682C4.73579 11.2653 4.75533 11.2624 4.77471 11.2593C4.83901 11.2496 4.9021 11.233 4.9629 11.2098C5.28325 11.0859 5.58178 10.8662 5.72846 10.5425C5.81282 10.3608 5.86208 10.1646 5.8736 9.96425C5.88225 9.79904 5.86405 9.63351 5.81972 9.47425C5.7715 9.29667 5.68725 9.1211 5.59262 8.96327C5.25853 8.4057 4.7564 7.96599 4.25946 7.56178C3.93467 7.29765 3.60211 7.04354 3.27198 6.78636C2.71185 6.3482 2.15676 5.89708 1.67142 5.3736C1.55146 5.24431 1.43623 5.1104 1.3271 4.97154C1.33718 4.98527 1.3474 4.99885 1.35778 5.01243C1.33214 4.97879 1.30635 4.94516 1.28071 4.91168C1.29551 4.93112 1.31047 4.95025 1.32558 4.96954C1.12297 4.70191 0.951222 4.41178 0.813678 4.10479C0.718934 3.86574 0.65095 3.61672 0.610994 3.36239C0.585437 3.14728 0.583288 2.92999 0.604584 2.71441C0.63253 2.54292 0.678001 2.37483 0.740266 2.21284C0.810898 2.05557 0.89733 1.90606 0.9982 1.76665C1.10424 1.6358 1.22291 1.51595 1.35244 1.40887C1.49004 1.3072 1.63759 1.22004 1.79276 1.14876C1.95451 1.0852 2.12239 1.03892 2.29367 1.01067C2.43343 0.994506 2.57444 0.992439 2.7146 1.0045C2.69491 1.0008 2.67507 0.99756 2.65508 0.994629C2.67919 0.997869 2.70331 1.00126 2.72727 1.0045C2.73658 1.00327 2.74604 1.00188 2.75535 1.00065C2.74635 1.00188 2.73734 1.00311 2.72849 1.00466C2.7317 1.00512 2.7349 1.00543 2.73795 1.00589L2.73399 1.00635C2.73185 1.00651 2.72986 1.00666 2.72788 1.00697C2.71506 1.00805 2.70224 1.00929 2.68942 1.01083C2.51825 1.03902 2.35047 1.08525 2.18881 1.14876C2.03342 1.22017 1.88568 1.30749 1.74789 1.40934C1.61867 1.51635 1.50027 1.63604 1.39441 1.76665C1.29394 1.90533 1.20782 2.05407 1.13739 2.21052C1.07428 2.37414 1.02834 2.54401 1.00034 2.71734C0.979498 2.93218 0.981801 3.14867 1.00721 3.363C1.04711 3.61715 1.1151 3.86597 1.20989 4.10479C1.34743 4.41178 1.51918 4.70191 1.72179 4.96954C1.72225 4.97016 1.7227 4.97077 1.72331 4.97154C1.83229 5.1104 1.94752 5.24431 2.06763 5.3736C2.5455 5.88921 3.09143 6.33462 3.64286 6.76661C3.98122 7.03058 4.32264 7.29086 4.65567 7.56178C5.15261 7.96599 5.65474 8.4057 5.98883 8.96327C6.08331 9.1211 6.16755 9.29667 6.21578 9.47425C6.26023 9.63349 6.27848 9.79903 6.26981 9.96425Z" fill="url(#paint7_linear_12_7730)"/>
<path d="M20.7513 11.1142C20.5486 11.2132 20.3528 11.2731 20.1267 11.2848C20.027 11.2899 19.9275 11.2747 19.8292 11.2593C19.765 11.2496 19.7019 11.233 19.6411 11.2098C19.3207 11.0859 19.0222 10.8661 18.8755 10.5425C18.7911 10.3609 18.7418 10.1646 18.7304 9.96421C18.7217 9.79899 18.7399 9.63345 18.7843 9.4742C18.8325 9.29665 18.9167 9.12103 19.0113 8.96319C19.3454 8.40564 19.8475 7.96599 20.3444 7.56172C20.6875 7.28263 21.0395 7.01478 21.388 6.74267L21.2882 6.8206C21.8631 6.37164 22.4346 5.91057 22.9325 5.37361C23.0696 5.2257 23.2006 5.07198 23.3232 4.91158L23.2462 5.01244C23.472 4.71572 23.668 4.39582 23.8134 4.05089L23.7637 4.16995C23.8808 3.89116 23.961 3.59796 24.0023 3.29795L23.9847 3.43045C24.0207 3.17262 24.0233 2.91113 23.9923 2.65263L24.0099 2.78511C23.9804 2.56649 23.9228 2.35272 23.8384 2.14922L23.8882 2.26828C23.8044 2.06998 23.6961 1.88325 23.5657 1.71257L23.6428 1.81344C23.5156 1.64876 23.3689 1.50044 23.2059 1.3718L23.3057 1.44972C23.1369 1.31798 22.9522 1.20847 22.756 1.12383L22.8738 1.17407C22.6725 1.08878 22.461 1.03047 22.2447 1.00064L22.3758 1.01844C22.1908 0.991751 22.0032 0.989738 21.8178 1.01246L21.9488 0.994654C21.8067 1.01528 21.6677 1.05402 21.5352 1.10995L21.653 1.0597C21.5239 1.1156 21.4022 1.18735 21.2905 1.27332L21.3903 1.19539C21.2759 1.28496 21.1733 1.38877 21.0846 1.50435L21.1617 1.40348C21.0767 1.5164 21.0057 1.63946 20.9504 1.7699L21.0001 1.65086C20.9448 1.78481 20.9065 1.92529 20.8861 2.06896L20.9037 1.93648C20.8935 2.01343 20.8882 2.09095 20.8879 2.16858C20.8861 2.3004 20.8344 2.42653 20.7435 2.52099C20.658 2.60739 20.5176 2.67253 20.3948 2.66696C20.1288 2.65491 19.9005 2.44788 19.9019 2.16863C19.9047 1.59527 20.132 1.03381 20.5358 0.62947C20.9431 0.224044 21.4924 -0.00228452 22.064 -0.000230278C23.1167 0.00640383 24.1223 0.602687 24.6304 1.53746C24.8844 2.00573 25.0116 2.53351 24.9992 3.06743C24.9908 3.48131 24.9152 3.891 24.7753 4.28008C24.4909 5.05655 23.9961 5.72085 23.4168 6.29905C22.8507 6.86413 22.2129 7.34971 21.5831 7.83861C21.5112 7.89443 21.4394 7.95033 21.3676 8.00632L21.4674 7.92839C21.0345 8.26657 20.5978 8.60911 20.2193 9.01023C20.1274 9.10707 20.0404 9.20854 19.9586 9.31427L20.0357 9.2134C19.9132 9.3696 19.8111 9.54106 19.7318 9.72356L19.7815 9.60452C19.7451 9.69291 19.7199 9.7856 19.7065 9.88039L19.7242 9.74789C19.7119 9.8434 19.7116 9.9401 19.7234 10.0357L19.7058 9.90319C19.7172 9.98528 19.7387 10.0656 19.7697 10.1423L19.72 10.0233C19.7475 10.0876 19.7828 10.1482 19.825 10.2038L19.7479 10.1029C19.7926 10.1584 19.8436 10.2085 19.8997 10.2522L19.7999 10.1742C19.8585 10.2185 19.922 10.2559 19.9889 10.2857L19.8712 10.2355C19.9418 10.2654 20.0157 10.2865 20.0914 10.2982L19.9603 10.2804C20.041 10.2912 20.1228 10.2913 20.2036 10.2807L20.0725 10.2985C20.1543 10.2858 20.2342 10.2633 20.3106 10.2315L20.1928 10.2817C20.2133 10.2727 20.2335 10.2634 20.2536 10.2536C20.3746 10.1945 20.5002 10.1662 20.6335 10.2033C20.7479 10.2352 20.8718 10.3246 20.9282 10.4324C20.9886 10.5481 21.0189 10.6882 20.9779 10.8164C20.9401 10.9343 20.8659 11.0583 20.7513 11.1142Z" fill="url(#paint8_linear_12_7730)"/>
<path d="M19.9004 1.25049V2.5642C19.9004 10.3912 16.5871 14.8678 12.5 14.8678C10.4462 14.8678 8.58785 13.7374 7.24706 11.6194C8.49963 13.2915 10.1332 14.178 11.9201 14.178C15.8649 14.178 19.0629 9.85724 19.0629 2.30253V1.25049H19.9004Z" fill="url(#paint9_linear_12_7730)"/>
<path d="M20.978 10.8163C20.9401 10.9343 20.8658 11.0582 20.7513 11.1142C20.5486 11.2132 20.3528 11.2731 20.1268 11.2847C20.03 11.2898 19.9337 11.2756 19.8383 11.2606C19.9855 11.2312 20.1281 11.1819 20.2623 11.1142C20.3768 11.0582 20.4511 10.9343 20.4888 10.8163C20.5299 10.6881 20.4997 10.548 20.4392 10.4323C20.3965 10.3572 20.3345 10.2953 20.2597 10.2531C20.259 10.2526 20.2581 10.2521 20.2573 10.2518C20.3772 10.1937 20.5016 10.1664 20.6335 10.2033C20.748 10.2351 20.8719 10.3244 20.9282 10.4323C20.9887 10.548 21.019 10.6881 20.978 10.8163Z" fill="url(#paint10_linear_12_7730)"/>
<path d="M24.9991 3.06737C24.9908 3.4813 24.9152 3.89103 24.7754 4.28018C24.4909 5.05652 23.9961 5.72086 23.4167 6.29911C22.8507 6.86409 22.2129 7.34961 21.5831 7.83868C21.5175 7.88975 21.4519 7.94082 21.3862 7.99189C21.3856 7.99235 21.385 7.99287 21.3844 7.99343C21.3788 7.99775 21.3731 8.00207 21.3676 8.00639C20.9677 8.31958 20.5686 8.64002 20.2193 9.0103C20.1419 9.09222 20.0674 9.17708 19.9971 9.26533C19.9064 9.38707 19.8277 9.51756 19.7623 9.65489C19.762 9.65504 19.762 9.6552 19.762 9.65535C19.7432 9.70783 19.7284 9.76167 19.7176 9.81642C19.714 9.86659 19.7138 9.91695 19.717 9.96715C19.7246 10.0053 19.7346 10.0429 19.7468 10.0798C19.7584 10.1025 19.7709 10.1244 19.7846 10.1458C19.8041 10.1673 19.8247 10.1877 19.8463 10.2071C19.8502 10.2098 19.8542 10.2125 19.8583 10.2149C19.8575 10.2151 19.8567 10.2154 19.8559 10.2157C19.8552 10.2158 19.8545 10.216 19.8539 10.2163C19.8249 10.2263 19.7965 10.238 19.7689 10.2515C19.7285 10.266 19.6872 10.2778 19.6453 10.287C19.6114 10.289 19.5775 10.289 19.5436 10.2871C19.4757 10.2773 19.4115 10.2498 19.3574 10.2072C19.3358 10.1878 19.3152 10.1673 19.2956 10.1458C19.282 10.1245 19.2695 10.1027 19.2579 10.0802C19.2456 10.0432 19.2356 10.0054 19.228 9.96715C19.2248 9.9169 19.225 9.86649 19.2286 9.81627C19.2393 9.76155 19.2541 9.70775 19.273 9.65535C19.273 9.6552 19.273 9.65504 19.2733 9.65489C19.3387 9.51756 19.4174 9.38707 19.5081 9.26533C19.5784 9.17708 19.6529 9.09222 19.7303 9.0103C20.0853 8.63416 20.4914 8.3094 20.8975 7.99158C20.963 7.94051 21.0285 7.88954 21.0941 7.83868C21.7238 7.34961 22.3617 6.86409 22.9277 6.29911C23.5071 5.72086 24.0019 5.05652 24.2862 4.28018C24.4261 3.89104 24.5017 3.48131 24.5101 3.06737C24.5226 2.53348 24.3954 2.00572 24.1412 1.53752C23.6735 0.676626 22.7835 0.102698 21.8234 0.0122894C21.9033 0.00348731 21.9836 -0.000685075 22.064 -0.000207325C23.1167 0.00642678 24.1223 0.602725 24.6304 1.53752C24.8844 2.00575 25.0116 2.5335 24.9991 3.06737Z" fill="url(#paint11_linear_12_7730)"/>
<path d="M17.8444 22.3876V27.9998H7.0636V22.3876C7.06382 22.3026 7.0973 22.2212 7.15671 22.1611C7.21613 22.101 7.29665 22.0672 7.38069 22.0669H17.5273C17.6113 22.0672 17.6919 22.101 17.7513 22.1611C17.8107 22.2212 17.8442 22.3026 17.8444 22.3876Z" fill="url(#paint12_linear_12_7730)"/>
<path d="M16.259 23.6703V25.9152C16.2588 26.0002 16.2253 26.0816 16.1659 26.1417C16.1065 26.2018 16.026 26.2356 15.9419 26.2359H8.96611C8.88207 26.2356 8.80155 26.2018 8.74214 26.1417C8.68273 26.0816 8.64925 26.0002 8.64903 25.9152V23.6703C8.64925 23.5854 8.68273 23.5039 8.74214 23.4439C8.80155 23.3838 8.88207 23.3499 8.96611 23.3496H15.9419C16.026 23.3499 16.1065 23.3838 16.1659 23.4439C16.2253 23.5039 16.2588 23.5854 16.259 23.6703Z" fill="url(#paint13_linear_12_7730)"/>
<path d="M16.259 23.6703V25.9152C16.2588 26.0002 16.2253 26.0816 16.1659 26.1417C16.1065 26.2018 16.0259 26.2356 15.9419 26.2359H9.64783C10.9288 26.2102 15.1492 25.9344 15.1492 23.3496H15.9419C16.0259 23.3499 16.1065 23.3838 16.1659 23.4439C16.2253 23.5039 16.2588 23.5854 16.259 23.6703Z" fill="url(#paint14_linear_12_7730)"/>
<path d="M8.96609 25.1135V23.8015C8.96609 23.7668 8.97976 23.7334 9.00409 23.7088C9.02842 23.6842 9.06142 23.6704 9.09582 23.6704H11.9388C11.9388 23.6704 9.67956 23.9109 8.96609 25.1135Z" fill="url(#paint15_linear_12_7730)"/>
<path d="M7.42033 23.8306V22.5186C7.42033 22.4838 7.434 22.4505 7.45833 22.4259C7.48266 22.4013 7.51566 22.3875 7.55006 22.3875H10.393C10.393 22.3875 8.13377 22.6279 7.42033 23.8306Z" fill="url(#paint16_linear_12_7730)"/>
<path d="M9.85966 12.9437C8.89035 12.9437 6.20198 9.71675 5.87619 2.0979H7.38716C7.65404 11.4197 9.85966 12.9437 9.85966 12.9437Z" fill="url(#paint17_linear_12_7730)"/>
<path d="M9.31022 21.3986C9.31022 21.3986 11.3706 19.9785 11.3706 17.9272V21.3986H9.31022Z" fill="url(#paint18_linear_12_7730)"/>
<path d="M2.55842 0.768313C2.55842 0.768313 2.34933 0.707032 1.92171 0.795281C1.40025 0.902892 0.743622 1.47579 0.743622 1.47579C1.08022 0.795281 1.84596 0.374756 2.16912 0.374756C2.27237 0.374764 2.37139 0.416232 2.4444 0.490037C2.51741 0.563842 2.55842 0.66394 2.55842 0.768313Z" fill="url(#paint19_linear_12_7730)"/>
<defs>
<linearGradient id="paint0_linear_12_7730" x1="9.28755" y1="15.7682" x2="12.7001" y2="22.7468" gradientUnits="userSpaceOnUse">
<stop stop-color="#D4DAF0"/>
<stop offset="0.282796" stop-color="#93ABC5"/>
<stop offset="0.63" stop-color="#6772A8"/>
<stop offset="1" stop-color="#71769C"/>
</linearGradient>
<linearGradient id="paint1_linear_12_7730" x1="11.8325" y1="16.7091" x2="15.1955" y2="21.9738" gradientUnits="userSpaceOnUse">
<stop stop-color="#D4DAF0"/>
<stop offset="0.282796" stop-color="#93ABC5"/>
<stop offset="0.63" stop-color="#6772A8"/>
<stop offset="1" stop-color="#71769C"/>
</linearGradient>
<linearGradient id="paint2_linear_12_7730" x1="10.6386" y1="14.0071" x2="11.678" y2="17.1077" gradientUnits="userSpaceOnUse">
<stop stop-color="#D4DAF0"/>
<stop offset="0.282796" stop-color="#93ABC5"/>
<stop offset="0.63" stop-color="#6772A8"/>
<stop offset="1" stop-color="#71769C"/>
</linearGradient>
<linearGradient id="paint3_linear_12_7730" x1="10.6386" y1="14.0129" x2="11.7245" y2="17.1741" gradientUnits="userSpaceOnUse">
<stop stop-color="#D4DAF0"/>
<stop offset="0.282796" stop-color="#93ABC5"/>
<stop offset="0.63" stop-color="#6772A8"/>
<stop offset="1" stop-color="#71769C"/>
</linearGradient>
<linearGradient id="paint4_linear_12_7730" x1="6.86695" y1="2.35461" x2="14.4951" y2="15.5524" gradientUnits="userSpaceOnUse">
<stop stop-color="#D4DAF0"/>
<stop offset="0.63" stop-color="#353958"/>
<stop offset="1" stop-color="#71769C"/>
</linearGradient>
<linearGradient id="paint5_linear_12_7730" x1="0.748867" y1="0.915085" x2="7.54779" y2="7.50846" gradientUnits="userSpaceOnUse">
<stop stop-color="#D4DAF0"/>
<stop offset="0.282796" stop-color="#93ABC5"/>
<stop offset="0.63" stop-color="#6772A8"/>
<stop offset="1" stop-color="#71769C"/>
</linearGradient>
<linearGradient id="paint6_linear_12_7730" x1="3.0191" y1="0.216024" x2="4.48581" y2="2.48173" gradientUnits="userSpaceOnUse">
<stop stop-color="#D4DAF0"/>
<stop offset="0.282796" stop-color="#93ABC5"/>
<stop offset="0.63" stop-color="#6772A8"/>
<stop offset="1" stop-color="#71769C"/>
</linearGradient>
<linearGradient id="paint7_linear_12_7730" x1="5.22874" y1="10.5204" x2="-2.44934" y2="11.3048" gradientUnits="userSpaceOnUse">
<stop stop-color="#D4DAF0"/>
<stop offset="0.282796" stop-color="#93ABC5"/>
<stop offset="0.63" stop-color="#6772A8"/>
<stop offset="1" stop-color="#71769C"/>
</linearGradient>
<linearGradient id="paint8_linear_12_7730" x1="19.6078" y1="9.60922" x2="12.8957" y2="3.53426" gradientUnits="userSpaceOnUse">
<stop stop-color="#D4DAF0"/>
<stop offset="0.282796" stop-color="#93ABC5"/>
<stop offset="0.63" stop-color="#6772A8"/>
<stop offset="1" stop-color="#71769C"/>
</linearGradient>
<linearGradient id="paint9_linear_12_7730" x1="16.9935" y1="-3.5625" x2="16.1668" y2="14.6575" gradientUnits="userSpaceOnUse">
<stop stop-color="#D4DAF0"/>
<stop offset="0.282796" stop-color="#93ABC5"/>
<stop offset="0.63" stop-color="#6772A8"/>
<stop offset="1" stop-color="#71769C"/>
</linearGradient>
<linearGradient id="paint10_linear_12_7730" x1="19.9767" y1="10.2756" x2="20.5327" y2="11.2983" gradientUnits="userSpaceOnUse">
<stop stop-color="#D4DAF0"/>
<stop offset="0.282796" stop-color="#93ABC5"/>
<stop offset="0.63" stop-color="#6772A8"/>
<stop offset="1" stop-color="#71769C"/>
</linearGradient>
<linearGradient id="paint11_linear_12_7730" x1="24.51" y1="2.5678" x2="24.2285" y2="14.2218" gradientUnits="userSpaceOnUse">
<stop stop-color="#D4DAF0"/>
<stop offset="0.282796" stop-color="#93ABC5"/>
<stop offset="0.63" stop-color="#6772A8"/>
<stop offset="1" stop-color="#71769C"/>
</linearGradient>
<linearGradient id="paint12_linear_12_7730" x1="14.706" y1="26.5087" x2="11.0799" y2="20.325" gradientUnits="userSpaceOnUse">
<stop stop-color="#D4DAF0"/>
<stop offset="0.282796" stop-color="#93ABC5"/>
<stop offset="0.63" stop-color="#6772A8"/>
<stop offset="1" stop-color="#71769C"/>
</linearGradient>
<linearGradient id="paint13_linear_12_7730" x1="9.55769" y1="23.5836" x2="10.2797" y2="26.9059" gradientUnits="userSpaceOnUse">
<stop stop-color="#D4DAF0"/>
<stop offset="0.282796" stop-color="#93ABC5"/>
<stop offset="0.63" stop-color="#6772A8"/>
<stop offset="1" stop-color="#71769C"/>
</linearGradient>
<linearGradient id="paint14_linear_12_7730" x1="10.4372" y1="23.5836" x2="11.2564" y2="26.8579" gradientUnits="userSpaceOnUse">
<stop stop-color="#D4DAF0"/>
<stop offset="0.282796" stop-color="#93ABC5"/>
<stop offset="0.63" stop-color="#6772A8"/>
<stop offset="1" stop-color="#71769C"/>
</linearGradient>
<linearGradient id="paint15_linear_12_7730" x1="9.32104" y1="23.7874" x2="9.7702" y2="25.402" gradientUnits="userSpaceOnUse">
<stop stop-color="#D4DAF0"/>
<stop offset="0.282796" stop-color="#93ABC5"/>
<stop offset="0.63" stop-color="#6772A8"/>
<stop offset="1" stop-color="#71769C"/>
</linearGradient>
<linearGradient id="paint16_linear_12_7730" x1="7.77528" y1="22.5045" x2="8.22443" y2="24.119" gradientUnits="userSpaceOnUse">
<stop stop-color="#D4DAF0"/>
<stop offset="0.282796" stop-color="#93ABC5"/>
<stop offset="0.63" stop-color="#6772A8"/>
<stop offset="1" stop-color="#71769C"/>
</linearGradient>
<linearGradient id="paint17_linear_12_7730" x1="6.35183" y1="2.97729" x2="12.2913" y2="6.78415" gradientUnits="userSpaceOnUse">
<stop stop-color="#D4DAF0"/>
<stop offset="0.282796" stop-color="#93ABC5"/>
<stop offset="0.63" stop-color="#6772A8"/>
<stop offset="1" stop-color="#71769C"/>
</linearGradient>
<linearGradient id="paint18_linear_12_7730" x1="9.55624" y1="18.2087" x2="11.6471" y2="20.3745" gradientUnits="userSpaceOnUse">
<stop stop-color="#D4DAF0"/>
<stop offset="0.282796" stop-color="#93ABC5"/>
<stop offset="0.63" stop-color="#6772A8"/>
<stop offset="1" stop-color="#71769C"/>
</linearGradient>
<linearGradient id="paint19_linear_12_7730" x1="0.960315" y1="0.464029" x2="1.37197" y2="1.6481" gradientUnits="userSpaceOnUse">
<stop stop-color="#D4DAF0"/>
<stop offset="0.282796" stop-color="#93ABC5"/>
<stop offset="0.63" stop-color="#6772A8"/>
<stop offset="1" stop-color="#71769C"/>
</linearGradient>
</defs>
</svg>
