<svg width="125" height="138" viewBox="0 0 125 138" fill="none" xmlns="http://www.w3.org/2000/svg">
<g clip-path="url(#clip0_1_1077)">
<g clip-path="url(#clip1_1_1077)">
<path d="M83.4518 109.205V103.962C83.4518 103.962 68.5962 100.142 68.5962 73.8489H56.274C56.274 100.142 41.4185 103.962 41.4185 103.962V109.205H83.4518Z" fill="url(#paint0_linear_1_1077)"/>
<path d="M68.7995 78.9817C68.8583 79.7033 68.9295 80.4044 69.0132 81.0849C71.4208 100.869 83.4521 103.962 83.4521 103.962V109.206H80.3424V103.962C80.3424 103.962 68.9407 101.031 66.1148 82.6239C64.9551 83.0388 63.7322 83.2508 62.5 83.2505C60.0557 83.2505 57.7786 82.4232 55.8685 80.9975C55.9501 80.3169 56.0201 79.6163 56.0783 78.8958L68.7995 78.9817Z" fill="url(#paint1_linear_1_1077)"/>
<path d="M74.7271 66.8936C74.7271 74.6818 69.2528 80.9954 62.4999 80.9954C55.7471 80.9954 50.2728 74.6818 50.2728 66.8936H74.7271Z" fill="url(#paint2_linear_1_1077)"/>
<path d="M74.7274 66.8931C74.7284 68.3233 74.5398 69.7474 74.1665 71.1284C73.2634 74.4396 71.3298 77.2241 68.7996 78.9819C66.9597 80.26 64.8042 81.3437 62.5 81.3437C60.2305 81.3437 58.0003 80.4678 56.2844 79.0397C57.5069 79.56 58.8225 79.8285 60.1519 79.829C64.5627 79.829 68.379 76.8924 70.2105 72.6213C63.7844 74.4897 56.895 73.959 50.8334 71.1287C50.4589 69.7479 50.2703 68.3236 50.2725 66.8933L74.7274 66.8931Z" fill="url(#paint3_linear_1_1077)"/>
<path d="M99.5017 11.6394C99.5017 50.2154 82.9355 72.2791 62.5 72.2791C42.0644 72.2791 25.4982 50.2154 25.4982 11.6394V5.16455H99.5017V11.6394Z" fill="url(#paint4_linear_1_1077)"/>
<path d="M21.2433 53.7786C22.2569 54.2666 23.2358 54.5618 24.3662 54.6193C24.8648 54.6446 25.3626 54.5694 25.8539 54.4939C26.1752 54.4459 26.4906 54.3641 26.7946 54.2497C28.3967 53.639 29.8892 52.5559 30.6224 50.9609C31.0444 50.0657 31.2907 49.0982 31.3482 48.1108C31.3916 47.2965 31.3006 46.4806 31.0787 45.6957C30.8376 44.8207 30.4163 43.9551 29.9435 43.1772C28.273 40.4293 25.7625 38.2624 23.2777 36.27C21.5622 34.8944 19.8027 33.5743 18.06 32.2332L18.5589 32.6173C15.6846 30.4045 12.8272 28.1321 10.3377 25.4857C9.6519 24.7567 8.99722 23.999 8.38375 23.2085L8.76921 23.7056C7.63979 22.2432 6.65987 20.6666 5.933 18.9666L6.1817 19.5534C5.59601 18.1793 5.19479 16.7343 4.98842 15.2557L5.07648 15.9087C4.89628 14.6379 4.88346 13.3492 5.03833 12.0751L4.95034 12.728C5.09777 11.6506 5.38603 10.597 5.80778 9.59403L5.55923 10.1808C5.97791 9.2035 6.51959 8.28317 7.17124 7.44199L6.78579 7.93913C7.42209 7.12747 8.15572 6.39647 8.97029 5.76244L8.47136 6.14651C9.31555 5.49719 10.2392 4.95748 11.22 4.54035L10.6311 4.78793C11.6377 4.36756 12.6951 4.0802 13.7764 3.93318L13.1211 4.02093C14.0458 3.88937 14.9838 3.87945 15.9111 3.99142L15.2558 3.90367C15.9665 4.00535 16.6614 4.19628 17.3239 4.47191L16.7351 4.22425C17.3803 4.49977 17.989 4.85338 18.5475 5.27709L18.0486 4.89301C18.6203 5.33447 19.1337 5.84611 19.5768 6.41577L19.1913 5.91862C19.6166 6.47512 19.9714 7.08165 20.2479 7.72455L19.9994 7.13783C20.276 7.79799 20.4676 8.49037 20.5697 9.19848L20.4816 8.54554C20.5325 8.92476 20.5589 9.30686 20.5607 9.68946C20.5694 10.3392 20.8278 10.9608 21.2827 11.4263C21.7101 11.8522 22.4121 12.1732 23.0258 12.1457C24.3559 12.0864 25.4977 11.066 25.4907 9.68969C25.4771 6.86348 24.3402 4.09658 22.3216 2.10346C20.2848 0.105296 17.5381 -1.01005 14.6798 -0.999684C9.41625 -0.966988 4.38846 1.97183 1.84819 6.57895C0.577887 8.88682 -0.0582503 11.488 0.00412175 14.1195C0.045875 16.1594 0.42398 18.1785 1.12331 20.0961C2.54553 23.923 5.01963 27.1971 7.91604 30.0468C10.7467 32.8318 13.9357 35.225 17.0844 37.6346C17.4439 37.9097 17.8031 38.1852 18.162 38.4612L17.6632 38.0771C19.8276 39.7439 22.011 41.4321 23.9035 43.409C24.3631 43.8863 24.7981 44.3864 25.207 44.9075L24.8215 44.4104C25.4339 45.1802 25.9445 46.0252 26.3408 46.9247L26.0923 46.338C26.2744 46.7736 26.4004 47.2305 26.4673 47.6977L26.3792 47.0446C26.4406 47.5154 26.4418 47.992 26.3828 48.463L26.4708 47.81C26.414 48.2146 26.3067 48.6105 26.1515 48.9886L26.4 48.4019C26.2625 48.7188 26.0861 49.0176 25.875 49.2915L26.2605 48.7944C26.0368 49.068 25.7821 49.3148 25.5015 49.53L26.0004 49.1459C25.7073 49.3641 25.3902 49.5484 25.0553 49.6953L25.6442 49.4477C25.2912 49.5951 24.9215 49.699 24.5432 49.7569L25.1986 49.6692C24.7949 49.7224 24.3859 49.7229 23.9821 49.6705L24.6374 49.7582C24.2287 49.696 23.8291 49.5851 23.4469 49.428L24.0358 49.6757C23.9333 49.6314 23.8324 49.5854 23.7318 49.537C23.127 49.2458 22.4992 49.1064 21.8323 49.2893C21.2605 49.4462 20.6408 49.8867 20.359 50.4182C20.0568 50.9885 19.9053 51.6788 20.1106 52.3109C20.2994 52.8922 20.6707 53.503 21.2433 53.7786Z" fill="url(#paint5_linear_1_1077)"/>
<path d="M20.3408 2.10346C18.5467 0.343395 16.1937 -0.73951 13.6857 -0.959385C14.0164 -0.983717 14.3478 -0.997151 14.68 -0.999685C17.5383 -1.00997 20.285 0.105365 22.3219 2.10346C24.3403 4.09643 25.4774 6.86348 25.4911 9.68984C25.498 11.0661 24.3563 12.0866 23.0262 12.1459C22.6746 12.152 22.3264 12.0757 22.0097 11.9231C22.8828 11.5437 23.5161 10.7156 23.5108 9.68984C23.4963 6.86348 22.3593 4.09651 20.3408 2.10346Z" fill="url(#paint6_linear_1_1077)"/>
<path d="M31.3488 48.1107C31.2909 49.0981 31.0443 50.0654 30.6223 50.9607C29.8897 52.556 28.397 53.6387 26.7945 54.2493C26.4907 54.3639 26.1756 54.4458 25.8543 54.4934C25.3629 54.5695 24.8653 54.6447 24.3662 54.6189C24.1032 54.6057 23.8411 54.5785 23.581 54.5375C23.6787 54.5231 23.7764 54.5086 23.8733 54.4934C24.1948 54.4458 24.5102 54.3639 24.8142 54.2493C26.416 53.6387 27.9086 52.556 28.642 50.9607C29.0638 50.0654 29.3101 49.0981 29.3677 48.1107C29.4109 47.2965 29.3199 46.4807 29.0983 45.6957C28.8572 44.8205 28.4359 43.9552 27.9628 43.1773C26.2924 40.4293 23.7817 38.2622 21.297 36.27C19.6731 34.9682 18.0102 33.7158 16.3596 32.4483C13.559 30.2888 10.7835 28.0654 8.35682 25.4854C7.75701 24.8482 7.18086 24.1882 6.63523 23.5038C6.68559 23.5715 6.73672 23.6384 6.78861 23.7053C6.66041 23.5396 6.53144 23.3738 6.40324 23.2088C6.47726 23.3046 6.55205 23.3989 6.6276 23.4939C5.61454 22.1749 4.75582 20.745 4.0681 19.232C3.59438 18.0538 3.25446 16.8265 3.05468 15.573C2.9269 14.5128 2.91615 13.4419 3.02263 12.3794C3.16236 11.5342 3.38971 10.7058 3.70104 9.90734C4.0542 9.13224 4.48636 8.39536 4.99071 7.7083C5.52091 7.0634 6.11424 6.47271 6.7619 5.94496C7.44993 5.44387 8.18764 5.01429 8.9635 4.66295C9.77225 4.3497 10.6117 4.12161 11.468 3.9824C12.1669 3.90272 12.8719 3.89253 13.5727 3.95199C13.4743 3.93374 13.3751 3.91777 13.2751 3.90332C13.3957 3.91929 13.5162 3.93602 13.6361 3.95199C13.6826 3.9459 13.7299 3.93906 13.7765 3.93298C13.7314 3.93906 13.6864 3.94514 13.6422 3.95275C13.6582 3.95503 13.6742 3.95655 13.6895 3.95883L13.6696 3.96111C13.659 3.96187 13.649 3.96263 13.6391 3.96415C13.575 3.96947 13.5109 3.97556 13.4468 3.98316C12.5909 4.12211 11.752 4.34995 10.9438 4.66295C10.1668 5.01494 9.4281 5.44528 8.73914 5.94724C8.09308 6.47465 7.50106 7.06455 6.97176 7.7083C6.46941 8.39178 6.03879 9.12483 5.68667 9.89594C5.37111 10.7024 5.14142 11.5396 5.00139 12.3938C4.8972 13.4527 4.90871 14.5197 5.03573 15.576C5.23526 16.8286 5.57519 18.0549 6.04915 19.232C6.73687 20.745 7.59559 22.1749 8.60865 23.4939C8.61094 23.497 8.61322 23.5 8.61628 23.5038C9.16114 24.1882 9.7373 24.8482 10.3379 25.4854C12.7272 28.0266 15.4569 30.2219 18.214 32.3509C19.9058 33.652 21.6129 34.9347 23.278 36.27C25.7628 38.2622 28.2734 40.4293 29.9439 43.1773C30.4162 43.9552 30.8375 44.8205 31.0786 45.6957C31.3008 46.4805 31.3921 47.2964 31.3488 48.1107Z" fill="url(#paint7_linear_1_1077)"/>
<path d="M103.756 53.7786C102.743 54.2666 101.764 54.5618 100.633 54.6193C100.135 54.6446 99.637 54.5694 99.1458 54.4939C98.8245 54.4459 98.5091 54.3641 98.2051 54.2497C96.603 53.639 95.1105 52.5559 94.3773 50.9609C93.9553 50.0657 93.7089 49.0982 93.6515 48.1108C93.6081 47.2965 93.6991 46.4806 93.921 45.6957C94.1621 44.8207 94.5834 43.9551 95.0562 43.1772C96.7267 40.4293 99.2372 38.2624 101.722 36.27C103.437 34.8944 105.197 33.5743 106.94 32.2332L106.441 32.6173C109.315 30.4046 112.172 28.1321 114.662 25.4857C115.348 24.7567 116.002 23.999 116.616 23.2085L116.23 23.7056C117.36 22.2432 118.34 20.6666 119.067 18.9666L118.818 19.5534C119.404 18.1793 119.805 16.7343 120.011 15.2556L119.923 15.9087C120.103 14.6379 120.116 13.3492 119.961 12.0751L120.049 12.728C119.902 11.6506 119.614 10.597 119.192 9.59403L119.44 10.1808C119.022 9.2035 118.48 8.28317 117.828 7.44198L118.214 7.93912C117.578 7.12747 116.844 6.39647 116.029 5.76244L116.528 6.14651C115.684 5.49719 114.761 4.95747 113.78 4.54034L114.369 4.78793C113.362 4.36755 112.305 4.0802 111.223 3.93318L111.879 4.02092C110.954 3.88936 110.016 3.87944 109.089 3.99142L109.744 3.90367C109.033 4.00535 108.338 4.19628 107.676 4.47191L108.265 4.22425C107.619 4.49977 107.011 4.85338 106.452 5.27708L106.951 4.89301C106.379 5.33447 105.866 5.8461 105.423 6.41576L105.808 5.91862C105.383 6.47512 105.028 7.08165 104.752 7.72454L105 7.13783C104.724 7.79799 104.532 8.49037 104.43 9.19848L104.518 8.54553C104.467 8.92476 104.441 9.30686 104.439 9.68946C104.43 10.3392 104.172 10.9608 103.717 11.4263C103.29 11.8522 102.588 12.1732 101.974 12.1457C100.644 12.0864 99.502 11.066 99.509 9.68969C99.523 6.86386 100.66 4.09666 102.679 2.10383C104.715 0.105663 107.462 -1.00981 110.32 -0.999688C115.583 -0.966991 120.611 1.97183 123.152 6.57894C124.422 8.88682 125.058 11.488 124.996 14.1195C124.954 16.1594 124.576 18.1785 123.876 20.0961C122.454 23.923 119.98 27.1971 117.084 30.0468C114.253 32.8318 111.064 35.225 107.915 37.6346C107.556 37.9097 107.197 38.1852 106.838 38.4612L107.337 38.0771C105.172 39.7439 102.989 41.4321 101.096 43.409C100.637 43.8863 100.202 44.3864 99.7927 44.9075L100.178 44.4104C99.5658 45.1802 99.0552 46.0252 98.6589 46.9247L98.9074 46.338C98.7252 46.7736 98.5993 47.2305 98.5324 47.6977L98.6205 47.0446C98.5591 47.5154 98.5579 47.992 98.6169 48.463L98.5289 47.81C98.5857 48.2146 98.693 48.6105 98.8482 48.9886L98.5997 48.4019C98.7372 48.7188 98.9136 49.0176 99.1247 49.2915L98.7392 48.7944C98.9629 49.068 99.2176 49.3148 99.4982 49.53L98.9993 49.1459C99.2924 49.3641 99.6095 49.5484 99.9444 49.6953L99.3555 49.4477C99.7085 49.5951 100.078 49.699 100.456 49.7569L99.8011 49.6692C100.205 49.7224 100.614 49.7229 101.018 49.6705L100.362 49.7582C100.771 49.696 101.171 49.5851 101.553 49.428L100.964 49.6757C101.066 49.6314 101.167 49.5854 101.268 49.537C101.873 49.2458 102.5 49.1064 103.167 49.2893C103.739 49.4462 104.359 49.8867 104.641 50.4182C104.943 50.9885 105.094 51.6788 104.889 52.3109C104.7 52.8922 104.329 53.503 103.756 53.7786Z" fill="url(#paint8_linear_1_1077)"/>
<path d="M99.502 5.16479V11.6395C99.502 50.2155 82.9354 72.2789 62.4999 72.2789C52.2307 72.2789 42.939 66.7075 36.235 56.2689C42.4979 64.51 50.6655 68.8792 59.6001 68.8792C79.3244 68.8792 95.314 47.5838 95.314 10.3499V5.16479H99.502Z" fill="url(#paint9_linear_1_1077)"/>
<path d="M104.89 52.3103C104.7 52.892 104.329 53.5026 103.756 53.7786C102.743 54.2668 101.764 54.5618 100.634 54.6188C100.15 54.6439 99.6684 54.574 99.1914 54.5002C99.9273 54.3552 100.64 54.1125 101.311 53.7786C101.884 53.5026 102.255 52.892 102.444 52.3103C102.649 51.6784 102.498 50.988 102.196 50.4177C101.982 50.048 101.672 49.7429 101.298 49.5349C101.295 49.5322 101.29 49.5299 101.286 49.528C101.886 49.2421 102.508 49.1075 103.167 49.2893C103.74 49.4459 104.359 49.8862 104.641 50.4177C104.943 50.988 105.095 51.6784 104.89 52.3103Z" fill="url(#paint10_linear_1_1077)"/>
<path d="M124.995 14.1192C124.954 16.1593 124.576 18.1787 123.877 20.0966C122.454 23.9229 119.98 27.1971 117.083 30.0471C114.253 32.8316 111.064 35.2245 107.915 37.635C107.587 37.8866 107.259 38.1383 106.931 38.39C106.928 38.3923 106.925 38.3949 106.922 38.3976C106.893 38.4189 106.865 38.4402 106.838 38.4615C104.838 40.0051 102.843 41.5844 101.096 43.4093C100.709 43.8131 100.337 44.2313 99.985 44.6663C99.5314 45.2663 99.1383 45.9094 98.8113 46.5862C98.8098 46.587 98.8098 46.5878 98.8098 46.5885C98.7157 46.8472 98.6415 47.1125 98.5877 47.3824C98.5695 47.6296 98.5685 47.8779 98.5847 48.1253C98.6229 48.3131 98.6726 48.4985 98.7335 48.6803C98.7915 48.7921 98.854 48.9001 98.9227 49.0058C99.0204 49.1115 99.1232 49.2121 99.231 49.3077C99.2509 49.3214 99.2707 49.3343 99.2913 49.3465C99.2871 49.3474 99.283 49.3486 99.2791 49.3503C99.2757 49.3509 99.2724 49.3519 99.2692 49.3533C99.1241 49.4025 98.9822 49.4604 98.8441 49.5267C98.6421 49.5981 98.4356 49.6565 98.226 49.7015C98.0567 49.7113 97.8871 49.7116 97.7178 49.7023C97.3783 49.654 97.0574 49.5183 96.7868 49.3084C96.6787 49.2128 96.5755 49.1118 96.4777 49.0058C96.4098 48.9009 96.3469 48.7931 96.2892 48.6826C96.2276 48.5002 96.1776 48.314 96.1396 48.1253C96.1235 47.8776 96.1245 47.6291 96.1427 47.3816C96.196 47.1119 96.2702 46.8468 96.3648 46.5885C96.3648 46.5878 96.3648 46.587 96.3663 46.5862C96.6933 45.9094 97.0864 45.2663 97.54 44.6663C97.8918 44.2313 98.2641 43.8131 98.651 43.4093C100.426 41.5555 102.457 39.9549 104.487 38.3885C104.815 38.1368 105.142 37.8856 105.47 37.635C108.619 35.2245 111.808 32.8316 114.638 30.0471C117.535 27.1971 120.009 23.9229 121.431 20.0966C122.13 18.1787 122.508 16.1593 122.55 14.1192C122.613 11.4879 121.977 8.88676 120.706 6.57921C118.367 2.33625 113.917 -0.492396 109.116 -0.937983C109.516 -0.981365 109.918 -1.00193 110.32 -0.999574C115.583 -0.966878 120.611 1.97202 123.152 6.57921C124.422 8.88695 125.058 11.488 124.995 14.1192Z" fill="#73FDFF"/>
<path d="M89.2217 109.34V137H35.3177V109.34C35.3189 108.921 35.4863 108.52 35.7833 108.224C36.0804 107.928 36.483 107.761 36.9032 107.759H87.6363C88.0565 107.761 88.4591 107.928 88.7561 108.224C89.0532 108.52 89.2206 108.921 89.2217 109.34Z" fill="url(#paint11_linear_1_1077)"/>
<path d="M81.2946 115.662V126.726C81.2935 127.145 81.1261 127.546 80.8291 127.842C80.532 128.139 80.1294 128.306 79.7092 128.307H44.8302C44.41 128.306 44.0074 128.139 43.7103 127.842C43.4133 127.546 43.2459 127.145 43.2448 126.726V115.662C43.2459 115.243 43.4133 114.842 43.7103 114.546C44.0074 114.25 44.41 114.083 44.8302 114.082H79.7092C80.1294 114.083 80.532 114.25 80.8291 114.546C81.1261 114.842 81.2935 115.243 81.2946 115.662Z" fill="#82C7FE"/>
<path d="M81.2946 115.662V126.726C81.2935 127.145 81.1262 127.546 80.8291 127.842C80.5321 128.139 80.1294 128.306 79.7092 128.307H48.2388C54.6439 128.18 75.7457 126.821 75.7457 114.082H79.7092C80.1294 114.083 80.5321 114.25 80.8291 114.546C81.1262 114.842 81.2935 115.243 81.2946 115.662Z" fill="url(#paint12_linear_1_1077)"/>
<path d="M44.8302 122.775V116.309C44.8302 116.137 44.8985 115.973 45.0202 115.852C45.1418 115.73 45.3068 115.662 45.4788 115.662H59.6936C59.6936 115.662 48.3975 116.848 44.8302 122.775Z" fill="#0A9AF9"/>
<path d="M37.1013 116.452V109.986C37.1013 109.815 37.1697 109.65 37.2913 109.529C37.413 109.408 37.5779 109.34 37.75 109.34H51.9645C51.9645 109.34 40.6685 110.525 37.1013 116.452Z" fill="#0A9AF9"/>
<path d="M49.298 62.7953C44.4515 62.7953 31.0096 46.8909 29.3807 9.34082H36.9355C38.2699 55.2839 49.298 62.7953 49.298 62.7953Z" fill="url(#paint13_linear_1_1077)"/>
<path d="M46.5508 104.465C46.5508 104.465 56.8529 97.4664 56.8529 87.3567V104.465H46.5508Z" fill="url(#paint14_linear_1_1077)"/>
<path d="M12.7918 2.78782C12.7918 2.78782 11.7464 2.48579 9.60826 2.92073C7.00099 3.4511 3.71783 6.27465 3.71783 6.27465C5.40081 2.92073 9.22952 0.848145 10.8453 0.848145C11.3616 0.848185 11.8567 1.05256 12.2217 1.41632C12.5868 1.78007 12.7918 2.27341 12.7918 2.78782Z" fill="url(#paint15_linear_1_1077)"/>
<g clip-path="url(#clip2_1_1077)">
<path d="M83.4518 109.205V103.962C83.4518 103.962 68.5962 100.142 68.5962 73.8489H56.274C56.274 100.142 41.4185 103.962 41.4185 103.962V109.205H83.4518Z" fill="url(#paint16_linear_1_1077)"/>
<path d="M68.7995 78.9817C68.8583 79.7033 68.9295 80.4044 69.0132 81.0849C71.4208 100.869 83.4521 103.962 83.4521 103.962V109.206H80.3424V103.962C80.3424 103.962 68.9407 101.031 66.1148 82.6239C64.9551 83.0388 63.7322 83.2508 62.5 83.2505C60.0557 83.2505 57.7786 82.4232 55.8685 80.9975C55.9501 80.3169 56.0201 79.6163 56.0783 78.8958L68.7995 78.9817Z" fill="url(#paint17_linear_1_1077)"/>
<path d="M74.7271 66.8936C74.7271 74.6818 69.2528 80.9954 62.4999 80.9954C55.7471 80.9954 50.2728 74.6818 50.2728 66.8936H74.7271Z" fill="url(#paint18_linear_1_1077)"/>
<path d="M74.7274 66.8931C74.7284 68.3233 74.5398 69.7474 74.1665 71.1284C73.2634 74.4396 71.3298 77.2241 68.7996 78.9819C66.9597 80.26 64.8042 81.3437 62.5 81.3437C60.2305 81.3437 58.0003 80.4678 56.2844 79.0397C57.5069 79.56 58.8225 79.8285 60.1519 79.829C64.5627 79.829 68.379 76.8924 70.2105 72.6213C63.7844 74.4897 56.895 73.959 50.8334 71.1287C50.4589 69.7479 50.2703 68.3236 50.2725 66.8933L74.7274 66.8931Z" fill="url(#paint19_linear_1_1077)"/>
<path d="M99.5017 11.6394C99.5017 50.2154 82.9355 72.2791 62.5 72.2791C42.0644 72.2791 25.4982 50.2154 25.4982 11.6394V5.16455H99.5017V11.6394Z" fill="url(#paint20_linear_1_1077)"/>
<path d="M21.2433 53.7786C22.2569 54.2666 23.2358 54.5618 24.3662 54.6193C24.8648 54.6446 25.3626 54.5694 25.8539 54.4939C26.1752 54.4459 26.4906 54.3641 26.7946 54.2497C28.3967 53.639 29.8892 52.5559 30.6224 50.9609C31.0444 50.0657 31.2907 49.0982 31.3482 48.1108C31.3916 47.2965 31.3006 46.4806 31.0787 45.6957C30.8376 44.8207 30.4163 43.9551 29.9435 43.1772C28.273 40.4293 25.7625 38.2624 23.2777 36.27C21.5622 34.8944 19.8027 33.5743 18.06 32.2332L18.5589 32.6173C15.6846 30.4045 12.8272 28.1321 10.3377 25.4857C9.6519 24.7567 8.99722 23.999 8.38375 23.2085L8.76921 23.7056C7.63979 22.2432 6.65987 20.6666 5.933 18.9666L6.1817 19.5534C5.59601 18.1793 5.19479 16.7343 4.98842 15.2557L5.07648 15.9087C4.89628 14.6379 4.88346 13.3492 5.03833 12.0751L4.95034 12.728C5.09777 11.6506 5.38603 10.597 5.80778 9.59403L5.55923 10.1808C5.97791 9.2035 6.51959 8.28317 7.17124 7.44199L6.78579 7.93913C7.42209 7.12747 8.15572 6.39647 8.97029 5.76244L8.47136 6.14651C9.31555 5.49719 10.2392 4.95748 11.22 4.54035L10.6311 4.78793C11.6377 4.36756 12.6951 4.0802 13.7764 3.93318L13.1211 4.02093C14.0458 3.88937 14.9838 3.87945 15.9111 3.99142L15.2558 3.90367C15.9665 4.00535 16.6614 4.19628 17.3239 4.47191L16.7351 4.22425C17.3803 4.49977 17.989 4.85338 18.5475 5.27709L18.0486 4.89301C18.6203 5.33447 19.1337 5.84611 19.5768 6.41577L19.1913 5.91862C19.6166 6.47512 19.9714 7.08165 20.2479 7.72455L19.9994 7.13783C20.276 7.79799 20.4676 8.49037 20.5697 9.19848L20.4816 8.54554C20.5325 8.92476 20.5589 9.30686 20.5607 9.68946C20.5694 10.3392 20.8278 10.9608 21.2827 11.4263C21.7101 11.8522 22.4121 12.1732 23.0258 12.1457C24.3559 12.0864 25.4977 11.066 25.4907 9.68969C25.4771 6.86348 24.3402 4.09658 22.3216 2.10346C20.2848 0.105296 17.5381 -1.01005 14.6798 -0.999684C9.41625 -0.966988 4.38846 1.97183 1.84819 6.57895C0.577887 8.88682 -0.0582503 11.488 0.00412175 14.1195C0.045875 16.1594 0.42398 18.1785 1.12331 20.0961C2.54553 23.923 5.01963 27.1971 7.91604 30.0468C10.7467 32.8318 13.9357 35.225 17.0844 37.6346C17.4439 37.9097 17.8031 38.1852 18.162 38.4612L17.6632 38.0771C19.8276 39.7439 22.011 41.4321 23.9035 43.409C24.3631 43.8863 24.7981 44.3864 25.207 44.9075L24.8215 44.4104C25.4339 45.1802 25.9445 46.0252 26.3408 46.9247L26.0923 46.338C26.2744 46.7736 26.4004 47.2305 26.4673 47.6977L26.3792 47.0446C26.4406 47.5154 26.4418 47.992 26.3828 48.463L26.4708 47.81C26.414 48.2146 26.3067 48.6105 26.1515 48.9886L26.4 48.4019C26.2625 48.7188 26.0861 49.0176 25.875 49.2915L26.2605 48.7944C26.0368 49.068 25.7821 49.3148 25.5015 49.53L26.0004 49.1459C25.7073 49.3641 25.3902 49.5484 25.0553 49.6953L25.6442 49.4477C25.2912 49.5951 24.9215 49.699 24.5432 49.7569L25.1986 49.6692C24.7949 49.7224 24.3859 49.7229 23.9821 49.6705L24.6374 49.7582C24.2287 49.696 23.8291 49.5851 23.4469 49.428L24.0358 49.6757C23.9333 49.6314 23.8324 49.5854 23.7318 49.537C23.127 49.2458 22.4992 49.1064 21.8323 49.2893C21.2605 49.4462 20.6408 49.8867 20.359 50.4182C20.0568 50.9885 19.9053 51.6788 20.1106 52.3109C20.2994 52.8922 20.6707 53.503 21.2433 53.7786Z" fill="url(#paint21_linear_1_1077)"/>
<path d="M20.3408 2.10346C18.5467 0.343395 16.1937 -0.73951 13.6857 -0.959385C14.0164 -0.983717 14.3478 -0.997151 14.68 -0.999685C17.5383 -1.00997 20.285 0.105365 22.3219 2.10346C24.3403 4.09643 25.4774 6.86348 25.4911 9.68984C25.498 11.0661 24.3563 12.0866 23.0262 12.1459C22.6746 12.152 22.3264 12.0757 22.0097 11.9231C22.8828 11.5437 23.5161 10.7156 23.5108 9.68984C23.4963 6.86348 22.3593 4.09651 20.3408 2.10346Z" fill="url(#paint22_linear_1_1077)"/>
<path d="M31.3488 48.1107C31.2909 49.0981 31.0443 50.0654 30.6223 50.9607C29.8897 52.556 28.397 53.6387 26.7945 54.2493C26.4907 54.3639 26.1756 54.4458 25.8543 54.4934C25.3629 54.5695 24.8653 54.6447 24.3662 54.6189C24.1032 54.6057 23.8411 54.5785 23.581 54.5375C23.6787 54.5231 23.7764 54.5086 23.8733 54.4934C24.1948 54.4458 24.5102 54.3639 24.8142 54.2493C26.416 53.6387 27.9086 52.556 28.642 50.9607C29.0638 50.0654 29.3101 49.0981 29.3677 48.1107C29.4109 47.2965 29.3199 46.4807 29.0983 45.6957C28.8572 44.8205 28.4359 43.9552 27.9628 43.1773C26.2924 40.4293 23.7817 38.2622 21.297 36.27C19.6731 34.9682 18.0102 33.7158 16.3596 32.4483C13.559 30.2888 10.7835 28.0654 8.35682 25.4854C7.75701 24.8482 7.18086 24.1882 6.63523 23.5038C6.68559 23.5715 6.73672 23.6384 6.78861 23.7053C6.66041 23.5396 6.53144 23.3738 6.40324 23.2088C6.47726 23.3046 6.55205 23.3989 6.6276 23.4939C5.61454 22.1749 4.75582 20.745 4.0681 19.232C3.59438 18.0538 3.25446 16.8265 3.05468 15.573C2.9269 14.5128 2.91615 13.4419 3.02263 12.3794C3.16236 11.5342 3.38971 10.7058 3.70104 9.90734C4.0542 9.13224 4.48636 8.39536 4.99071 7.7083C5.52091 7.0634 6.11424 6.47271 6.7619 5.94496C7.44993 5.44387 8.18764 5.01429 8.9635 4.66295C9.77225 4.3497 10.6117 4.12161 11.468 3.9824C12.1669 3.90272 12.8719 3.89253 13.5727 3.95199C13.4743 3.93374 13.3751 3.91777 13.2751 3.90332C13.3957 3.91929 13.5162 3.93602 13.6361 3.95199C13.6826 3.9459 13.7299 3.93906 13.7765 3.93298C13.7314 3.93906 13.6864 3.94514 13.6422 3.95275C13.6582 3.95503 13.6742 3.95655 13.6895 3.95883L13.6696 3.96111C13.659 3.96187 13.649 3.96263 13.6391 3.96415C13.575 3.96947 13.5109 3.97556 13.4468 3.98316C12.5909 4.12211 11.752 4.34995 10.9438 4.66295C10.1668 5.01494 9.4281 5.44528 8.73914 5.94724C8.09308 6.47465 7.50106 7.06455 6.97176 7.7083C6.46941 8.39178 6.03879 9.12483 5.68667 9.89594C5.37111 10.7024 5.14142 11.5396 5.00139 12.3938C4.8972 13.4527 4.90871 14.5197 5.03573 15.576C5.23526 16.8286 5.57519 18.0549 6.04915 19.232C6.73687 20.745 7.59559 22.1749 8.60865 23.4939C8.61094 23.497 8.61322 23.5 8.61628 23.5038C9.16114 24.1882 9.7373 24.8482 10.3379 25.4854C12.7272 28.0266 15.4569 30.2219 18.214 32.3509C19.9058 33.652 21.6129 34.9347 23.278 36.27C25.7628 38.2622 28.2734 40.4293 29.9439 43.1773C30.4162 43.9552 30.8375 44.8205 31.0786 45.6957C31.3008 46.4805 31.3921 47.2964 31.3488 48.1107Z" fill="url(#paint23_linear_1_1077)"/>
<path d="M103.756 53.7786C102.743 54.2666 101.764 54.5618 100.633 54.6193C100.135 54.6446 99.637 54.5694 99.1458 54.4939C98.8245 54.4459 98.5091 54.3641 98.2051 54.2497C96.603 53.639 95.1105 52.5559 94.3773 50.9609C93.9553 50.0657 93.7089 49.0982 93.6515 48.1108C93.6081 47.2965 93.6991 46.4806 93.921 45.6957C94.1621 44.8207 94.5834 43.9551 95.0562 43.1772C96.7267 40.4293 99.2372 38.2624 101.722 36.27C103.437 34.8944 105.197 33.5743 106.94 32.2332L106.441 32.6173C109.315 30.4046 112.172 28.1321 114.662 25.4857C115.348 24.7567 116.002 23.999 116.616 23.2085L116.23 23.7056C117.36 22.2432 118.34 20.6666 119.067 18.9666L118.818 19.5534C119.404 18.1793 119.805 16.7343 120.011 15.2556L119.923 15.9087C120.103 14.6379 120.116 13.3492 119.961 12.0751L120.049 12.728C119.902 11.6506 119.614 10.597 119.192 9.59403L119.44 10.1808C119.022 9.2035 118.48 8.28317 117.828 7.44198L118.214 7.93912C117.578 7.12747 116.844 6.39647 116.029 5.76244L116.528 6.14651C115.684 5.49719 114.761 4.95747 113.78 4.54034L114.369 4.78793C113.362 4.36755 112.305 4.0802 111.223 3.93318L111.879 4.02092C110.954 3.88936 110.016 3.87944 109.089 3.99142L109.744 3.90367C109.033 4.00535 108.338 4.19628 107.676 4.47191L108.265 4.22425C107.619 4.49977 107.011 4.85338 106.452 5.27708L106.951 4.89301C106.379 5.33447 105.866 5.8461 105.423 6.41576L105.808 5.91862C105.383 6.47512 105.028 7.08165 104.752 7.72454L105 7.13783C104.724 7.79799 104.532 8.49037 104.43 9.19848L104.518 8.54553C104.467 8.92476 104.441 9.30686 104.439 9.68946C104.43 10.3392 104.172 10.9608 103.717 11.4263C103.29 11.8522 102.588 12.1732 101.974 12.1457C100.644 12.0864 99.502 11.066 99.509 9.68969C99.523 6.86386 100.66 4.09666 102.679 2.10383C104.715 0.105663 107.462 -1.00981 110.32 -0.999688C115.583 -0.966991 120.611 1.97183 123.152 6.57894C124.422 8.88682 125.058 11.488 124.996 14.1195C124.954 16.1594 124.576 18.1785 123.876 20.0961C122.454 23.923 119.98 27.1971 117.084 30.0468C114.253 32.8318 111.064 35.225 107.915 37.6346C107.556 37.9097 107.197 38.1852 106.838 38.4612L107.337 38.0771C105.172 39.7439 102.989 41.4321 101.096 43.409C100.637 43.8863 100.202 44.3864 99.7927 44.9075L100.178 44.4104C99.5658 45.1802 99.0552 46.0252 98.6589 46.9247L98.9074 46.338C98.7252 46.7736 98.5993 47.2305 98.5324 47.6977L98.6205 47.0446C98.5591 47.5154 98.5579 47.992 98.6169 48.463L98.5289 47.81C98.5857 48.2146 98.693 48.6105 98.8482 48.9886L98.5997 48.4019C98.7372 48.7188 98.9136 49.0176 99.1247 49.2915L98.7392 48.7944C98.9629 49.068 99.2176 49.3148 99.4982 49.53L98.9993 49.1459C99.2924 49.3641 99.6095 49.5484 99.9444 49.6953L99.3555 49.4477C99.7085 49.5951 100.078 49.699 100.456 49.7569L99.8011 49.6692C100.205 49.7224 100.614 49.7229 101.018 49.6705L100.362 49.7582C100.771 49.696 101.171 49.5851 101.553 49.428L100.964 49.6757C101.066 49.6314 101.167 49.5854 101.268 49.537C101.873 49.2458 102.5 49.1064 103.167 49.2893C103.739 49.4462 104.359 49.8867 104.641 50.4182C104.943 50.9885 105.094 51.6788 104.889 52.3109C104.7 52.8922 104.329 53.503 103.756 53.7786Z" fill="url(#paint24_linear_1_1077)"/>
<path d="M99.502 5.16479V11.6395C99.502 50.2155 82.9354 72.2789 62.4999 72.2789C52.2307 72.2789 42.939 66.7075 36.235 56.2689C42.4979 64.51 50.6655 68.8792 59.6001 68.8792C79.3244 68.8792 95.314 47.5838 95.314 10.3499V5.16479H99.502Z" fill="url(#paint25_linear_1_1077)"/>
<path d="M104.89 52.3103C104.7 52.892 104.329 53.5026 103.756 53.7786C102.743 54.2668 101.764 54.5618 100.634 54.6188C100.15 54.6439 99.6684 54.574 99.1914 54.5002C99.9273 54.3552 100.64 54.1125 101.311 53.7786C101.884 53.5026 102.255 52.892 102.444 52.3103C102.649 51.6784 102.498 50.988 102.196 50.4177C101.982 50.048 101.672 49.7429 101.298 49.5349C101.295 49.5322 101.29 49.5299 101.286 49.528C101.886 49.2421 102.508 49.1075 103.167 49.2893C103.74 49.4459 104.359 49.8862 104.641 50.4177C104.943 50.988 105.095 51.6784 104.89 52.3103Z" fill="url(#paint26_linear_1_1077)"/>
<path d="M124.995 14.1192C124.954 16.1593 124.576 18.1787 123.877 20.0966C122.454 23.9229 119.98 27.1971 117.083 30.0471C114.253 32.8316 111.064 35.2245 107.915 37.635C107.587 37.8866 107.259 38.1383 106.931 38.39C106.928 38.3923 106.925 38.3949 106.922 38.3976C106.893 38.4189 106.865 38.4402 106.838 38.4615C104.838 40.0051 102.843 41.5844 101.096 43.4093C100.709 43.8131 100.337 44.2313 99.985 44.6663C99.5314 45.2663 99.1383 45.9094 98.8113 46.5862C98.8098 46.587 98.8098 46.5878 98.8098 46.5885C98.7157 46.8472 98.6415 47.1125 98.5877 47.3824C98.5695 47.6296 98.5685 47.8779 98.5847 48.1253C98.6229 48.3131 98.6726 48.4985 98.7335 48.6803C98.7915 48.7921 98.854 48.9001 98.9227 49.0058C99.0204 49.1115 99.1232 49.2121 99.231 49.3077C99.2509 49.3214 99.2707 49.3343 99.2913 49.3465C99.2871 49.3474 99.283 49.3486 99.2791 49.3503C99.2757 49.3509 99.2724 49.3519 99.2692 49.3533C99.1241 49.4025 98.9822 49.4604 98.8441 49.5267C98.6421 49.5981 98.4356 49.6565 98.226 49.7015C98.0567 49.7113 97.8871 49.7116 97.7178 49.7023C97.3783 49.654 97.0574 49.5183 96.7868 49.3084C96.6787 49.2128 96.5755 49.1118 96.4777 49.0058C96.4098 48.9009 96.3469 48.7931 96.2892 48.6826C96.2276 48.5002 96.1776 48.314 96.1396 48.1253C96.1235 47.8776 96.1245 47.6291 96.1427 47.3816C96.196 47.1119 96.2702 46.8468 96.3648 46.5885C96.3648 46.5878 96.3648 46.587 96.3663 46.5862C96.6933 45.9094 97.0864 45.2663 97.54 44.6663C97.8918 44.2313 98.2641 43.8131 98.651 43.4093C100.426 41.5555 102.457 39.9549 104.487 38.3885C104.815 38.1368 105.142 37.8856 105.47 37.635C108.619 35.2245 111.808 32.8316 114.638 30.0471C117.535 27.1971 120.009 23.9229 121.431 20.0966C122.13 18.1787 122.508 16.1593 122.55 14.1192C122.613 11.4879 121.977 8.88676 120.706 6.57921C118.367 2.33625 113.917 -0.492396 109.116 -0.937983C109.516 -0.981365 109.918 -1.00193 110.32 -0.999574C115.583 -0.966878 120.611 1.97202 123.152 6.57921C124.422 8.88695 125.058 11.488 124.995 14.1192Z" fill="#73FDFF"/>
<path d="M89.2217 109.34V137H35.3177V109.34C35.3189 108.921 35.4863 108.52 35.7833 108.224C36.0804 107.928 36.483 107.761 36.9032 107.759H87.6363C88.0565 107.761 88.4591 107.928 88.7561 108.224C89.0532 108.52 89.2206 108.921 89.2217 109.34Z" fill="url(#paint27_linear_1_1077)"/>
<path d="M81.2946 115.662V126.726C81.2935 127.145 81.1261 127.546 80.8291 127.842C80.532 128.139 80.1294 128.306 79.7092 128.307H44.8302C44.41 128.306 44.0074 128.139 43.7103 127.842C43.4133 127.546 43.2459 127.145 43.2448 126.726V115.662C43.2459 115.243 43.4133 114.842 43.7103 114.546C44.0074 114.25 44.41 114.083 44.8302 114.082H79.7092C80.1294 114.083 80.532 114.25 80.8291 114.546C81.1261 114.842 81.2935 115.243 81.2946 115.662Z" fill="#82C7FE"/>
<path d="M81.2946 115.662V126.726C81.2935 127.145 81.1262 127.546 80.8291 127.842C80.5321 128.139 80.1294 128.306 79.7092 128.307H48.2388C54.6439 128.18 75.7457 126.821 75.7457 114.082H79.7092C80.1294 114.083 80.5321 114.25 80.8291 114.546C81.1262 114.842 81.2935 115.243 81.2946 115.662Z" fill="url(#paint28_linear_1_1077)"/>
<path d="M44.8302 122.775V116.309C44.8302 116.137 44.8985 115.973 45.0202 115.852C45.1418 115.73 45.3068 115.662 45.4788 115.662H59.6936C59.6936 115.662 48.3975 116.848 44.8302 122.775Z" fill="#0A9AF9"/>
<path d="M37.1013 116.452V109.986C37.1013 109.815 37.1697 109.65 37.2913 109.529C37.413 109.408 37.5779 109.34 37.75 109.34H51.9645C51.9645 109.34 40.6685 110.525 37.1013 116.452Z" fill="#0A9AF9"/>
<path d="M49.298 62.7953C44.4515 62.7953 31.0096 46.8909 29.3807 9.34082H36.9355C38.2699 55.2839 49.298 62.7953 49.298 62.7953Z" fill="url(#paint29_linear_1_1077)"/>
<path d="M46.5508 104.465C46.5508 104.465 56.8529 97.4664 56.8529 87.3567V104.465H46.5508Z" fill="url(#paint30_linear_1_1077)"/>
<path d="M12.7918 2.78782C12.7918 2.78782 11.7464 2.48579 9.60826 2.92073C7.00099 3.4511 3.71783 6.27465 3.71783 6.27465C5.40081 2.92073 9.22952 0.848145 10.8453 0.848145C11.3616 0.848185 11.8567 1.05256 12.2217 1.41632C12.5868 1.78007 12.7918 2.27341 12.7918 2.78782Z" fill="url(#paint31_linear_1_1077)"/>
<path d="M83.4519 109.205V103.962C83.4519 103.962 68.5963 100.142 68.5963 73.8486H56.2741C56.2741 100.142 41.4186 103.962 41.4186 103.962V109.205H83.4519Z" fill="url(#paint32_linear_1_1077)"/>
<path d="M68.7996 78.9814C68.8583 79.703 68.9295 80.4041 69.0132 81.0847C71.4209 100.868 83.4522 103.962 83.4522 103.962V109.205H80.3425V103.962C80.3425 103.962 68.9407 101.03 66.1149 82.6237C64.9552 83.0385 63.7322 83.2505 62.5 83.2502C60.0558 83.2502 57.7786 82.4229 55.8685 80.9972C55.9502 80.3167 56.0201 79.6161 56.0784 78.8955L68.7996 78.9814Z" fill="url(#paint33_linear_1_1077)"/>
<path d="M74.7271 66.8933C74.7271 74.6816 69.2528 80.9952 62.5 80.9952C55.7472 80.9952 50.2729 74.6816 50.2729 66.8933H74.7271Z" fill="url(#paint34_linear_1_1077)"/>
<path d="M74.7274 66.8928C74.7285 68.3231 74.5399 69.7472 74.1666 71.1282C73.2635 74.4394 71.3299 77.2238 68.7996 78.9816C66.9598 80.2598 64.8043 81.3435 62.5 81.3435C60.2305 81.3435 58.0004 80.4676 56.2844 79.0395C57.507 79.5598 58.8225 79.8282 60.1519 79.8288C64.5627 79.8288 68.3791 76.8921 70.2106 72.621C63.7844 74.4894 56.8951 73.9587 50.8335 71.1284C50.459 69.7476 50.2704 68.3234 50.2726 66.8931L74.7274 66.8928Z" fill="url(#paint35_linear_1_1077)"/>
<path d="M99.5018 11.6392C99.5018 50.2151 82.9355 72.2789 62.5 72.2789C42.0645 72.2789 25.4982 50.2151 25.4982 11.6392V5.16431H99.5018V11.6392Z" fill="url(#paint36_linear_1_1077)"/>
<path d="M21.2433 53.7784C22.257 54.2663 23.2358 54.5616 24.3663 54.6191C24.8649 54.6443 25.3627 54.5692 25.8539 54.4936C26.1753 54.4457 26.4906 54.3638 26.7946 54.2494C28.3968 53.6387 29.8892 52.5557 30.6224 50.9607C31.0445 50.0654 31.2908 49.098 31.3482 48.1105C31.3917 47.2962 31.3006 46.4804 31.0788 45.6955C30.8376 44.8204 30.4164 43.9549 29.9435 43.1769C28.2731 40.429 25.7626 38.2621 23.2778 36.2697C21.5623 34.8942 19.8027 33.5741 18.0601 32.233L18.559 32.617C15.6847 30.4043 12.8273 28.1319 10.3378 25.4854C9.65196 24.7564 8.99728 23.9988 8.38381 23.2083L8.76927 23.7054C7.63985 22.243 6.65993 20.6663 5.93307 18.9663L6.18177 19.5531C5.59607 18.1791 5.19485 16.734 4.98848 15.2554L5.07654 15.9084C4.89634 14.6377 4.88352 13.3489 5.03839 12.0749L4.9504 12.7278C5.09783 11.6503 5.38609 10.5967 5.80784 9.59379L5.55929 10.1806C5.97797 9.20326 6.51965 8.28293 7.1713 7.44174L6.78585 7.93888C7.42216 7.12722 8.15578 6.39623 8.97035 5.7622L8.47142 6.14627C9.31561 5.49695 10.2392 4.95723 11.2201 4.5401L10.6312 4.78768C11.6377 4.36731 12.6951 4.07996 13.7765 3.93293L13.1212 4.02068C14.0459 3.88912 14.9839 3.8792 15.9112 3.99118L15.2559 3.90343C15.9666 4.00511 16.6614 4.19604 17.324 4.47167L16.7351 4.22401C17.3803 4.49953 17.989 4.85313 18.5475 5.27684L18.0486 4.89277C18.6203 5.33423 19.1338 5.84586 19.5768 6.41552L19.1914 5.91838C19.6166 6.47487 19.9715 7.08141 20.248 7.7243L19.9994 7.13759C20.276 7.79774 20.4676 8.49013 20.5697 9.19824L20.4817 8.54529C20.5326 8.92452 20.559 9.30662 20.5607 9.68922C20.5695 10.3389 20.8279 10.9605 21.2828 11.4261C21.7101 11.8519 22.4122 12.1729 23.0259 12.1455C24.356 12.0861 25.4978 11.0657 25.4908 9.68945C25.4772 6.86324 24.3403 4.09634 22.3217 2.10321C20.2848 0.105052 17.5382 -1.01029 14.6798 -0.999928C9.41631 -0.967232 4.38852 1.97159 1.84826 6.5787C0.577948 8.88657 -0.0581892 11.4878 0.00418278 14.1192C0.0459361 16.1591 0.424042 18.1783 1.12337 20.0959C2.54559 23.9228 5.01969 27.1968 7.9161 30.0465C10.7467 32.8315 13.9357 35.2248 17.0845 37.6344C17.444 37.9095 17.8032 38.185 18.1621 38.4609L17.6632 38.0768C19.8277 39.7436 22.011 41.4318 23.9036 43.4088C24.3631 43.886 24.7982 44.3862 25.207 44.9072L24.8216 44.4101C25.434 45.18 25.9446 46.025 26.3409 46.9245L26.0924 46.3378C26.2745 46.7734 26.4005 47.2302 26.4673 47.6974L26.3793 47.0444C26.4407 47.5151 26.4419 47.9917 26.3828 48.4627L26.4709 47.8098C26.4141 48.2144 26.3068 48.6103 26.1515 48.9884L26.4001 48.4016C26.2625 48.7186 26.0862 49.0174 25.8751 49.2913L26.2605 48.7941C26.0369 49.0677 25.7822 49.3146 25.5015 49.5297L26.0004 49.1456C25.7073 49.3639 25.3902 49.5482 25.0553 49.695L25.6442 49.4474C25.2913 49.5949 24.9215 49.6987 24.5433 49.7567L25.1986 49.6689C24.7949 49.7222 24.386 49.7226 23.9822 49.6702L24.6374 49.758C24.2288 49.6957 23.8291 49.5849 23.447 49.4278L24.0359 49.6754C23.9333 49.6312 23.8325 49.5852 23.7319 49.5367C23.1271 49.2456 22.4993 49.1061 21.8324 49.2891C21.2606 49.446 20.6408 49.8865 20.3591 50.4179C20.0568 50.9882 19.9054 51.6786 20.1106 52.3106C20.2994 52.8919 20.6709 53.503 21.2435 53.7786L21.2433 53.7784Z" fill="url(#paint37_linear_1_1077)"/>
<path d="M20.3408 2.10321C18.5467 0.343151 16.1937 -0.739754 13.6857 -0.959629C14.0164 -0.983961 14.3478 -0.997395 14.68 -0.99993C17.5383 -1.01021 20.285 0.105121 22.3219 2.10321C24.3403 4.09619 25.4774 6.86324 25.4911 9.6896C25.498 11.0659 24.3563 12.0863 23.0262 12.1456C22.6746 12.1518 22.3264 12.0755 22.0097 11.9229C22.8828 11.5434 23.5161 10.7154 23.5108 9.6896C23.4963 6.86324 22.3593 4.09626 20.3408 2.10321Z" fill="url(#paint38_linear_1_1077)"/>
<path d="M31.3488 48.1105C31.291 49.0979 31.0444 50.0652 30.6223 50.9604C29.8897 52.5557 28.3971 53.6385 26.7945 54.2491C26.4908 54.3637 26.1756 54.4455 25.8544 54.4932C25.3629 54.5692 24.8654 54.6445 24.3663 54.6186C24.1033 54.6055 23.8412 54.5783 23.5811 54.5373C23.6787 54.5228 23.7764 54.5084 23.8733 54.4932C24.1948 54.4455 24.5103 54.3637 24.8143 54.2491C26.416 53.6385 27.9087 52.5557 28.6421 50.9604C29.0639 50.0651 29.3102 49.0978 29.3678 48.1105C29.411 47.2962 29.32 46.4804 29.0984 45.6955C28.8573 44.8203 28.436 43.955 27.9629 43.1771C26.2924 40.4291 23.7818 38.2619 21.2971 36.2697C19.6731 34.9679 18.0103 33.7156 16.3597 32.448C13.559 30.2885 10.7836 28.0652 8.35688 25.4852C7.75707 24.848 7.18092 24.1879 6.63529 23.5036C6.68565 23.5713 6.73678 23.6382 6.78868 23.7051C6.66047 23.5393 6.5315 23.3736 6.4033 23.2086C6.47732 23.3044 6.55211 23.3987 6.62766 23.4937C5.6146 22.1747 4.75588 20.7448 4.06816 19.2317C3.59444 18.0536 3.25452 16.8263 3.05474 15.5727C2.92696 14.5126 2.91621 13.4416 3.02269 12.3791C3.16242 11.5339 3.38978 10.7055 3.7011 9.9071C4.05426 9.132 4.48642 8.39511 4.99077 7.70806C5.52097 7.06316 6.1143 6.47247 6.76197 5.94472C7.44999 5.44362 8.1877 5.01404 8.96356 4.6627C9.77231 4.34945 10.6117 4.12136 11.4681 3.98216C12.1669 3.90247 12.8719 3.89228 13.5728 3.95174C13.4743 3.93349 13.3751 3.91752 13.2752 3.90308C13.3957 3.91904 13.5163 3.93577 13.6361 3.95174C13.6827 3.94566 13.73 3.93881 13.7765 3.93273C13.7315 3.93881 13.6865 3.9449 13.6422 3.9525C13.6583 3.95478 13.6743 3.9563 13.6895 3.95859L13.6697 3.96087C13.659 3.96163 13.6491 3.96239 13.6392 3.96391C13.5751 3.96923 13.511 3.97531 13.4469 3.98292C12.591 4.12187 11.7521 4.34971 10.9438 4.6627C10.1669 5.01469 9.42816 5.44503 8.7392 5.947C8.09314 6.47441 7.50112 7.06431 6.97182 7.70806C6.46947 8.39154 6.03885 9.12459 5.68673 9.89569C5.37117 10.7021 5.14148 11.5393 5.00146 12.3936C4.89726 13.4524 4.90878 14.5194 5.0358 15.5758C5.23532 16.8284 5.57525 18.0547 6.04922 19.2317C6.73693 20.7448 7.59565 22.1747 8.60871 23.4937C8.611 23.4967 8.61329 23.4998 8.61634 23.5036C9.1612 24.1879 9.73736 24.848 10.3379 25.4852C12.7272 28.0264 15.4569 30.2216 18.2141 32.3507C19.9059 33.6517 21.613 34.9345 23.2781 36.2697C25.7628 38.2619 28.2735 40.4291 29.9439 43.1771C30.4163 43.955 30.8375 44.8203 31.0787 45.6955C31.3009 46.4803 31.3922 47.2962 31.3488 48.1105Z" fill="url(#paint39_linear_1_1077)"/>
<path d="M103.756 53.7784C102.743 54.2663 101.764 54.5616 100.634 54.6191C100.135 54.6443 99.6371 54.5692 99.1459 54.4936C98.8245 54.4457 98.5092 54.3638 98.2052 54.2494C96.603 53.6387 95.1106 52.5557 94.3774 50.9607C93.9554 50.0654 93.709 49.098 93.6516 48.1105C93.6081 47.2962 93.6992 46.4804 93.9211 45.6955C94.1622 44.8204 94.5834 43.9549 95.0563 43.1769C96.7267 40.429 99.2372 38.2621 101.722 36.2697C103.438 34.8942 105.197 33.5741 106.94 32.233L106.441 32.617C109.315 30.4043 112.173 28.1319 114.662 25.4854C115.348 24.7564 116.003 23.9988 116.616 23.2083L116.231 23.7054C117.36 22.243 118.34 20.6663 119.067 18.9663L118.818 19.5531C119.404 18.1791 119.805 16.734 120.011 15.2554L119.923 15.9084C120.103 14.6377 120.116 13.3489 119.961 12.0749L120.049 12.7278C119.902 11.6503 119.614 10.5967 119.192 9.59379L119.441 10.1806C119.022 9.20325 118.48 8.28293 117.829 7.44174L118.214 7.93888C117.578 7.12722 116.844 6.39623 116.029 5.76219L116.528 6.14627C115.684 5.49695 114.761 4.95723 113.78 4.5401L114.369 4.78768C113.362 4.36731 112.305 4.07995 111.223 3.93293L111.879 4.02068C110.954 3.88912 110.016 3.8792 109.089 3.99118L109.744 3.90343C109.033 4.0051 108.338 4.19603 107.676 4.47166L108.265 4.22401C107.619 4.49953 107.011 4.85313 106.452 5.27684L106.951 4.89277C106.379 5.33423 105.866 5.84586 105.423 6.41552L105.808 5.91838C105.383 6.47488 105.028 7.08141 104.752 7.7243L105 7.13758C104.724 7.79774 104.532 8.49013 104.43 9.19823L104.518 8.54529C104.467 8.92452 104.441 9.30661 104.439 9.68922C104.43 10.3389 104.172 10.9605 103.717 11.4261C103.29 11.8519 102.588 12.1729 101.974 12.1455C100.644 12.0861 99.502 11.0657 99.5091 9.68944C99.5231 6.86361 100.66 4.09641 102.679 2.10359C104.715 0.105419 107.462 -1.01006 110.32 -0.999932C115.584 -0.967235 120.611 1.97159 123.152 6.5787C124.422 8.88657 125.058 11.4878 124.996 14.1192C124.954 16.1591 124.576 18.1783 123.876 20.0959C122.454 23.9228 119.98 27.1968 117.084 30.0465C114.253 32.8315 111.064 35.2248 107.915 37.6344C107.556 37.9095 107.197 38.185 106.838 38.4609L107.337 38.0768C105.172 39.7436 102.989 41.4318 101.096 43.4087C100.637 43.886 100.202 44.3862 99.7928 44.9072L100.178 44.4101C99.5659 45.18 99.0553 46.025 98.6589 46.9245L98.9074 46.3378C98.7253 46.7734 98.5993 47.2302 98.5325 47.6974L98.6206 47.0444C98.5591 47.5151 98.5579 47.9917 98.617 48.4627L98.5289 47.8098C98.5858 48.2144 98.693 48.6103 98.8483 48.9884L98.5997 48.4016C98.7373 48.7186 98.9136 49.0174 99.1248 49.2913L98.7393 48.7941C98.9629 49.0677 99.2176 49.3146 99.4983 49.5297L98.9994 49.1456C99.2925 49.3639 99.6096 49.5482 99.9445 49.695L99.3556 49.4474C99.7086 49.5949 100.078 49.6987 100.457 49.7567L99.8012 49.6689C100.205 49.7222 100.614 49.7226 101.018 49.6702L100.362 49.758C100.771 49.6957 101.171 49.5848 101.553 49.4277L100.964 49.6754C101.067 49.6312 101.167 49.5851 101.268 49.5367C101.873 49.2456 102.501 49.1061 103.167 49.2891C103.739 49.446 104.359 49.8865 104.641 50.4179C104.943 50.9882 105.094 51.6786 104.889 52.3106C104.7 52.8919 104.329 53.503 103.756 53.7786L103.756 53.7784Z" fill="url(#paint40_linear_1_1077)"/>
<path d="M99.502 5.16455V11.6392C99.502 50.2152 82.9355 72.2786 62.5 72.2786C52.2307 72.2786 42.939 66.7073 36.235 56.2687C42.4979 64.5098 50.6656 68.8789 59.6002 68.8789C79.3244 68.8789 95.314 47.5835 95.314 10.3496V5.16455H99.502Z" fill="url(#paint41_linear_1_1077)"/>
<path d="M104.89 52.3103C104.7 52.892 104.329 53.5026 103.756 53.7786C102.743 54.2668 101.764 54.5618 100.634 54.6188C100.15 54.6439 99.6684 54.574 99.1914 54.5002C99.9273 54.3552 100.64 54.1125 101.311 53.7786C101.884 53.5026 102.255 52.892 102.444 52.3103C102.649 51.6784 102.498 50.988 102.196 50.4177C101.982 50.048 101.672 49.7429 101.298 49.5349C101.295 49.5322 101.29 49.5299 101.286 49.528C101.886 49.2421 102.508 49.1075 103.167 49.2893C103.74 49.4459 104.359 49.8862 104.641 50.4177C104.943 50.988 105.095 51.6784 104.89 52.3103Z" fill="url(#paint42_linear_1_1077)"/>
<path d="M124.995 14.119C124.954 16.1591 124.576 18.1784 123.877 20.0964C122.454 23.9226 119.98 27.1969 117.083 30.0468C114.253 32.8313 111.064 35.2243 107.915 37.6347C107.587 37.8864 107.259 38.1381 106.931 38.3898C106.928 38.3921 106.925 38.3946 106.922 38.3974C106.894 38.4187 106.865 38.44 106.838 38.4613C104.838 40.0048 102.843 41.5842 101.096 43.4091C100.709 43.8129 100.337 44.2311 99.985 44.666C99.5315 45.2661 99.1384 45.9092 98.8114 46.586C98.8098 46.5868 98.8098 46.5875 98.8098 46.5883C98.7158 46.8469 98.6415 47.1123 98.5878 47.3821C98.5696 47.6294 98.5686 47.8776 98.5847 48.125C98.6229 48.3129 98.6726 48.4983 98.7335 48.6801C98.7915 48.7919 98.8541 48.8999 98.9228 49.0055C99.0205 49.1112 99.1232 49.2119 99.2311 49.3074C99.2509 49.3211 99.2708 49.334 99.2914 49.3462C99.2872 49.3471 99.2831 49.3484 99.2792 49.35C99.2757 49.3507 99.2724 49.3517 99.2692 49.353C99.1242 49.4022 98.9822 49.4601 98.8442 49.5264C98.6421 49.5979 98.4357 49.6563 98.2261 49.7013C98.0568 49.7111 97.8871 49.7113 97.7178 49.7021C97.3784 49.6538 97.0574 49.518 96.7868 49.3082C96.6788 49.2126 96.5756 49.1115 96.4778 49.0055C96.4098 48.9006 96.347 48.7929 96.2893 48.6824C96.2277 48.4999 96.1777 48.3138 96.1397 48.125C96.1235 47.8774 96.1246 47.6289 96.1427 47.3814C96.1961 47.1117 96.2703 46.8465 96.3648 46.5883C96.3648 46.5875 96.3648 46.5868 96.3663 46.586C96.6934 45.9092 97.0865 45.2661 97.54 44.666C97.8918 44.2311 98.2642 43.8129 98.6511 43.4091C100.426 41.5553 102.457 39.9547 104.487 38.3883C104.815 38.1366 105.142 37.8854 105.47 37.6347C108.619 35.2243 111.808 32.8313 114.638 30.0468C117.535 27.1969 120.009 23.9226 121.431 20.0964C122.13 18.1785 122.508 16.1591 122.55 14.119C122.613 11.4876 121.977 8.88651 120.706 6.57896C118.367 2.336 113.917 -0.49264 109.116 -0.938227C109.516 -0.981609 109.918 -1.00217 110.32 -0.999819C115.583 -0.967122 120.611 1.97178 123.152 6.57896C124.422 8.88671 125.058 11.4877 124.995 14.119Z" fill="url(#paint43_linear_1_1077)"/>
<path d="M89.2217 109.34V137H35.3177V109.34C35.3189 108.921 35.4863 108.52 35.7833 108.223C36.0804 107.927 36.483 107.76 36.9032 107.759H87.6363C88.0565 107.76 88.4591 107.927 88.7561 108.223C89.0532 108.52 89.2206 108.921 89.2217 109.34Z" fill="url(#paint44_linear_1_1077)"/>
<path d="M81.2946 115.662V126.726C81.2935 127.145 81.1262 127.546 80.8291 127.842C80.5321 128.138 80.1295 128.305 79.7093 128.307H44.8303C44.41 128.305 44.0074 128.138 43.7104 127.842C43.4133 127.546 43.246 127.145 43.2449 126.726V115.662C43.246 115.243 43.4133 114.842 43.7104 114.546C44.0074 114.25 44.41 114.083 44.8303 114.081H79.7093C80.1295 114.083 80.5321 114.25 80.8291 114.546C81.1262 114.842 81.2935 115.243 81.2946 115.662Z" fill="url(#paint45_linear_1_1077)"/>
<path d="M81.2947 115.662V126.726C81.2936 127.145 81.1262 127.546 80.8292 127.842C80.5321 128.138 80.1295 128.305 79.7093 128.307H48.2389C54.644 128.18 75.7457 126.821 75.7457 114.081H79.7093C80.1295 114.083 80.5321 114.25 80.8292 114.546C81.1262 114.842 81.2936 115.243 81.2947 115.662Z" fill="url(#paint46_linear_1_1077)"/>
<path d="M44.8303 122.775V116.308C44.8303 116.137 44.8986 115.973 45.0202 115.851C45.1419 115.73 45.3069 115.662 45.4789 115.662H59.6936C59.6936 115.662 48.3976 116.847 44.8303 122.775Z" fill="url(#paint47_linear_1_1077)"/>
<path d="M37.1014 116.452V109.986C37.1014 109.815 37.1697 109.65 37.2914 109.529C37.413 109.408 37.578 109.34 37.75 109.34H51.9645C51.9645 109.34 40.6686 110.525 37.1014 116.452Z" fill="url(#paint48_linear_1_1077)"/>
<path d="M49.2981 62.7951C44.4515 62.7951 31.0097 46.8906 29.3807 9.34058H36.9356C38.27 55.2837 49.2981 62.7951 49.2981 62.7951Z" fill="url(#paint49_linear_1_1077)"/>
<path d="M46.5508 104.465C46.5508 104.465 56.8529 97.4662 56.8529 87.3564V104.465H46.5508Z" fill="url(#paint50_linear_1_1077)"/>
<path d="M12.7918 2.78757C12.7918 2.78757 11.7464 2.48555 9.60826 2.92049C7.00099 3.45086 3.71783 6.27441 3.71783 6.27441C5.40081 2.92049 9.22952 0.8479 10.8453 0.8479C11.3616 0.847941 11.8567 1.05232 12.2217 1.41607C12.5868 1.77983 12.7918 2.27317 12.7918 2.78757Z" fill="url(#paint51_linear_1_1077)"/>
</g>
</g>
</g>
<defs>
<linearGradient id="paint0_linear_1_1077" x1="46.4374" y1="76.7156" x2="63.1072" y2="111.3" gradientUnits="userSpaceOnUse">
<stop stop-color="#0E61A3"/>
<stop offset="0.18" stop-color="#527EF5"/>
<stop offset="0.395" stop-color="#125DC9"/>
<stop offset="0.54" stop-color="#06B0FB"/>
<stop offset="0.725" stop-color="#049BF9"/>
<stop offset="1" stop-color="#4CF9FF"/>
</linearGradient>
<linearGradient id="paint1_linear_1_1077" x1="59.162" y1="81.3533" x2="75.6358" y2="107.516" gradientUnits="userSpaceOnUse">
<stop stop-color="#4CF9FF"/>
<stop offset="0.28" stop-color="#049BF9"/>
<stop offset="0.63" stop-color="#AED6F0"/>
<stop offset="1" stop-color="#EAEBED"/>
</linearGradient>
<linearGradient id="paint2_linear_1_1077" x1="53.1927" y1="68.0369" x2="58.2569" y2="83.362" gradientUnits="userSpaceOnUse">
<stop stop-color="#4CF9FF"/>
<stop offset="0.275" stop-color="#049BF9"/>
<stop offset="1" stop-color="#AED6F0"/>
</linearGradient>
<linearGradient id="paint3_linear_1_1077" x1="55.9643" y1="72.8993" x2="60.9398" y2="83.5365" gradientUnits="userSpaceOnUse">
<stop stop-color="#4CF9FF"/>
<stop offset="0.568702" stop-color="#AC74F1"/>
<stop offset="0.995" stop-color="#68F7FF"/>
</linearGradient>
<linearGradient id="paint4_linear_1_1077" x1="34.7229" y1="-3.041" x2="74.9336" y2="66.5997" gradientUnits="userSpaceOnUse">
<stop stop-color="#A3FEFF"/>
<stop offset="0.43" stop-color="#11AAFA"/>
<stop offset="1" stop-color="#033DCA"/>
</linearGradient>
<linearGradient id="paint5_linear_1_1077" x1="3.74428" y1="3.51031" x2="37.2646" y2="36.4883" gradientUnits="userSpaceOnUse">
<stop stop-color="#4CF9FF"/>
<stop offset="0.275" stop-color="#049BF9"/>
<stop offset="0.9999" stop-color="#AED6F0"/>
<stop offset="1" stop-color="#ECEBF0"/>
</linearGradient>
<linearGradient id="paint6_linear_1_1077" x1="15.0953" y1="0.0661361" x2="22.281" y2="11.3272" gradientUnits="userSpaceOnUse">
<stop stop-color="#4CF9FF"/>
<stop offset="0.275" stop-color="#049BF9"/>
<stop offset="0.46" stop-color="#AED6F0"/>
<stop offset="0.525" stop-color="#EAEBED"/>
<stop offset="0.705" stop-color="#ECEBF0"/>
<stop offset="1" stop-color="#3A3844"/>
</linearGradient>
<linearGradient id="paint7_linear_1_1077" x1="26.1434" y1="50.852" x2="-3.00132" y2="31.6559" gradientUnits="userSpaceOnUse">
<stop stop-color="#567AF7"/>
<stop offset="0.282796" stop-color="#88E8FF"/>
<stop offset="0.61" stop-color="#63E5FD"/>
<stop offset="1" stop-color="#5864EE"/>
</linearGradient>
<linearGradient id="paint8_linear_1_1077" x1="98.0387" y1="46.3612" x2="64.9138" y2="15.946" gradientUnits="userSpaceOnUse">
<stop stop-color="#9AE1FE"/>
<stop offset="0.282796" stop-color="#A979F1"/>
<stop offset="0.63" stop-color="#0493F9"/>
<stop offset="1" stop-color="#B3FDFE"/>
</linearGradient>
<linearGradient id="paint9_linear_1_1077" x1="42.4837" y1="60.2425" x2="95.0516" y2="6.27601" gradientUnits="userSpaceOnUse">
<stop stop-color="#79DAFD"/>
<stop offset="0.282796" stop-color="#C489F5"/>
<stop offset="0.63" stop-color="#0492F9"/>
<stop offset="1" stop-color="#73FDFF"/>
</linearGradient>
<linearGradient id="paint10_linear_1_1077" x1="99.883" y1="49.6458" x2="102.602" y2="54.7189" gradientUnits="userSpaceOnUse">
<stop stop-color="#4CF9FF"/>
<stop offset="0.275" stop-color="#049BF9"/>
<stop offset="0.46" stop-color="#AED6F0"/>
<stop offset="0.525" stop-color="#EAEBED"/>
<stop offset="0.705" stop-color="#ECEBF0"/>
<stop offset="1" stop-color="#3A3844"/>
</linearGradient>
<linearGradient id="paint11_linear_1_1077" x1="20.4252" y1="77.3908" x2="49.604" y2="153.912" gradientUnits="userSpaceOnUse">
<stop stop-color="#4BCEFB"/>
<stop offset="0.5" stop-color="#1D5BBD"/>
<stop offset="1" stop-color="#8AE9FF"/>
</linearGradient>
<linearGradient id="paint12_linear_1_1077" x1="52.1858" y1="115.235" x2="56.1719" y2="131.399" gradientUnits="userSpaceOnUse">
<stop stop-color="#4294F8"/>
<stop offset="1" stop-color="#049BF9"/>
</linearGradient>
<linearGradient id="paint13_linear_1_1077" x1="31.7589" y1="13.675" x2="61.2059" y2="32.8223" gradientUnits="userSpaceOnUse">
<stop stop-color="#4CF9FF"/>
<stop offset="0.275" stop-color="#049BF9"/>
<stop offset="0.695" stop-color="#AED6F0"/>
<stop offset="1" stop-color="#A97AF4"/>
</linearGradient>
<linearGradient id="paint14_linear_1_1077" x1="47.7809" y1="88.7439" x2="58.0797" y2="99.5661" gradientUnits="userSpaceOnUse">
<stop stop-color="#049BF9"/>
<stop offset="0.61" stop-color="#4CF9FF"/>
<stop offset="1" stop-color="#AED6F0"/>
</linearGradient>
<linearGradient id="paint15_linear_1_1077" x1="4.8013" y1="1.28813" x2="6.8073" y2="7.14184" gradientUnits="userSpaceOnUse">
<stop stop-color="#4CF9FF"/>
<stop offset="0.275" stop-color="#049BF9"/>
<stop offset="0.46" stop-color="#AED6F0"/>
<stop offset="0.525" stop-color="#EAEBED"/>
<stop offset="0.705" stop-color="#ECEBF0"/>
<stop offset="1" stop-color="#3A3844"/>
</linearGradient>
<linearGradient id="paint16_linear_1_1077" x1="46.4374" y1="76.7156" x2="63.1072" y2="111.3" gradientUnits="userSpaceOnUse">
<stop stop-color="#0E61A3"/>
<stop offset="0.18" stop-color="#527EF5"/>
<stop offset="0.395" stop-color="#125DC9"/>
<stop offset="0.54" stop-color="#06B0FB"/>
<stop offset="0.725" stop-color="#049BF9"/>
<stop offset="1" stop-color="#4CF9FF"/>
</linearGradient>
<linearGradient id="paint17_linear_1_1077" x1="59.162" y1="81.3533" x2="75.6358" y2="107.516" gradientUnits="userSpaceOnUse">
<stop stop-color="#4CF9FF"/>
<stop offset="0.28" stop-color="#049BF9"/>
<stop offset="0.63" stop-color="#AED6F0"/>
<stop offset="1" stop-color="#EAEBED"/>
</linearGradient>
<linearGradient id="paint18_linear_1_1077" x1="53.1927" y1="68.0369" x2="58.2569" y2="83.362" gradientUnits="userSpaceOnUse">
<stop stop-color="#4CF9FF"/>
<stop offset="0.275" stop-color="#049BF9"/>
<stop offset="1" stop-color="#AED6F0"/>
</linearGradient>
<linearGradient id="paint19_linear_1_1077" x1="55.9643" y1="72.8993" x2="60.9398" y2="83.5365" gradientUnits="userSpaceOnUse">
<stop stop-color="#4CF9FF"/>
<stop offset="0.568702" stop-color="#AC74F1"/>
<stop offset="0.995" stop-color="#68F7FF"/>
</linearGradient>
<linearGradient id="paint20_linear_1_1077" x1="34.7229" y1="-3.041" x2="74.9336" y2="66.5997" gradientUnits="userSpaceOnUse">
<stop stop-color="#A3FEFF"/>
<stop offset="0.43" stop-color="#11AAFA"/>
<stop offset="1" stop-color="#033DCA"/>
</linearGradient>
<linearGradient id="paint21_linear_1_1077" x1="3.74428" y1="3.51031" x2="37.2646" y2="36.4883" gradientUnits="userSpaceOnUse">
<stop stop-color="#4CF9FF"/>
<stop offset="0.275" stop-color="#049BF9"/>
<stop offset="0.9999" stop-color="#AED6F0"/>
<stop offset="1" stop-color="#ECEBF0"/>
</linearGradient>
<linearGradient id="paint22_linear_1_1077" x1="15.0953" y1="0.0661361" x2="22.281" y2="11.3272" gradientUnits="userSpaceOnUse">
<stop stop-color="#4CF9FF"/>
<stop offset="0.275" stop-color="#049BF9"/>
<stop offset="0.46" stop-color="#AED6F0"/>
<stop offset="0.525" stop-color="#EAEBED"/>
<stop offset="0.705" stop-color="#ECEBF0"/>
<stop offset="1" stop-color="#3A3844"/>
</linearGradient>
<linearGradient id="paint23_linear_1_1077" x1="26.1434" y1="50.852" x2="-3.00132" y2="31.6559" gradientUnits="userSpaceOnUse">
<stop stop-color="#567AF7"/>
<stop offset="0.282796" stop-color="#88E8FF"/>
<stop offset="0.61" stop-color="#63E5FD"/>
<stop offset="1" stop-color="#5864EE"/>
</linearGradient>
<linearGradient id="paint24_linear_1_1077" x1="98.0387" y1="46.3612" x2="64.9138" y2="15.946" gradientUnits="userSpaceOnUse">
<stop stop-color="#9AE1FE"/>
<stop offset="0.282796" stop-color="#A979F1"/>
<stop offset="0.63" stop-color="#0493F9"/>
<stop offset="1" stop-color="#B3FDFE"/>
</linearGradient>
<linearGradient id="paint25_linear_1_1077" x1="42.4837" y1="60.2425" x2="95.0516" y2="6.27601" gradientUnits="userSpaceOnUse">
<stop stop-color="#79DAFD"/>
<stop offset="0.282796" stop-color="#C489F5"/>
<stop offset="0.63" stop-color="#0492F9"/>
<stop offset="1" stop-color="#73FDFF"/>
</linearGradient>
<linearGradient id="paint26_linear_1_1077" x1="99.883" y1="49.6458" x2="102.602" y2="54.7189" gradientUnits="userSpaceOnUse">
<stop stop-color="#4CF9FF"/>
<stop offset="0.275" stop-color="#049BF9"/>
<stop offset="0.46" stop-color="#AED6F0"/>
<stop offset="0.525" stop-color="#EAEBED"/>
<stop offset="0.705" stop-color="#ECEBF0"/>
<stop offset="1" stop-color="#3A3844"/>
</linearGradient>
<linearGradient id="paint27_linear_1_1077" x1="20.4252" y1="77.3908" x2="49.604" y2="153.912" gradientUnits="userSpaceOnUse">
<stop stop-color="#4BCEFB"/>
<stop offset="0.5" stop-color="#1D5BBD"/>
<stop offset="1" stop-color="#8AE9FF"/>
</linearGradient>
<linearGradient id="paint28_linear_1_1077" x1="52.1858" y1="115.235" x2="56.1719" y2="131.399" gradientUnits="userSpaceOnUse">
<stop stop-color="#4294F8"/>
<stop offset="1" stop-color="#049BF9"/>
</linearGradient>
<linearGradient id="paint29_linear_1_1077" x1="31.7589" y1="13.675" x2="61.2059" y2="32.8223" gradientUnits="userSpaceOnUse">
<stop stop-color="#4CF9FF"/>
<stop offset="0.275" stop-color="#049BF9"/>
<stop offset="0.695" stop-color="#AED6F0"/>
<stop offset="1" stop-color="#A97AF4"/>
</linearGradient>
<linearGradient id="paint30_linear_1_1077" x1="47.7809" y1="88.7439" x2="58.0797" y2="99.5661" gradientUnits="userSpaceOnUse">
<stop stop-color="#049BF9"/>
<stop offset="0.61" stop-color="#4CF9FF"/>
<stop offset="1" stop-color="#AED6F0"/>
</linearGradient>
<linearGradient id="paint31_linear_1_1077" x1="4.8013" y1="1.28813" x2="6.8073" y2="7.14184" gradientUnits="userSpaceOnUse">
<stop stop-color="#4CF9FF"/>
<stop offset="0.275" stop-color="#049BF9"/>
<stop offset="0.46" stop-color="#AED6F0"/>
<stop offset="0.525" stop-color="#EAEBED"/>
<stop offset="0.705" stop-color="#ECEBF0"/>
<stop offset="1" stop-color="#3A3844"/>
</linearGradient>
<linearGradient id="paint32_linear_1_1077" x1="46.4375" y1="76.7154" x2="58.8108" y2="104.415" gradientUnits="userSpaceOnUse">
<stop stop-color="#FEEDB5"/>
<stop offset="0.39" stop-color="#FDB92C"/>
<stop offset="0.625" stop-color="#FE9F1F"/>
<stop offset="1" stop-color="#DA490F"/>
</linearGradient>
<linearGradient id="paint33_linear_1_1077" x1="59.1621" y1="81.3531" x2="71.5614" y2="102.602" gradientUnits="userSpaceOnUse">
<stop stop-color="#FEEDB5"/>
<stop offset="0.39" stop-color="#FDB92C"/>
<stop offset="0.625" stop-color="#FE9F1F"/>
<stop offset="1" stop-color="#DA490F"/>
</linearGradient>
<linearGradient id="paint34_linear_1_1077" x1="53.1928" y1="68.0367" x2="56.9032" y2="80.153" gradientUnits="userSpaceOnUse">
<stop stop-color="#FEEDB5"/>
<stop offset="0.39" stop-color="#FDB92C"/>
<stop offset="0.625" stop-color="#FE9F1F"/>
<stop offset="1" stop-color="#DA490F"/>
</linearGradient>
<linearGradient id="paint35_linear_1_1077" x1="53.1926" y1="68.0645" x2="57.072" y2="80.4274" gradientUnits="userSpaceOnUse">
<stop stop-color="#FEEDB5"/>
<stop offset="0.39" stop-color="#FDB92C"/>
<stop offset="0.625" stop-color="#FE9F1F"/>
<stop offset="1" stop-color="#DA490F"/>
</linearGradient>
<linearGradient id="paint36_linear_1_1077" x1="34.3345" y1="10.606" x2="58.9915" y2="61.8033" gradientUnits="userSpaceOnUse">
<stop stop-color="#FEEDB5"/>
<stop offset="0.39" stop-color="#FDB92C"/>
<stop offset="0.625" stop-color="#FE9F1F"/>
<stop offset="1" stop-color="#DA490F"/>
</linearGradient>
<linearGradient id="paint37_linear_1_1077" x1="3.74434" y1="3.51006" x2="29.8346" y2="31.2079" gradientUnits="userSpaceOnUse">
<stop stop-color="#FEEDB5"/>
<stop offset="0.39" stop-color="#FDB92C"/>
<stop offset="0.625" stop-color="#FE9F1F"/>
<stop offset="1" stop-color="#DA490F"/>
</linearGradient>
<linearGradient id="paint38_linear_1_1077" x1="15.0953" y1="0.065892" x2="20.5081" y2="9.21928" gradientUnits="userSpaceOnUse">
<stop stop-color="#FEEDB5"/>
<stop offset="0.39" stop-color="#FDB92C"/>
<stop offset="0.625" stop-color="#FE9F1F"/>
<stop offset="1" stop-color="#DA490F"/>
</linearGradient>
<linearGradient id="paint39_linear_1_1077" x1="6.34228" y1="8.01557" x2="30.1414" y2="33.1173" gradientUnits="userSpaceOnUse">
<stop stop-color="#FEEDB5"/>
<stop offset="0.39" stop-color="#FDB92C"/>
<stop offset="0.625" stop-color="#FE9F1F"/>
<stop offset="1" stop-color="#DA490F"/>
</linearGradient>
<linearGradient id="paint40_linear_1_1077" x1="97.3854" y1="3.51006" x2="123.476" y2="31.2079" gradientUnits="userSpaceOnUse">
<stop stop-color="#FEEDB5"/>
<stop offset="0.39" stop-color="#FDB92C"/>
<stop offset="0.625" stop-color="#FE9F1F"/>
<stop offset="1" stop-color="#DA490F"/>
</linearGradient>
<linearGradient id="paint41_linear_1_1077" x1="43.7893" y1="10.6062" x2="70.7606" y2="58.4842" gradientUnits="userSpaceOnUse">
<stop stop-color="#FEEDB5"/>
<stop offset="0.39" stop-color="#FDB92C"/>
<stop offset="0.625" stop-color="#FE9F1F"/>
<stop offset="1" stop-color="#DA490F"/>
</linearGradient>
<linearGradient id="paint42_linear_1_1077" x1="99.883" y1="49.6458" x2="101.911" y2="53.7296" gradientUnits="userSpaceOnUse">
<stop stop-color="#FEEDB5"/>
<stop offset="0.39" stop-color="#FDB92C"/>
<stop offset="0.625" stop-color="#FE9F1F"/>
<stop offset="1" stop-color="#DA490F"/>
</linearGradient>
<linearGradient id="paint43_linear_1_1077" x1="99.5756" y1="3.11153" x2="123.345" y2="28.596" gradientUnits="userSpaceOnUse">
<stop stop-color="#FEEDB5"/>
<stop offset="0.39" stop-color="#FDB92C"/>
<stop offset="0.625" stop-color="#FE9F1F"/>
<stop offset="1" stop-color="#DA490F"/>
</linearGradient>
<linearGradient id="paint44_linear_1_1077" x1="41.754" y1="110.13" x2="49.0636" y2="135.504" gradientUnits="userSpaceOnUse">
<stop stop-color="#FEEDB5"/>
<stop offset="0.39" stop-color="#FDB92C"/>
<stop offset="0.625" stop-color="#FE9F1F"/>
<stop offset="1" stop-color="#DA490F"/>
</linearGradient>
<linearGradient id="paint45_linear_1_1077" x1="47.7881" y1="115.235" x2="50.3416" y2="128.096" gradientUnits="userSpaceOnUse">
<stop stop-color="#FEEDB5"/>
<stop offset="0.39" stop-color="#FDB92C"/>
<stop offset="0.625" stop-color="#FE9F1F"/>
<stop offset="1" stop-color="#DA490F"/>
</linearGradient>
<linearGradient id="paint46_linear_1_1077" x1="52.1859" y1="115.235" x2="55.0893" y2="127.94" gradientUnits="userSpaceOnUse">
<stop stop-color="#FEEDB5"/>
<stop offset="0.39" stop-color="#FDB92C"/>
<stop offset="0.625" stop-color="#FE9F1F"/>
<stop offset="1" stop-color="#DA490F"/>
</linearGradient>
<linearGradient id="paint47_linear_1_1077" x1="46.605" y1="116.239" x2="48.2005" y2="122.517" gradientUnits="userSpaceOnUse">
<stop stop-color="#FEEDB5"/>
<stop offset="0.39" stop-color="#FDB92C"/>
<stop offset="0.625" stop-color="#FE9F1F"/>
<stop offset="1" stop-color="#DA490F"/>
</linearGradient>
<linearGradient id="paint48_linear_1_1077" x1="38.8761" y1="109.917" x2="40.4716" y2="116.195" gradientUnits="userSpaceOnUse">
<stop stop-color="#FEEDB5"/>
<stop offset="0.39" stop-color="#FDB92C"/>
<stop offset="0.625" stop-color="#FE9F1F"/>
<stop offset="1" stop-color="#DA490F"/>
</linearGradient>
<linearGradient id="paint49_linear_1_1077" x1="31.7589" y1="13.6747" x2="55.3782" y2="30.2471" gradientUnits="userSpaceOnUse">
<stop stop-color="#FEEDB5"/>
<stop offset="0.39" stop-color="#FDB92C"/>
<stop offset="0.625" stop-color="#FE9F1F"/>
<stop offset="1" stop-color="#DA490F"/>
</linearGradient>
<linearGradient id="paint50_linear_1_1077" x1="47.7809" y1="88.7436" x2="55.757" y2="97.7878" gradientUnits="userSpaceOnUse">
<stop stop-color="#FEEDB5"/>
<stop offset="0.39" stop-color="#FDB92C"/>
<stop offset="0.625" stop-color="#FE9F1F"/>
<stop offset="1" stop-color="#DA490F"/>
</linearGradient>
<linearGradient id="paint51_linear_1_1077" x1="4.8013" y1="1.28789" x2="6.27247" y2="5.92034" gradientUnits="userSpaceOnUse">
<stop stop-color="#FEEDB5"/>
<stop offset="0.39" stop-color="#FDB92C"/>
<stop offset="0.625" stop-color="#FE9F1F"/>
<stop offset="1" stop-color="#DA490F"/>
</linearGradient>
<clipPath id="clip0_1_1077">
<rect width="125" height="138" fill="white"/>
</clipPath>
<clipPath id="clip1_1_1077">
<rect width="125" height="138" fill="white" transform="translate(0 -1)"/>
</clipPath>
<clipPath id="clip2_1_1077">
<rect width="125" height="138" fill="white" transform="translate(0 -1)"/>
</clipPath>
</defs>
</svg>
