<svg width="125" height="138" viewBox="0 0 125 138" fill="none" xmlns="http://www.w3.org/2000/svg">
<g clip-path="url(#clip0_1_593)">
<path d="M83.4518 110.205V104.962C83.4518 104.962 68.5962 101.142 68.5962 74.8486H56.274C56.274 101.142 41.4185 104.962 41.4185 104.962V110.205H83.4518Z" fill="url(#paint0_linear_1_593)"/>
<path d="M68.7995 79.9814C68.8583 80.703 68.9295 81.4041 69.0132 82.0847C71.4208 101.868 83.4521 104.962 83.4521 104.962V110.205H80.3424V104.962C80.3424 104.962 68.9407 102.03 66.1148 83.6237C64.9551 84.0385 63.7322 84.2505 62.5 84.2502C60.0557 84.2502 57.7786 83.4229 55.8685 81.9972C55.9501 81.3167 56.0201 80.6161 56.0783 79.8955L68.7995 79.9814Z" fill="url(#paint1_linear_1_593)"/>
<path d="M74.7271 67.8931C74.7271 75.6813 69.2528 81.9949 62.4999 81.9949C55.7471 81.9949 50.2728 75.6813 50.2728 67.8931H74.7271Z" fill="url(#paint2_linear_1_593)"/>
<path d="M74.7274 67.8931C74.7284 69.3233 74.5398 70.7474 74.1665 72.1284C73.2634 75.4396 71.3298 78.2241 68.7996 79.9819C66.9597 81.26 64.8042 82.3437 62.5 82.3437C60.2305 82.3437 58.0003 81.4678 56.2844 80.0397C57.5069 80.56 58.8225 80.8285 60.1519 80.829C64.5627 80.829 68.379 77.8924 70.2105 73.6213C63.7844 75.4897 56.895 74.959 50.8334 72.1287C50.4589 70.7479 50.2703 69.3236 50.2725 67.8933L74.7274 67.8931Z" fill="url(#paint3_linear_1_593)"/>
<path d="M99.5017 12.6394C99.5017 51.2154 82.9355 73.2791 62.5 73.2791C42.0644 73.2791 25.4982 51.2154 25.4982 12.6394V6.16455H99.5017V12.6394Z" fill="url(#paint4_linear_1_593)"/>
<path d="M21.2433 54.7784C22.2569 55.2663 23.2358 55.5616 24.3662 55.6191C24.8648 55.6443 25.3626 55.5692 25.8539 55.4936C26.1752 55.4457 26.4906 55.3638 26.7946 55.2495C28.3967 54.6387 29.8892 53.5557 30.6224 51.9607C31.0444 51.0654 31.2907 50.098 31.3482 49.1105C31.3916 48.2962 31.3006 47.4804 31.0787 46.6955C30.8376 45.8204 30.4163 44.9549 29.9435 44.1769C28.273 41.429 25.7625 39.2621 23.2777 37.2697C21.5622 35.8942 19.8027 34.5741 18.06 33.233L18.5589 33.617C15.6846 31.4043 12.8272 29.1319 10.3377 26.4854C9.6519 25.7564 8.99722 24.9988 8.38375 24.2083L8.76921 24.7054C7.63979 23.243 6.65987 21.6663 5.933 19.9663L6.1817 20.5531C5.59601 19.1791 5.19479 17.734 4.98842 16.2554L5.07648 16.9084C4.89628 15.6377 4.88346 14.3489 5.03833 13.0749L4.95034 13.7278C5.09777 12.6503 5.38603 11.5967 5.80778 10.5938L5.55923 11.1806C5.97791 10.2033 6.51959 9.28293 7.17124 8.44174L6.78579 8.93888C7.42209 8.12722 8.15572 7.39623 8.97029 6.7622L8.47136 7.14627C9.31555 6.49695 10.2392 5.95723 11.22 5.5401L10.6311 5.78768C11.6377 5.36731 12.6951 5.07996 13.7764 4.93293L13.1211 5.02068C14.0458 4.88912 14.9838 4.8792 15.9111 4.99118L15.2558 4.90343C15.9665 5.00511 16.6614 5.19604 17.3239 5.47167L16.7351 5.22401C17.3803 5.49953 17.989 5.85313 18.5475 6.27684L18.0486 5.89277C18.6203 6.33423 19.1337 6.84586 19.5768 7.41552L19.1913 6.91838C19.6166 7.47488 19.9714 8.08141 20.2479 8.7243L19.9994 8.13759C20.276 8.79774 20.4676 9.49013 20.5697 10.1982L20.4816 9.54529C20.5325 9.92452 20.5589 10.3066 20.5607 10.6892C20.5694 11.3389 20.8278 11.9605 21.2827 12.4261C21.7101 12.8519 22.4121 13.1729 23.0258 13.1455C24.3559 13.0861 25.4977 12.0657 25.4907 10.6894C25.4771 7.86324 24.3402 5.09634 22.3216 3.10321C20.2848 1.10505 17.5381 -0.0102947 14.6798 7.1619e-05C9.41625 0.0327683 4.38846 2.97159 1.84819 7.5787C0.577887 9.88657 -0.0582503 12.4878 0.00412175 15.1192C0.045875 17.1591 0.42398 19.1783 1.12331 21.0959C2.54553 24.9228 5.01963 28.1968 7.91604 31.0465C10.7467 33.8315 13.9357 36.2248 17.0844 38.6344C17.4439 38.9095 17.8031 39.185 18.162 39.4609L17.6632 39.0768C19.8276 40.7436 22.011 42.4318 23.9035 44.4088C24.3631 44.886 24.7981 45.3862 25.207 45.9072L24.8215 45.4101C25.4339 46.18 25.9445 47.025 26.3408 47.9245L26.0923 47.3378C26.2744 47.7734 26.4004 48.2302 26.4673 48.6974L26.3792 48.0444C26.4406 48.5151 26.4418 48.9917 26.3828 49.4627L26.4708 48.8098C26.414 49.2144 26.3067 49.6103 26.1515 49.9884L26.4 49.4016C26.2625 49.7186 26.0861 50.0174 25.875 50.2913L26.2605 49.7941C26.0368 50.0677 25.7821 50.3146 25.5015 50.5297L26.0004 50.1457C25.7073 50.3639 25.3902 50.5482 25.0553 50.695L25.6442 50.4474C25.2912 50.5949 24.9215 50.6987 24.5432 50.7567L25.1986 50.6689C24.7949 50.7222 24.3859 50.7226 23.9821 50.6702L24.6374 50.758C24.2287 50.6957 23.8291 50.5849 23.4469 50.4278L24.0358 50.6754C23.9333 50.6312 23.8324 50.5852 23.7318 50.5367C23.127 50.2456 22.4992 50.1061 21.8323 50.2891C21.2605 50.446 20.6408 50.8865 20.359 51.4179C20.0568 51.9882 19.9053 52.6786 20.1106 53.3106C20.2994 53.8919 20.6707 54.5027 21.2433 54.7784Z" fill="url(#paint5_linear_1_593)"/>
<path d="M20.3408 3.10321C18.5467 1.34315 16.1937 0.260246 13.6857 0.0403709C14.0164 0.0160385 14.3478 0.00260511 14.68 7.04874e-05C17.5383 -0.0102132 20.285 1.10512 22.3219 3.10321C24.3403 5.09619 25.4774 7.86324 25.4911 10.6896C25.498 12.0659 24.3563 13.0863 23.0262 13.1456C22.6746 13.1518 22.3264 13.0755 22.0097 12.9229C22.8828 12.5434 23.5161 11.7154 23.5108 10.6896C23.4963 7.86324 22.3593 5.09626 20.3408 3.10321Z" fill="url(#paint6_linear_1_593)"/>
<path d="M31.3488 49.1107C31.2909 50.0981 31.0443 51.0654 30.6223 51.9607C29.8897 53.556 28.397 54.6387 26.7945 55.2493C26.4907 55.3639 26.1756 55.4458 25.8543 55.4934C25.3629 55.5695 24.8653 55.6447 24.3662 55.6189C24.1032 55.6057 23.8411 55.5785 23.581 55.5375C23.6787 55.5231 23.7764 55.5086 23.8733 55.4934C24.1948 55.4458 24.5102 55.3639 24.8142 55.2493C26.416 54.6387 27.9086 53.556 28.642 51.9607C29.0638 51.0654 29.3101 50.0981 29.3677 49.1107C29.4109 48.2965 29.3199 47.4807 29.0983 46.6957C28.8572 45.8205 28.4359 44.9552 27.9628 44.1773C26.2924 41.4293 23.7817 39.2622 21.297 37.27C19.6731 35.9682 18.0102 34.7158 16.3596 33.4483C13.559 31.2888 10.7835 29.0654 8.35682 26.4854C7.75701 25.8482 7.18086 25.1882 6.63523 24.5038C6.68559 24.5715 6.73672 24.6384 6.78861 24.7053C6.66041 24.5396 6.53144 24.3738 6.40324 24.2088C6.47726 24.3046 6.55205 24.3989 6.6276 24.4939C5.61454 23.1749 4.75582 21.745 4.0681 20.232C3.59438 19.0538 3.25446 17.8265 3.05468 16.573C2.9269 15.5128 2.91615 14.4419 3.02263 13.3794C3.16236 12.5342 3.38971 11.7058 3.70104 10.9073C4.0542 10.1322 4.48636 9.39536 4.99071 8.7083C5.52091 8.0634 6.11424 7.47271 6.7619 6.94496C7.44993 6.44387 8.18764 6.01429 8.9635 5.66295C9.77225 5.3497 10.6117 5.12161 11.468 4.9824C12.1669 4.90272 12.8719 4.89253 13.5727 4.95199C13.4743 4.93374 13.3751 4.91777 13.2751 4.90332C13.3957 4.91929 13.5162 4.93602 13.6361 4.95199C13.6826 4.9459 13.7299 4.93906 13.7765 4.93298C13.7314 4.93906 13.6864 4.94514 13.6422 4.95275C13.6582 4.95503 13.6742 4.95655 13.6895 4.95883L13.6696 4.96111C13.659 4.96187 13.649 4.96263 13.6391 4.96415C13.575 4.96947 13.5109 4.97556 13.4468 4.98316C12.5909 5.12211 11.752 5.34995 10.9438 5.66295C10.1668 6.01494 9.4281 6.44528 8.73914 6.94724C8.09308 7.47465 7.50106 8.06455 6.97176 8.7083C6.46941 9.39178 6.03879 10.1248 5.68667 10.8959C5.37111 11.7024 5.14142 12.5396 5.00139 13.3938C4.8972 14.4527 4.90871 15.5197 5.03573 16.576C5.23526 17.8286 5.57519 19.0549 6.04915 20.232C6.73687 21.745 7.59559 23.1749 8.60865 24.4939C8.61094 24.497 8.61322 24.5 8.61628 24.5038C9.16114 25.1882 9.7373 25.8482 10.3379 26.4854C12.7272 29.0266 15.4569 31.2219 18.214 33.3509C19.9058 34.652 21.6129 35.9347 23.278 37.27C25.7628 39.2622 28.2734 41.4293 29.9439 44.1773C30.4162 44.9552 30.8375 45.8205 31.0786 46.6957C31.3008 47.4805 31.3921 48.2964 31.3488 49.1107Z" fill="url(#paint7_linear_1_593)"/>
<path d="M103.756 54.7784C102.743 55.2663 101.764 55.5616 100.633 55.6191C100.135 55.6443 99.637 55.5692 99.1458 55.4936C98.8245 55.4457 98.5091 55.3638 98.2051 55.2495C96.603 54.6387 95.1105 53.5557 94.3773 51.9607C93.9553 51.0654 93.7089 50.098 93.6515 49.1105C93.6081 48.2962 93.6991 47.4804 93.921 46.6955C94.1621 45.8204 94.5834 44.9549 95.0562 44.1769C96.7267 41.429 99.2372 39.2621 101.722 37.2697C103.437 35.8942 105.197 34.5741 106.94 33.233L106.441 33.617C109.315 31.4043 112.172 29.1319 114.662 26.4854C115.348 25.7564 116.002 24.9988 116.616 24.2083L116.23 24.7054C117.36 23.243 118.34 21.6663 119.067 19.9663L118.818 20.5531C119.404 19.1791 119.805 17.734 120.011 16.2554L119.923 16.9084C120.103 15.6377 120.116 14.3489 119.961 13.0749L120.049 13.7278C119.902 12.6503 119.614 11.5967 119.192 10.5938L119.44 11.1806C119.022 10.2033 118.48 9.28293 117.828 8.44174L118.214 8.93888C117.578 8.12722 116.844 7.39623 116.029 6.76219L116.528 7.14627C115.684 6.49695 114.761 5.95723 113.78 5.5401L114.369 5.78768C113.362 5.36731 112.305 5.07995 111.223 4.93293L111.879 5.02068C110.954 4.88912 110.016 4.8792 109.089 4.99118L109.744 4.90343C109.033 5.0051 108.338 5.19603 107.676 5.47166L108.265 5.22401C107.619 5.49953 107.011 5.85313 106.452 6.27684L106.951 5.89277C106.379 6.33423 105.866 6.84586 105.423 7.41552L105.808 6.91838C105.383 7.47488 105.028 8.08141 104.752 8.7243L105 8.13758C104.724 8.79774 104.532 9.49013 104.43 10.1982L104.518 9.54529C104.467 9.92452 104.441 10.3066 104.439 10.6892C104.43 11.3389 104.172 11.9605 103.717 12.4261C103.29 12.8519 102.588 13.1729 101.974 13.1455C100.644 13.0861 99.502 12.0657 99.509 10.6894C99.523 7.86362 100.66 5.09641 102.679 3.10359C104.715 1.10542 107.462 -0.0100562 110.32 6.83227e-05C115.583 0.032765 120.611 2.97159 123.152 7.5787C124.422 9.88657 125.058 12.4878 124.996 15.1192C124.954 17.1591 124.576 19.1783 123.876 21.0959C122.454 24.9228 119.98 28.1968 117.084 31.0465C114.253 33.8315 111.064 36.2248 107.915 38.6344C107.556 38.9095 107.197 39.185 106.838 39.4609L107.337 39.0768C105.172 40.7436 102.989 42.4318 101.096 44.4088C100.637 44.886 100.202 45.3862 99.7927 45.9072L100.178 45.4101C99.5658 46.18 99.0552 47.025 98.6589 47.9245L98.9074 47.3378C98.7252 47.7734 98.5993 48.2302 98.5324 48.6974L98.6205 48.0444C98.5591 48.5151 98.5579 48.9917 98.6169 49.4627L98.5289 48.8098C98.5857 49.2144 98.693 49.6103 98.8482 49.9884L98.5997 49.4016C98.7372 49.7186 98.9136 50.0174 99.1247 50.2913L98.7392 49.7941C98.9629 50.0677 99.2176 50.3146 99.4982 50.5297L98.9993 50.1456C99.2924 50.3639 99.6095 50.5482 99.9444 50.695L99.3555 50.4474C99.7085 50.5949 100.078 50.6987 100.456 50.7567L99.8011 50.6689C100.205 50.7222 100.614 50.7226 101.018 50.6702L100.362 50.758C100.771 50.6957 101.171 50.5849 101.553 50.4278L100.964 50.6754C101.066 50.6312 101.167 50.5852 101.268 50.5367C101.873 50.2456 102.5 50.1061 103.167 50.2891C103.739 50.446 104.359 50.8865 104.641 51.4179C104.943 51.9882 105.094 52.6786 104.889 53.3106C104.7 53.8919 104.329 54.5027 103.756 54.7784Z" fill="url(#paint8_linear_1_593)"/>
<path d="M99.502 6.16455V12.6392C99.502 51.2152 82.9354 73.2786 62.4999 73.2786C52.2307 73.2786 42.939 67.7073 36.235 57.2687C42.4979 65.5097 50.6655 69.8789 59.6001 69.8789C79.3244 69.8789 95.314 48.5835 95.314 11.3496V6.16455H99.502Z" fill="url(#paint9_linear_1_593)"/>
<path d="M104.89 53.3103C104.7 53.892 104.329 54.5026 103.756 54.7786C102.743 55.2668 101.764 55.5618 100.634 55.6188C100.15 55.6439 99.6684 55.574 99.1914 55.5002C99.9273 55.3552 100.64 55.1125 101.311 54.7786C101.884 54.5026 102.255 53.892 102.444 53.3103C102.649 52.6784 102.498 51.988 102.196 51.4177C101.982 51.048 101.672 50.7429 101.298 50.5349C101.295 50.5322 101.29 50.5299 101.286 50.528C101.886 50.2421 102.508 50.1075 103.167 50.2893C103.74 50.4459 104.359 50.8862 104.641 51.4177C104.943 51.988 105.095 52.6784 104.89 53.3103Z" fill="url(#paint10_linear_1_593)"/>
<path d="M124.995 15.119C124.954 17.1591 124.576 19.1784 123.877 21.0964C122.454 24.9226 119.98 28.1969 117.083 31.0468C114.253 33.8313 111.064 36.2243 107.915 38.6347C107.587 38.8864 107.259 39.1381 106.931 39.3898C106.928 39.3921 106.925 39.3946 106.922 39.3974C106.893 39.4187 106.865 39.44 106.838 39.4613C104.838 41.0048 102.843 42.5842 101.096 44.4091C100.709 44.8129 100.337 45.2311 99.985 45.666C99.5314 46.2661 99.1383 46.9092 98.8113 47.586C98.8098 47.5868 98.8098 47.5875 98.8098 47.5883C98.7157 47.8469 98.6415 48.1123 98.5877 48.3821C98.5695 48.6294 98.5685 48.8776 98.5847 49.125C98.6229 49.3129 98.6726 49.4983 98.7335 49.6801C98.7915 49.7919 98.854 49.8999 98.9227 50.0055C99.0204 50.1112 99.1232 50.2119 99.231 50.3074C99.2509 50.3211 99.2707 50.334 99.2913 50.3462C99.2871 50.3471 99.283 50.3484 99.2791 50.35C99.2757 50.3507 99.2724 50.3517 99.2692 50.353C99.1241 50.4022 98.9822 50.4601 98.8441 50.5264C98.6421 50.5979 98.4356 50.6563 98.226 50.7013C98.0567 50.7111 97.8871 50.7113 97.7178 50.7021C97.3783 50.6538 97.0574 50.518 96.7868 50.3082C96.6787 50.2126 96.5755 50.1115 96.4777 50.0055C96.4098 49.9006 96.3469 49.7929 96.2892 49.6824C96.2276 49.4999 96.1776 49.3138 96.1396 49.125C96.1235 48.8774 96.1245 48.6289 96.1427 48.3814C96.196 48.1117 96.2702 47.8465 96.3648 47.5883C96.3648 47.5875 96.3648 47.5868 96.3663 47.586C96.6933 46.9092 97.0864 46.2661 97.54 45.666C97.8918 45.2311 98.2641 44.8129 98.651 44.4091C100.426 42.5553 102.457 40.9547 104.487 39.3883C104.815 39.1366 105.142 38.8854 105.47 38.6347C108.619 36.2243 111.808 33.8313 114.638 31.0468C117.535 28.1969 120.009 24.9226 121.431 21.0964C122.13 19.1785 122.508 17.1591 122.55 15.119C122.613 12.4876 121.977 9.88651 120.706 7.57896C118.367 3.336 113.917 0.50736 109.116 0.0617727C109.516 0.0183907 109.918 -0.00217318 110.32 0.000181447C115.583 0.0328781 120.611 2.97178 123.152 7.57896C124.422 9.88671 125.058 12.4877 124.995 15.119Z" fill="#73FDFF"/>
<path d="M89.2217 110.339V138H35.3177V110.339C35.3189 109.921 35.4863 109.519 35.7833 109.223C36.0804 108.927 36.483 108.76 36.9032 108.759H87.6363C88.0565 108.76 88.4591 108.927 88.7561 109.223C89.0532 109.519 89.2206 109.921 89.2217 110.339Z" fill="url(#paint11_linear_1_593)"/>
<path d="M81.2946 116.662V127.726C81.2935 128.144 81.1261 128.546 80.8291 128.842C80.532 129.138 80.1294 129.305 79.7092 129.306H44.8302C44.41 129.305 44.0074 129.138 43.7103 128.842C43.4133 128.546 43.2459 128.144 43.2448 127.726V116.662C43.2459 116.243 43.4133 115.842 43.7103 115.546C44.0074 115.249 44.41 115.082 44.8302 115.081H79.7092C80.1294 115.082 80.532 115.249 80.8291 115.546C81.1261 115.842 81.2935 116.243 81.2946 116.662Z" fill="#82C7FE"/>
<path d="M81.2946 116.662V127.726C81.2935 128.144 81.1262 128.546 80.8291 128.842C80.5321 129.138 80.1294 129.305 79.7092 129.306H48.2388C54.6439 129.18 75.7457 127.821 75.7457 115.081H79.7092C80.1294 115.082 80.5321 115.249 80.8291 115.546C81.1262 115.842 81.2935 116.243 81.2946 116.662Z" fill="url(#paint12_linear_1_593)"/>
<path d="M44.8302 123.775V117.308C44.8302 117.137 44.8985 116.973 45.0202 116.851C45.1418 116.73 45.3068 116.662 45.4788 116.662H59.6936C59.6936 116.662 48.3975 117.847 44.8302 123.775Z" fill="#0A9AF9"/>
<path d="M37.1013 117.452V110.986C37.1013 110.815 37.1697 110.65 37.2913 110.529C37.413 110.408 37.5779 110.34 37.75 110.34H51.9645C51.9645 110.34 40.6685 111.525 37.1013 117.452Z" fill="#0A9AF9"/>
<path d="M49.298 63.7953C44.4515 63.7953 31.0096 47.8909 29.3807 10.3408H36.9355C38.2699 56.2839 49.298 63.7953 49.298 63.7953Z" fill="url(#paint13_linear_1_593)"/>
<path d="M46.5508 105.465C46.5508 105.465 56.8529 98.4662 56.8529 88.3564V105.465H46.5508Z" fill="url(#paint14_linear_1_593)"/>
<path d="M12.7918 3.78733C12.7918 3.78733 11.7464 3.4853 9.60826 3.92024C7.00099 4.45062 3.71783 7.27416 3.71783 7.27416C5.40081 3.92024 9.22952 1.84766 10.8453 1.84766C11.3616 1.8477 11.8567 2.05207 12.2217 2.41583C12.5868 2.77958 12.7918 3.27292 12.7918 3.78733Z" fill="url(#paint15_linear_1_593)"/>
</g>
<defs>
<linearGradient id="paint0_linear_1_593" x1="46.4374" y1="77.7154" x2="63.1072" y2="112.299" gradientUnits="userSpaceOnUse">
<stop stop-color="#0E61A3"/>
<stop offset="0.18" stop-color="#527EF5"/>
<stop offset="0.395" stop-color="#125DC9"/>
<stop offset="0.54" stop-color="#06B0FB"/>
<stop offset="0.725" stop-color="#049BF9"/>
<stop offset="1" stop-color="#4CF9FF"/>
</linearGradient>
<linearGradient id="paint1_linear_1_593" x1="59.162" y1="82.3531" x2="75.6358" y2="108.516" gradientUnits="userSpaceOnUse">
<stop stop-color="#4CF9FF"/>
<stop offset="0.28" stop-color="#049BF9"/>
<stop offset="0.63" stop-color="#AED6F0"/>
<stop offset="1" stop-color="#EAEBED"/>
</linearGradient>
<linearGradient id="paint2_linear_1_593" x1="53.1927" y1="69.0365" x2="58.2569" y2="84.3615" gradientUnits="userSpaceOnUse">
<stop stop-color="#4CF9FF"/>
<stop offset="0.275" stop-color="#049BF9"/>
<stop offset="1" stop-color="#AED6F0"/>
</linearGradient>
<linearGradient id="paint3_linear_1_593" x1="55.9643" y1="73.8993" x2="60.9398" y2="84.5365" gradientUnits="userSpaceOnUse">
<stop stop-color="#4CF9FF"/>
<stop offset="0.568702" stop-color="#AC74F1"/>
<stop offset="0.995" stop-color="#68F7FF"/>
</linearGradient>
<linearGradient id="paint4_linear_1_593" x1="34.7229" y1="-2.041" x2="74.9336" y2="67.5997" gradientUnits="userSpaceOnUse">
<stop stop-color="#A3FEFF"/>
<stop offset="0.43" stop-color="#11AAFA"/>
<stop offset="1" stop-color="#033DCA"/>
</linearGradient>
<linearGradient id="paint5_linear_1_593" x1="3.74428" y1="4.51006" x2="37.2646" y2="37.4881" gradientUnits="userSpaceOnUse">
<stop stop-color="#4CF9FF"/>
<stop offset="0.275" stop-color="#049BF9"/>
<stop offset="0.9999" stop-color="#AED6F0"/>
<stop offset="1" stop-color="#ECEBF0"/>
</linearGradient>
<linearGradient id="paint6_linear_1_593" x1="15.0953" y1="1.06589" x2="22.281" y2="12.3269" gradientUnits="userSpaceOnUse">
<stop stop-color="#4CF9FF"/>
<stop offset="0.275" stop-color="#049BF9"/>
<stop offset="0.46" stop-color="#AED6F0"/>
<stop offset="0.525" stop-color="#EAEBED"/>
<stop offset="0.705" stop-color="#ECEBF0"/>
<stop offset="1" stop-color="#3A3844"/>
</linearGradient>
<linearGradient id="paint7_linear_1_593" x1="26.1434" y1="51.852" x2="-3.00132" y2="32.6559" gradientUnits="userSpaceOnUse">
<stop stop-color="#567AF7"/>
<stop offset="0.282796" stop-color="#88E8FF"/>
<stop offset="0.61" stop-color="#63E5FD"/>
<stop offset="1" stop-color="#5864EE"/>
</linearGradient>
<linearGradient id="paint8_linear_1_593" x1="98.0387" y1="47.3609" x2="64.9138" y2="16.9458" gradientUnits="userSpaceOnUse">
<stop stop-color="#9AE1FE"/>
<stop offset="0.282796" stop-color="#A979F1"/>
<stop offset="0.63" stop-color="#0493F9"/>
<stop offset="1" stop-color="#B3FDFE"/>
</linearGradient>
<linearGradient id="paint9_linear_1_593" x1="42.4837" y1="61.2422" x2="95.0516" y2="7.27576" gradientUnits="userSpaceOnUse">
<stop stop-color="#79DAFD"/>
<stop offset="0.282796" stop-color="#C489F5"/>
<stop offset="0.63" stop-color="#0492F9"/>
<stop offset="1" stop-color="#73FDFF"/>
</linearGradient>
<linearGradient id="paint10_linear_1_593" x1="99.883" y1="50.6458" x2="102.602" y2="55.7189" gradientUnits="userSpaceOnUse">
<stop stop-color="#4CF9FF"/>
<stop offset="0.275" stop-color="#049BF9"/>
<stop offset="0.46" stop-color="#AED6F0"/>
<stop offset="0.525" stop-color="#EAEBED"/>
<stop offset="0.705" stop-color="#ECEBF0"/>
<stop offset="1" stop-color="#3A3844"/>
</linearGradient>
<linearGradient id="paint11_linear_1_593" x1="20.4252" y1="78.3903" x2="49.604" y2="154.911" gradientUnits="userSpaceOnUse">
<stop stop-color="#4BCEFB"/>
<stop offset="0.5" stop-color="#1D5BBD"/>
<stop offset="1" stop-color="#8AE9FF"/>
</linearGradient>
<linearGradient id="paint12_linear_1_593" x1="52.1858" y1="116.234" x2="56.1719" y2="132.399" gradientUnits="userSpaceOnUse">
<stop stop-color="#4294F8"/>
<stop offset="1" stop-color="#049BF9"/>
</linearGradient>
<linearGradient id="paint13_linear_1_593" x1="31.7589" y1="14.675" x2="61.2059" y2="33.8223" gradientUnits="userSpaceOnUse">
<stop stop-color="#4CF9FF"/>
<stop offset="0.275" stop-color="#049BF9"/>
<stop offset="0.695" stop-color="#AED6F0"/>
<stop offset="1" stop-color="#A97AF4"/>
</linearGradient>
<linearGradient id="paint14_linear_1_593" x1="47.7809" y1="89.7436" x2="58.0797" y2="100.566" gradientUnits="userSpaceOnUse">
<stop stop-color="#049BF9"/>
<stop offset="0.61" stop-color="#4CF9FF"/>
<stop offset="1" stop-color="#AED6F0"/>
</linearGradient>
<linearGradient id="paint15_linear_1_593" x1="4.8013" y1="2.28764" x2="6.8073" y2="8.14135" gradientUnits="userSpaceOnUse">
<stop stop-color="#4CF9FF"/>
<stop offset="0.275" stop-color="#049BF9"/>
<stop offset="0.46" stop-color="#AED6F0"/>
<stop offset="0.525" stop-color="#EAEBED"/>
<stop offset="0.705" stop-color="#ECEBF0"/>
<stop offset="1" stop-color="#3A3844"/>
</linearGradient>
<clipPath id="clip0_1_593">
<rect width="125" height="138" fill="white"/>
</clipPath>
</defs>
</svg>
