<svg width="125" height="138" viewBox="0 0 125 138" fill="none" xmlns="http://www.w3.org/2000/svg">
<g clip-path="url(#clip0_1_450)">
<g clip-path="url(#clip1_1_450)">
<g clip-path="url(#clip2_1_450)">
<path d="M83.4519 110.205V104.962C83.4519 104.962 68.5963 101.142 68.5963 74.8486H56.2741C56.2741 101.142 41.4186 104.962 41.4186 104.962V110.205H83.4519Z" fill="url(#paint0_linear_1_450)"/>
<path d="M68.7996 79.9814C68.8583 80.703 68.9295 81.4041 69.0132 82.0847C71.4209 101.868 83.4522 104.962 83.4522 104.962V110.205H80.3425V104.962C80.3425 104.962 68.9407 102.03 66.1149 83.6237C64.9552 84.0385 63.7322 84.2505 62.5 84.2502C60.0558 84.2502 57.7786 83.4229 55.8685 81.9972C55.9502 81.3167 56.0201 80.6161 56.0784 79.8955L68.7996 79.9814Z" fill="url(#paint1_linear_1_450)"/>
<path d="M74.7271 67.8931C74.7271 75.6813 69.2528 81.9949 62.5 81.9949C55.7472 81.9949 50.2729 75.6813 50.2729 67.8931H74.7271Z" fill="url(#paint2_linear_1_450)"/>
<path d="M74.7274 67.8931C74.7285 69.3233 74.5399 70.7474 74.1666 72.1284C73.2635 75.4396 71.3299 78.2241 68.7996 79.9819C66.9598 81.26 64.8043 82.3437 62.5 82.3437C60.2305 82.3437 58.0004 81.4678 56.2844 80.0397C57.507 80.56 58.8225 80.8285 60.1519 80.829C64.5627 80.829 68.3791 77.8924 70.2106 73.6213C63.7844 75.4897 56.8951 74.959 50.8335 72.1287C50.459 70.7479 50.2704 69.3236 50.2726 67.8933L74.7274 67.8931Z" fill="url(#paint3_linear_1_450)"/>
<path d="M99.5018 12.6394C99.5018 51.2154 82.9355 73.2791 62.5 73.2791C42.0645 73.2791 25.4982 51.2154 25.4982 12.6394V6.16455H99.5018V12.6394Z" fill="url(#paint4_linear_1_450)"/>
<path d="M21.2433 54.7784C22.257 55.2663 23.2358 55.5616 24.3663 55.6191C24.8649 55.6443 25.3627 55.5692 25.8539 55.4936C26.1753 55.4457 26.4906 55.3638 26.7946 55.2494C28.3968 54.6387 29.8892 53.5557 30.6224 51.9607C31.0445 51.0654 31.2908 50.098 31.3482 49.1105C31.3917 48.2962 31.3006 47.4804 31.0788 46.6955C30.8376 45.8204 30.4164 44.9549 29.9435 44.1769C28.2731 41.429 25.7626 39.2621 23.2778 37.2697C21.5623 35.8942 19.8027 34.5741 18.0601 33.233L18.559 33.617C15.6847 31.4043 12.8273 29.1319 10.3378 26.4854C9.65196 25.7564 8.99728 24.9988 8.38381 24.2083L8.76927 24.7054C7.63985 23.243 6.65993 21.6663 5.93307 19.9663L6.18177 20.5531C5.59607 19.1791 5.19485 17.734 4.98848 16.2554L5.07654 16.9084C4.89634 15.6377 4.88352 14.3489 5.03839 13.0749L4.9504 13.7278C5.09783 12.6503 5.38609 11.5967 5.80784 10.5938L5.55929 11.1806C5.97797 10.2033 6.51965 9.28293 7.1713 8.44174L6.78585 8.93888C7.42216 8.12722 8.15578 7.39623 8.97035 6.7622L8.47142 7.14627C9.31561 6.49695 10.2392 5.95723 11.2201 5.5401L10.6312 5.78768C11.6377 5.36731 12.6951 5.07996 13.7765 4.93293L13.1212 5.02068C14.0459 4.88912 14.9839 4.8792 15.9112 4.99118L15.2559 4.90343C15.9666 5.00511 16.6614 5.19604 17.324 5.47167L16.7351 5.22401C17.3803 5.49953 17.989 5.85313 18.5475 6.27684L18.0486 5.89277C18.6203 6.33423 19.1338 6.84586 19.5768 7.41552L19.1914 6.91838C19.6166 7.47487 19.9715 8.08141 20.248 8.7243L19.9994 8.13759C20.276 8.79774 20.4676 9.49013 20.5697 10.1982L20.4817 9.54529C20.5326 9.92452 20.559 10.3066 20.5607 10.6892C20.5695 11.3389 20.8279 11.9605 21.2828 12.4261C21.7101 12.8519 22.4122 13.1729 23.0259 13.1455C24.356 13.0861 25.4978 12.0657 25.4908 10.6894C25.4772 7.86324 24.3403 5.09634 22.3217 3.10321C20.2848 1.10505 17.5382 -0.0102947 14.6798 7.1619e-05C9.41631 0.0327683 4.38852 2.97159 1.84826 7.5787C0.577948 9.88657 -0.0581892 12.4878 0.00418278 15.1192C0.0459361 17.1591 0.424042 19.1783 1.12337 21.0959C2.54559 24.9228 5.01969 28.1968 7.9161 31.0465C10.7467 33.8315 13.9357 36.2248 17.0845 38.6344C17.444 38.9095 17.8032 39.185 18.1621 39.4609L17.6632 39.0768C19.8277 40.7436 22.011 42.4318 23.9036 44.4088C24.3631 44.886 24.7982 45.3862 25.207 45.9072L24.8216 45.4101C25.434 46.18 25.9446 47.025 26.3409 47.9245L26.0924 47.3378C26.2745 47.7734 26.4005 48.2302 26.4673 48.6974L26.3793 48.0444C26.4407 48.5151 26.4419 48.9917 26.3828 49.4627L26.4709 48.8098C26.4141 49.2144 26.3068 49.6103 26.1515 49.9884L26.4001 49.4016C26.2625 49.7186 26.0862 50.0174 25.8751 50.2913L26.2605 49.7941C26.0369 50.0677 25.7822 50.3146 25.5015 50.5297L26.0004 50.1456C25.7073 50.3639 25.3902 50.5482 25.0553 50.695L25.6442 50.4474C25.2913 50.5949 24.9215 50.6987 24.5433 50.7567L25.1986 50.6689C24.7949 50.7222 24.386 50.7226 23.9822 50.6702L24.6374 50.758C24.2288 50.6957 23.8291 50.5849 23.447 50.4278L24.0359 50.6754C23.9333 50.6312 23.8325 50.5852 23.7319 50.5367C23.1271 50.2456 22.4993 50.1061 21.8324 50.2891C21.2606 50.446 20.6408 50.8865 20.3591 51.4179C20.0568 51.9882 19.9054 52.6786 20.1106 53.3106C20.2994 53.8919 20.6709 54.503 21.2435 54.7786L21.2433 54.7784Z" fill="url(#paint5_linear_1_450)"/>
<path d="M20.3408 3.10321C18.5467 1.34315 16.1937 0.260246 13.6857 0.0403709C14.0164 0.0160385 14.3478 0.00260511 14.68 7.04874e-05C17.5383 -0.0102132 20.285 1.10512 22.3219 3.10321C24.3403 5.09619 25.4774 7.86324 25.4911 10.6896C25.498 12.0659 24.3563 13.0863 23.0262 13.1456C22.6746 13.1518 22.3264 13.0755 22.0097 12.9229C22.8828 12.5434 23.5161 11.7154 23.5108 10.6896C23.4963 7.86324 22.3593 5.09626 20.3408 3.10321Z" fill="url(#paint6_linear_1_450)"/>
<path d="M31.3488 49.1107C31.291 50.0981 31.0444 51.0654 30.6223 51.9607C29.8897 53.556 28.3971 54.6387 26.7945 55.2493C26.4908 55.3639 26.1756 55.4458 25.8544 55.4934C25.3629 55.5695 24.8654 55.6447 24.3663 55.6189C24.1033 55.6057 23.8412 55.5785 23.5811 55.5375C23.6787 55.5231 23.7764 55.5086 23.8733 55.4934C24.1948 55.4458 24.5103 55.3639 24.8143 55.2493C26.416 54.6387 27.9087 53.556 28.642 51.9607C29.0639 51.0654 29.3102 50.0981 29.3678 49.1107C29.411 48.2965 29.32 47.4807 29.0984 46.6957C28.8572 45.8205 28.436 44.9552 27.9629 44.1773C26.2924 41.4293 23.7818 39.2622 21.297 37.27C19.6731 35.9682 18.0103 34.7158 16.3597 33.4483C13.559 31.2888 10.7836 29.0654 8.35688 26.4854C7.75707 25.8482 7.18092 25.1882 6.63529 24.5038C6.68565 24.5715 6.73678 24.6384 6.78868 24.7053C6.66047 24.5396 6.5315 24.3738 6.4033 24.2088C6.47732 24.3046 6.55211 24.3989 6.62766 24.4939C5.6146 23.1749 4.75588 21.745 4.06816 20.232C3.59444 19.0538 3.25452 17.8265 3.05474 16.573C2.92696 15.5128 2.91621 14.4419 3.02269 13.3794C3.16242 12.5342 3.38978 11.7058 3.7011 10.9073C4.05426 10.1322 4.48642 9.39536 4.99077 8.7083C5.52097 8.0634 6.1143 7.47271 6.76197 6.94496C7.44999 6.44387 8.1877 6.01429 8.96356 5.66295C9.77231 5.3497 10.6117 5.12161 11.4681 4.9824C12.1669 4.90272 12.8719 4.89253 13.5728 4.95199C13.4743 4.93374 13.3751 4.91777 13.2752 4.90332C13.3957 4.91929 13.5163 4.93602 13.6361 4.95199C13.6827 4.9459 13.73 4.93906 13.7765 4.93298C13.7315 4.93906 13.6865 4.94514 13.6422 4.95275C13.6583 4.95503 13.6743 4.95655 13.6895 4.95883L13.6697 4.96111C13.659 4.96187 13.6491 4.96263 13.6392 4.96415C13.5751 4.96947 13.511 4.97556 13.4469 4.98316C12.591 5.12211 11.7521 5.34995 10.9438 5.66295C10.1669 6.01494 9.42816 6.44528 8.7392 6.94724C8.09314 7.47465 7.50112 8.06455 6.97182 8.7083C6.46947 9.39178 6.03885 10.1248 5.68673 10.8959C5.37117 11.7024 5.14148 12.5396 5.00145 13.3938C4.89726 14.4527 4.90877 15.5197 5.0358 16.576C5.23532 17.8286 5.57525 19.0549 6.04921 20.232C6.73693 21.745 7.59565 23.1749 8.60871 24.4939C8.611 24.497 8.61329 24.5 8.61634 24.5038C9.1612 25.1882 9.73736 25.8482 10.3379 26.4854C12.7272 29.0266 15.4569 31.2219 18.2141 33.3509C19.9059 34.652 21.613 35.9347 23.2781 37.27C25.7628 39.2622 28.2735 41.4293 29.9439 44.1773C30.4163 44.9552 30.8375 45.8205 31.0787 46.6957C31.3009 47.4805 31.3922 48.2964 31.3488 49.1107Z" fill="url(#paint7_linear_1_450)"/>
<path d="M103.756 54.7784C102.743 55.2663 101.764 55.5616 100.634 55.6191C100.135 55.6443 99.6371 55.5692 99.1459 55.4936C98.8245 55.4457 98.5092 55.3638 98.2052 55.2495C96.603 54.6387 95.1106 53.5557 94.3774 51.9607C93.9554 51.0654 93.709 50.098 93.6516 49.1105C93.6081 48.2962 93.6992 47.4804 93.9211 46.6955C94.1622 45.8204 94.5834 44.9549 95.0563 44.1769C96.7267 41.429 99.2372 39.2621 101.722 37.2697C103.438 35.8942 105.197 34.5741 106.94 33.233L106.441 33.617C109.315 31.4043 112.173 29.1319 114.662 26.4854C115.348 25.7564 116.003 24.9988 116.616 24.2083L116.231 24.7054C117.36 23.243 118.34 21.6663 119.067 19.9663L118.818 20.5531C119.404 19.1791 119.805 17.734 120.011 16.2554L119.923 16.9084C120.103 15.6377 120.116 14.3489 119.961 13.0749L120.049 13.7278C119.902 12.6503 119.614 11.5967 119.192 10.5938L119.441 11.1806C119.022 10.2033 118.48 9.28293 117.829 8.44174L118.214 8.93888C117.578 8.12722 116.844 7.39623 116.029 6.76219L116.528 7.14627C115.684 6.49695 114.761 5.95723 113.78 5.5401L114.369 5.78768C113.362 5.36731 112.305 5.07995 111.223 4.93293L111.879 5.02068C110.954 4.88912 110.016 4.8792 109.089 4.99118L109.744 4.90343C109.033 5.0051 108.338 5.19603 107.676 5.47166L108.265 5.22401C107.619 5.49953 107.011 5.85313 106.452 6.27684L106.951 5.89277C106.379 6.33423 105.866 6.84586 105.423 7.41552L105.808 6.91838C105.383 7.47488 105.028 8.08141 104.752 8.7243L105 8.13758C104.724 8.79774 104.532 9.49013 104.43 10.1982L104.518 9.54529C104.467 9.92452 104.441 10.3066 104.439 10.6892C104.43 11.3389 104.172 11.9605 103.717 12.4261C103.29 12.8519 102.588 13.1729 101.974 13.1455C100.644 13.0861 99.502 12.0657 99.5091 10.6894C99.5231 7.86362 100.66 5.09641 102.679 3.10359C104.715 1.10542 107.462 -0.0100562 110.32 6.83227e-05C115.584 0.032765 120.611 2.97159 123.152 7.5787C124.422 9.88657 125.058 12.4878 124.996 15.1192C124.954 17.1591 124.576 19.1783 123.876 21.0959C122.454 24.9228 119.98 28.1968 117.084 31.0465C114.253 33.8315 111.064 36.2248 107.915 38.6344C107.556 38.9095 107.197 39.185 106.838 39.4609L107.337 39.0768C105.172 40.7436 102.989 42.4318 101.096 44.4088C100.637 44.886 100.202 45.3862 99.7928 45.9072L100.178 45.4101C99.5659 46.18 99.0553 47.025 98.6589 47.9245L98.9074 47.3378C98.7253 47.7734 98.5993 48.2302 98.5325 48.6974L98.6206 48.0444C98.5591 48.5151 98.5579 48.9917 98.617 49.4627L98.5289 48.8098C98.5858 49.2144 98.693 49.6103 98.8483 49.9884L98.5997 49.4016C98.7373 49.7186 98.9136 50.0174 99.1248 50.2913L98.7393 49.7941C98.9629 50.0677 99.2176 50.3146 99.4983 50.5297L98.9994 50.1456C99.2925 50.3639 99.6096 50.5482 99.9445 50.695L99.3556 50.4474C99.7086 50.5949 100.078 50.6987 100.457 50.7567L99.8012 50.6689C100.205 50.7222 100.614 50.7226 101.018 50.6702L100.362 50.758C100.771 50.6957 101.171 50.5849 101.553 50.4278L100.964 50.6754C101.067 50.6312 101.167 50.5852 101.268 50.5367C101.873 50.2456 102.501 50.1061 103.167 50.2891C103.739 50.446 104.359 50.8865 104.641 51.4179C104.943 51.9882 105.094 52.6786 104.889 53.3106C104.7 53.8919 104.329 54.5027 103.756 54.7784Z" fill="url(#paint8_linear_1_450)"/>
<path d="M99.502 6.16455V12.6392C99.502 51.2152 82.9355 73.2786 62.5 73.2786C52.2307 73.2786 42.939 67.7073 36.235 57.2687C42.4979 65.5097 50.6656 69.8789 59.6002 69.8789C79.3244 69.8789 95.314 48.5835 95.314 11.3496V6.16455H99.502Z" fill="url(#paint9_linear_1_450)"/>
<path d="M104.89 53.3103C104.7 53.892 104.329 54.5026 103.756 54.7786C102.743 55.2668 101.764 55.5618 100.634 55.6188C100.15 55.6439 99.6684 55.574 99.1914 55.5002C99.9273 55.3552 100.64 55.1125 101.311 54.7786C101.884 54.5026 102.255 53.892 102.444 53.3103C102.649 52.6784 102.498 51.988 102.196 51.4177C101.982 51.048 101.672 50.7429 101.298 50.5349C101.295 50.5322 101.29 50.5299 101.286 50.528C101.886 50.2421 102.508 50.1075 103.167 50.2893C103.74 50.4459 104.359 50.8862 104.641 51.4177C104.943 51.988 105.095 52.6784 104.89 53.3103Z" fill="url(#paint10_linear_1_450)"/>
<path d="M124.995 15.119C124.954 17.1591 124.576 19.1784 123.877 21.0964C122.454 24.9226 119.98 28.1969 117.083 31.0468C114.253 33.8313 111.064 36.2243 107.915 38.6347C107.587 38.8864 107.259 39.1381 106.931 39.3898C106.928 39.3921 106.925 39.3946 106.922 39.3974C106.894 39.4187 106.865 39.44 106.838 39.4613C104.838 41.0048 102.843 42.5842 101.096 44.4091C100.709 44.8129 100.337 45.2311 99.985 45.666C99.5315 46.2661 99.1384 46.9092 98.8114 47.586C98.8098 47.5868 98.8098 47.5875 98.8098 47.5883C98.7158 47.8469 98.6415 48.1123 98.5878 48.3821C98.5696 48.6294 98.5686 48.8776 98.5847 49.125C98.6229 49.3129 98.6726 49.4983 98.7335 49.6801C98.7915 49.7919 98.8541 49.8999 98.9228 50.0055C99.0205 50.1112 99.1232 50.2119 99.2311 50.3074C99.2509 50.3211 99.2708 50.334 99.2914 50.3462C99.2872 50.3471 99.2831 50.3484 99.2792 50.35C99.2757 50.3507 99.2724 50.3517 99.2692 50.353C99.1242 50.4022 98.9822 50.4601 98.8442 50.5264C98.6421 50.5979 98.4357 50.6563 98.2261 50.7013C98.0568 50.7111 97.8871 50.7113 97.7178 50.7021C97.3784 50.6538 97.0574 50.518 96.7868 50.3082C96.6788 50.2126 96.5756 50.1115 96.4778 50.0055C96.4098 49.9006 96.347 49.7929 96.2893 49.6824C96.2277 49.4999 96.1777 49.3138 96.1397 49.125C96.1235 48.8774 96.1246 48.6289 96.1427 48.3814C96.1961 48.1117 96.2703 47.8465 96.3648 47.5883C96.3648 47.5875 96.3648 47.5868 96.3663 47.586C96.6934 46.9092 97.0865 46.2661 97.54 45.666C97.8918 45.2311 98.2642 44.8129 98.6511 44.4091C100.426 42.5553 102.457 40.9547 104.487 39.3883C104.815 39.1366 105.142 38.8854 105.47 38.6347C108.619 36.2243 111.808 33.8313 114.638 31.0468C117.535 28.1969 120.009 24.9226 121.431 21.0964C122.13 19.1785 122.508 17.1591 122.55 15.119C122.613 12.4876 121.977 9.88651 120.706 7.57896C118.367 3.336 113.917 0.50736 109.116 0.0617727C109.516 0.0183907 109.918 -0.00217318 110.32 0.000181447C115.583 0.0328781 120.611 2.97178 123.152 7.57896C124.422 9.88671 125.058 12.4877 124.995 15.119Z" fill="#D5D7E1"/>
<path d="M89.2217 110.339V138H35.3177V110.339C35.3189 109.921 35.4863 109.519 35.7833 109.223C36.0804 108.927 36.483 108.76 36.9032 108.759H87.6363C88.0565 108.76 88.4591 108.927 88.7561 109.223C89.0532 109.519 89.2206 109.921 89.2217 110.339Z" fill="url(#paint11_linear_1_450)"/>
<path d="M81.2946 116.662V127.726C81.2935 128.145 81.1262 128.546 80.8291 128.842C80.5321 129.139 80.1295 129.306 79.7093 129.307H44.8303C44.41 129.306 44.0074 129.139 43.7104 128.842C43.4133 128.546 43.246 128.145 43.2449 127.726V116.662C43.246 116.243 43.4133 115.842 43.7104 115.546C44.0074 115.25 44.41 115.083 44.8303 115.082H79.7093C80.1295 115.083 80.5321 115.25 80.8291 115.546C81.1262 115.842 81.2935 116.243 81.2946 116.662Z" fill="url(#paint12_linear_1_450)"/>
<path d="M81.2947 116.662V127.726C81.2936 128.145 81.1262 128.546 80.8292 128.842C80.5321 129.139 80.1295 129.306 79.7093 129.307H48.2389C54.644 129.18 75.7457 127.821 75.7457 115.082H79.7093C80.1295 115.083 80.5321 115.25 80.8292 115.546C81.1262 115.842 81.2936 116.243 81.2947 116.662Z" fill="url(#paint13_linear_1_450)"/>
<path d="M44.8303 123.775V117.308C44.8303 117.137 44.8986 116.973 45.0202 116.851C45.1419 116.73 45.3069 116.662 45.4789 116.662H59.6936C59.6936 116.662 48.3976 117.847 44.8303 123.775Z" fill="url(#paint14_linear_1_450)"/>
<path d="M37.1014 117.452V110.986C37.1014 110.815 37.1697 110.65 37.2914 110.529C37.413 110.408 37.578 110.34 37.75 110.34H51.9645C51.9645 110.34 40.6686 111.525 37.1014 117.452Z" fill="url(#paint15_linear_1_450)"/>
<path d="M49.2981 63.7953C44.4515 63.7953 31.0097 47.8909 29.3807 10.3408H36.9356C38.27 56.2839 49.2981 63.7953 49.2981 63.7953Z" fill="url(#paint16_linear_1_450)"/>
<path d="M46.5508 105.465C46.5508 105.465 56.8529 98.4662 56.8529 88.3564V105.465H46.5508Z" fill="url(#paint17_linear_1_450)"/>
<path d="M12.7918 3.78782C12.7918 3.78782 11.7464 3.48579 9.60826 3.92073C7.00099 4.4511 3.71783 7.27465 3.71783 7.27465C5.40081 3.92073 9.22952 1.84814 10.8453 1.84814C11.3616 1.84818 11.8567 2.05256 12.2217 2.41632C12.5868 2.78007 12.7918 3.27341 12.7918 3.78782Z" fill="url(#paint18_linear_1_450)"/>
</g>
</g>
</g>
<defs>
<linearGradient id="paint0_linear_1_450" x1="46.4375" y1="77.7154" x2="63.1073" y2="112.299" gradientUnits="userSpaceOnUse">
<stop stop-color="#B6BCC8"/>
<stop offset="0.275" stop-color="#CACED7"/>
<stop offset="0.525" stop-color="#EAEBED"/>
<stop offset="0.705" stop-color="#ECEBF0"/>
<stop offset="1" stop-color="#3A3844"/>
</linearGradient>
<linearGradient id="paint1_linear_1_450" x1="59.1621" y1="82.3531" x2="75.6359" y2="108.516" gradientUnits="userSpaceOnUse">
<stop stop-color="#B6BCC8"/>
<stop offset="0.275" stop-color="#CACED7"/>
<stop offset="0.525" stop-color="#EAEBED"/>
<stop offset="0.705" stop-color="#ECEBF0"/>
<stop offset="1" stop-color="#3A3844"/>
</linearGradient>
<linearGradient id="paint2_linear_1_450" x1="53.1928" y1="69.0365" x2="58.2569" y2="84.3615" gradientUnits="userSpaceOnUse">
<stop stop-color="#B6BCC8"/>
<stop offset="0.275" stop-color="#CACED7"/>
<stop offset="0.525" stop-color="#EAEBED"/>
<stop offset="0.705" stop-color="#ECEBF0"/>
<stop offset="1" stop-color="#3A3844"/>
</linearGradient>
<linearGradient id="paint3_linear_1_450" x1="53.1926" y1="69.0647" x2="58.4841" y2="84.6919" gradientUnits="userSpaceOnUse">
<stop stop-color="#B6BCC8"/>
<stop offset="0.275" stop-color="#CACED7"/>
<stop offset="0.525" stop-color="#EAEBED"/>
<stop offset="0.705" stop-color="#ECEBF0"/>
<stop offset="1" stop-color="#3A3844"/>
</linearGradient>
<linearGradient id="paint4_linear_1_450" x1="34.7229" y1="-2.041" x2="74.9336" y2="67.5997" gradientUnits="userSpaceOnUse">
<stop stop-color="#FAFAFC"/>
<stop offset="0.43" stop-color="#606277"/>
<stop offset="1" stop-color="#FAFAFC"/>
</linearGradient>
<linearGradient id="paint5_linear_1_450" x1="3.74434" y1="4.51006" x2="37.2647" y2="37.4881" gradientUnits="userSpaceOnUse">
<stop stop-color="#B6BCC8"/>
<stop offset="0.275" stop-color="#CACED7"/>
<stop offset="0.525" stop-color="#EAEBED"/>
<stop offset="0.705" stop-color="#ECEBF0"/>
<stop offset="1" stop-color="#3A3844"/>
</linearGradient>
<linearGradient id="paint6_linear_1_450" x1="15.0953" y1="1.06589" x2="22.281" y2="12.3269" gradientUnits="userSpaceOnUse">
<stop stop-color="#B6BCC8"/>
<stop offset="0.275" stop-color="#CACED7"/>
<stop offset="0.525" stop-color="#EAEBED"/>
<stop offset="0.705" stop-color="#ECEBF0"/>
<stop offset="1" stop-color="#3A3844"/>
</linearGradient>
<linearGradient id="paint7_linear_1_450" x1="26.1435" y1="51.852" x2="-3.00126" y2="32.6559" gradientUnits="userSpaceOnUse">
<stop stop-color="#767581"/>
<stop offset="0.282796" stop-color="#767581"/>
<stop offset="0.61" stop-color="#767581"/>
<stop offset="1" stop-color="#767581"/>
</linearGradient>
<linearGradient id="paint8_linear_1_450" x1="98.0388" y1="47.3609" x2="64.9139" y2="16.9458" gradientUnits="userSpaceOnUse">
<stop stop-color="#C1BFC5"/>
<stop offset="0.282796" stop-color="#656370"/>
<stop offset="0.63" stop-color="#C2C6D2"/>
<stop offset="1" stop-color="#ADACB4"/>
</linearGradient>
<linearGradient id="paint9_linear_1_450" x1="42.4838" y1="61.2422" x2="95.0517" y2="7.27576" gradientUnits="userSpaceOnUse">
<stop stop-color="#86899A"/>
<stop offset="0.282796" stop-color="#DADDE4"/>
<stop offset="0.63" stop-color="#9A98A3"/>
<stop offset="1" stop-color="#9A99A1"/>
</linearGradient>
<linearGradient id="paint10_linear_1_450" x1="99.883" y1="50.6458" x2="102.602" y2="55.7189" gradientUnits="userSpaceOnUse">
<stop stop-color="#B6BCC8"/>
<stop offset="0.275" stop-color="#CACED7"/>
<stop offset="0.525" stop-color="#EAEBED"/>
<stop offset="0.705" stop-color="#ECEBF0"/>
<stop offset="1" stop-color="#3A3844"/>
</linearGradient>
<linearGradient id="paint11_linear_1_450" x1="20.4252" y1="78.3903" x2="49.604" y2="154.911" gradientUnits="userSpaceOnUse">
<stop stop-color="#BDC1CD"/>
<stop offset="0.282796" stop-color="#767581"/>
<stop offset="0.6" stop-color="#767581"/>
<stop offset="0.88" stop-color="#767581"/>
<stop offset="1" stop-color="#767581"/>
</linearGradient>
<linearGradient id="paint12_linear_1_450" x1="47.7881" y1="116.235" x2="51.3005" y2="132.63" gradientUnits="userSpaceOnUse">
<stop stop-color="#B6BCC8"/>
<stop offset="0.275" stop-color="#CACED7"/>
<stop offset="0.525" stop-color="#EAEBED"/>
<stop offset="0.705" stop-color="#ECEBF0"/>
<stop offset="1" stop-color="#3A3844"/>
</linearGradient>
<linearGradient id="paint13_linear_1_450" x1="52.1859" y1="116.235" x2="56.172" y2="132.399" gradientUnits="userSpaceOnUse">
<stop stop-color="#B6BCC8"/>
<stop offset="0.275" stop-color="#CACED7"/>
<stop offset="0.525" stop-color="#EAEBED"/>
<stop offset="0.705" stop-color="#ECEBF0"/>
<stop offset="1" stop-color="#3A3844"/>
</linearGradient>
<linearGradient id="paint14_linear_1_450" x1="46.605" y1="117.239" x2="48.7915" y2="125.213" gradientUnits="userSpaceOnUse">
<stop stop-color="#B6BCC8"/>
<stop offset="0.275" stop-color="#CACED7"/>
<stop offset="0.525" stop-color="#EAEBED"/>
<stop offset="0.705" stop-color="#ECEBF0"/>
<stop offset="1" stop-color="#3A3844"/>
</linearGradient>
<linearGradient id="paint15_linear_1_450" x1="38.8761" y1="110.917" x2="41.0626" y2="118.89" gradientUnits="userSpaceOnUse">
<stop stop-color="#B6BCC8"/>
<stop offset="0.275" stop-color="#CACED7"/>
<stop offset="0.525" stop-color="#EAEBED"/>
<stop offset="0.705" stop-color="#ECEBF0"/>
<stop offset="1" stop-color="#3A3844"/>
</linearGradient>
<linearGradient id="paint16_linear_1_450" x1="31.7589" y1="14.675" x2="61.2059" y2="33.8223" gradientUnits="userSpaceOnUse">
<stop stop-color="#B6BCC8"/>
<stop offset="0.275" stop-color="#CACED7"/>
<stop offset="0.525" stop-color="#EAEBED"/>
<stop offset="0.705" stop-color="#ECEBF0"/>
<stop offset="1" stop-color="#3A3844"/>
</linearGradient>
<linearGradient id="paint17_linear_1_450" x1="47.7809" y1="89.7436" x2="58.0798" y2="100.566" gradientUnits="userSpaceOnUse">
<stop stop-color="#B6BCC8"/>
<stop offset="0.275" stop-color="#CACED7"/>
<stop offset="0.525" stop-color="#EAEBED"/>
<stop offset="0.705" stop-color="#ECEBF0"/>
<stop offset="1" stop-color="#3A3844"/>
</linearGradient>
<linearGradient id="paint18_linear_1_450" x1="4.8013" y1="2.28813" x2="6.8073" y2="8.14184" gradientUnits="userSpaceOnUse">
<stop stop-color="#B6BCC8"/>
<stop offset="0.275" stop-color="#CACED7"/>
<stop offset="0.525" stop-color="#EAEBED"/>
<stop offset="0.705" stop-color="#ECEBF0"/>
<stop offset="1" stop-color="#3A3844"/>
</linearGradient>
<clipPath id="clip0_1_450">
<rect width="125" height="138" fill="white"/>
</clipPath>
<clipPath id="clip1_1_450">
<rect width="125" height="138" fill="white"/>
</clipPath>
<clipPath id="clip2_1_450">
<rect width="125" height="138" fill="white"/>
</clipPath>
</defs>
</svg>
